{
.appVersion = "3436";
.formatVersion = 3;
DisplayStrings = (
"AÁĂÂÄÀĀĄÅÃÆBCĆČÇĈĊDĎĐÐ
EÉĔĚÊËĖÈĒĘFGĞĜĢĠHĦĤIĲÍĬÎÏİÌĪĮĨJĴ
KĶLĹĽĻĿŁMNŃŇŅÑŊOÓŎÔÖÒ
ŐŌØÕŒPÞQRŔŘŖSŚŠŞŜȘTŤŢȚU
ÚŬÛÜÙŰŪŲŮŨVWẂŴẄẀXYÝ
ŶŸỲZŹŽŻ/G.ss01/K.ss01/Q_U aáăâäàāąåãæbcćč
çĉċdďđðeéĕěêëėèēęfgğĝģġhħĥiıíĭî
ï/idotaccent ìīįĩĳjȷĵkķlĺľļŀłmnńňņñŋoóŏôöòőōøõ
œpþqrŕřŗsśšşŝșſtťţțuúŭûüùűūųůũ
vwẃŵẅẁxyýŷÿỳzźžż/q.ss01 

",
"ĳ",
"W/W.ss01/W.ss02/W.ss03/W.ss04 H ",
"→←
/rightArrow.ss01/leftArrow.ss01 
/leftArrow.ss01  /rightArrow.ss02/leftArrow.ss02/rightArrow.ss03/leftArrow.ss03/rightArrow.ss04/leftArrow.ss04",
"β",
"H/H.ss01",
"/a.ss01"
);
classes = (
{
automatic = 1;
code = "A Aacute Abreve Acircumflex Adieresis Agrave Amacron Aogonek Aring Atilde AE B C Cacute Ccaron Ccedilla Ccircumflex Cdotaccent D Dcaron Dcroat Eth E Eacute Ebreve Ecaron Ecircumflex Edieresis Edotaccent Egrave Emacron Eogonek F G Gbreve Gcircumflex Gcommaaccent Gdotaccent H Hbar Hcircumflex I IJ Iacute Ibreve Icircumflex Idieresis Idotaccent Igrave Imacron Iogonek Itilde J Jcircumflex K Kcommaaccent L Lacute Lcaron Lcommaaccent Ldot Lslash M N Nacute Ncaron Ncommaaccent Ntilde Eng O Oacute Obreve Ocircumflex Odieresis Ograve Ohungarumlaut Omacron Oslash Otilde OE P Thorn Q R Racute Rcaron Rcommaaccent S Sacute Scaron Scedilla Scircumflex Scommaaccent Germandbls T Tcaron Tcedilla Tcommaaccent U Uacute Ubreve Ucircumflex Udieresis Ugrave Uhungarumlaut Umacron Uogonek Uring Utilde V W Wacute Wcircumflex Wdieresis Wgrave X Y Yacute Ycircumflex Ydieresis Ygrave Z Zacute Zcaron Zdotaccent G.ss01 H.ss01 K.ss01 W.ss01 X.ss01 W.ss02 W.ss03 W.ss04 Q_U";
name = Uppercase;
}
);
customParameters = (
{
name = fsType;
value = (
);
}
);
date = "2026-06-30 06:09:11 +0000";
familyName = "Metropolitan Line";
featurePrefixes = (
{
automatic = 1;
code = "languagesystem DFLT dflt;

languagesystem latn dflt;
languagesystem latn AZE;
languagesystem latn CRT;
languagesystem latn KAZ;
languagesystem latn TAT;
languagesystem latn TRK;
languagesystem latn ROM;

glyphs = (
{
color = 4;
glyphname = A;
kernLeft = A;
kernRight = A;
lastChange = "2026-06-29 07:44:48 +0000";
layers = (
{
anchors = (
{
name = bottom;
pos = (338,0);
},
{
name = ogonek;
pos = (665,0);
},
{
name = top;
pos = (338,700);
}
);
layerId = m001;
shapes = (
{
closed = 1;
nodes = (
(122,0,l),
(336,526,l),
(555,0,l),
(665,0,l),
(378,700,l),
(299,700,l),
(12,0,l)
);
},
{
closed = 1;
nodes = (
(503,175,l),
(459,270,l),
(218,270,l),
(174,175,l)
);
}
);
width = 677;
}
);
unicode = 65;
userData = {
KernOnName = A;
};
},
{
color = 4;
glyphname = AE;
kernLeft = A;
kernRight = E;
lastChange = "2026-06-24 07:28:04 +0000";
layers = (
{
anchors = (
{
name = bottom;
pos = (391,0);
},
{
name = ogonek;
pos = (250,0);
},
{
name = top;
pos = (461,700);
}
);
layerId = m001;
shapes = (
{
closed = 1;
nodes = (
(881,0,l),
(881,100,l),
(571,100,l),
(571,325,l),
(784,325,l),
(784,425,l),
(571,425,l),
(571,600,l),
(861,600,l),
(861,700,l),
(461,700,l),
(461,0,l)
);
},
{
closed = 1;
nodes = (
(488,175,l),
(488,270,l),
(203,270,l),
(159,175,l)
);
},
{
closed = 1;
nodes = (
(389,700,l),
(12,0,l),
(132,0,l),
(507,700,l)
);
},
{
closed = 1;
nodes = (
(425,600,l),
(571,600,l),
(571,700,l),
(425,700,l)
);
}
);
width = 905;
}
);
metricLeft = A;
metricRight = E;
unicode = 198;
},
{
color = 4;
glyphname = B;
kernLeft = H;
kernRight = B;
lastChange = "2026-06-29 07:17:10 +0000";
layers = (
{
layerId = m001;
shapes = (
{
closed = 1;
nodes = (
(283,0,ls),
(428,0,o),
(526,92,o),
(526,209,cs),
(526,304,o),
(488,365,o),
(396,399,c),
(437,436,o),
(453,468,o),
(453,518,cs),
(453,620,o),
(367,700,o),
(240,700,cs),
(50,700,l),
(50,0,l)
);
},
{
closed = 1;
nodes = (
(160,332,l),
(213,332,l),
(282,332,ls),
(367,332,o),
(414,280,o),
(414,210,cs),
(414,147,o),
(368,100,o),
(284,100,cs),
(160,100,l)
);
},
{
closed = 1;
nodes = (
(160,600,l),
(240,600,ls),
(304,600,o),
(341,565,o),
(341,518,cs),
(341,469,o),
(305,432,o),
(243,432,cs),
(160,432,l)
);
}
);
width = 546;
}
);
metricLeft = H;
unicode = 66;
},
{
color = 4;
glyphname = C;
kernLeft = O;
kernRight = C;
lastChange = "2026-06-29 07:16:01 +0000";
layers = (
{
anchors = (
{
name = bottom;
pos = (388,0);
},
{
name = top;
pos = (387,700);
}
);
layerId = m001;
shapes = (
{
closed = 1;
nodes = (
(493,-10,o),
(568,23,o),
(633,68,c),
(633,203,l),
(582,138,o),
(489,90,o),
(392,90,cs),
(242,90,o),
(130,206,o),
(130,360,cs),
(130,504,o),
(241,612,o),
(389,612,cs),
(485,612,o),
(580,568,o),
(635,509,c),
(635,640,l),
(570,681,o),
(501,712,o),
(387,712,cs),
(176,712,o),
(18,561,o),
(18,360,cs),
(18,149,o),
(177,-10,o),
(388,-10,cs)
);
}
);
width = 653;
}
);
metricLeft = O;
metricRight = O;
unicode = 67;
userData = {
KernOnName = C;
};
},
{
color = 4;
glyphname = D;
kernLeft = H;
kernRight = O;
lastChange = "2026-06-26 08:34:09 +0000";
layers = (
{
anchors = (
{
name = bottom;
pos = (342,0);
},
{
name = center;
pos = (170,350);
},
{
name = top;
pos = (293,700);
}
);
layerId = m001;
shapes = (
{
closed = 1;
nodes = (
(295,0,ls),
(501,0,o),
(655,155,o),
(655,361,cs),
(655,555,o),
(500,700,o),
(293,700,cs),
(50,700,l),
(50,0,l)
);
},
{
closed = 1;
nodes = (
(160,600,l),
(295,600,ls),
(437,600,o),
(543,497,o),
(543,359,cs),
(543,211,o),
(437,100,o),
(295,100,cs),
(160,100,l)
);
}
);
width = 673;
}
);
metricLeft = H;
metricRight = O;
unicode = 68;
},
{
color = 4;
glyphname = E;
kernLeft = H;
kernRight = E;
lastChange = "2026-06-26 08:34:09 +0000";
layers = (
{
anchors = (
{
name = bottom;
pos = (257,0);
},
{
name = ogonek;
pos = (420,0);
},
{
name = top;
pos = (260,700);
},
{
name = topleft;
pos = (50,700);
}
);
layerId = m001;
shapes = (
{
closed = 1;
nodes = (
(490,0,l),
(490,100,l),
(160,100,l),
(160,325,l),
(393,325,l),
(393,425,l),
(160,425,l),
(160,600,l),
(470,600,l),
(470,700,l),
(50,700,l),
(50,0,l)
);
}
);
width = 514;
}
);
metricLeft = H;
unicode = 69;
},
{
color = 4;
glyphname = F;
kernLeft = H;
kernRight = F;
lastChange = "2026-06-29 07:57:35 +0000";
layers = (
{
layerId = m001;
shapes = (
{
closed = 1;
nodes = (
(160,0,l),
(160,325,l),
(393,325,l),
(393,425,l),
(160,425,l),
(160,600,l),
(470,600,l),
(470,700,l),
(50,700,l),
(50,0,l)
);
}
);
width = 494;
}
);
metricLeft = H;
unicode = 70;
userData = {
KernOnName = F;
};
},
{
color = 4;
glyphname = G;
kernLeft = O;
kernRight = C;
lastChange = "2026-06-26 09:04:07 +0000";
layers = (
{
anchors = (
{
name = bottom;
pos = (383,0);
},
{
name = top;
pos = (390,700);
}
);
layerId = m001;
shapes = (
{
closed = 1;
nodes = (
(487,-10,o),
(584,18,o),
(665,68,c),
(665,398,l),
(441,398,l),
(441,298,l),
(555,298,l),
(555,82,l),
(591,140,l),
(530,106,o),
(458,92,o),
(383,92,cs),
(234,92,o),
(130,211,o),
(130,365,cs),
(130,501,o),
(238,610,o),
(386,610,cs),
(494,610,o),
(592,574,o),
(653,515,c),
(653,640,l),
(578,684,o),
(483,712,o),
(390,712,cs),
(164,712,o),
(18,542,o),
(18,365,cs),
(18,156,o),
(183,-10,o),
(383,-10,cs)
);
}
);
width = 706;
}
);
metricLeft = O;
unicode = 71;
userData = {
KernOnName = G;
};
},
{
color = 4;
glyphname = H;
kernLeft = H;
kernRight = H;
lastChange = "2026-06-29 14:34:52 +0000";
layers = (
{
anchors = (
{
name = bottom;
pos = (339,0);
},
{
name = center;
pos = (339,560);
},
{
name = top;
pos = (339,700);
},
{
name = topleft;
pos = (50,700);
}
);
layerId = m001;
shapes = (
{
closed = 1;
nodes = (
(50,700,l),
(160,700,l),
(160,411,l),
(517,411,l),
(517,700,l),
(627,700,l),
(627,0,l),
(517,0,l),
(517,311,l),
(160,311,l),
(160,0,l),
(50,0,l)
);
}
);
width = 677;
}
);
unicode = 72;
userData = {
KernOnName = H;
};
},
{
color = 4;
glyphname = Hbar;
kernLeft = H;
kernRight = H;
lastChange = "2026-06-24 07:28:04 +0000";
layers = (
{
layerId = m001;
shapes = (
{
pos = (8,0);
ref = H;
},
{
closed = 1;
nodes = (
(0,521,l),
(677,521,l),
(677,606,l),
(0,606,l)
);
}
);
width = 677;
}
);
unicode = 294;
},
{
color = 4;
glyphname = I;
kernLeft = I;
kernRight = I;
lastChange = "2026-06-26 08:45:32 +0000";
layers = (
{
anchors = (
{
name = bottom;
pos = (115,0);
},
{
name = ogonek;
pos = (170,0);
},
{
name = top;
pos = (115,700);
},
{
name = topleft;
pos = (60,700);
}
);
layerId = m001;
shapes = (
{
closed = 1;
nodes = (
(170,0,l),
(170,700,l),
(60,700,l),
(60,0,l)
);
}
);
width = 230;
}
);
metricLeft = "=H+10";
metricRight = "=H+10";
unicode = 73;
},
{
color = 4;
glyphname = IJ;
kernLeft = H;
kernRight = H;
lastChange = "2026-06-29 07:50:43 +0000";
layers = (
{
anchors = (
{
name = bottom;
pos = (254,0);
},
{
name = top;
pos = (254,700);
}
);
layerId = m001;
shapes = (
{
closed = 1;
nodes = (
(178,260,l),
(178,700,l),
(68,700,l),
(68,260,l)
);
},
{
closed = 1;
nodes = (
(360,-10,o),
(440,74,o),
(440,197,c),
(440,700,l),
(330,700,l),
(330,195,ls),
(330,134,o),
(294,92,o),
(242,92,cs),
(205,92,o),
(171,123,o),
(154,172,c),
(60,121,l),
(92,43,o),
(166,-10,o),
(243,-10,cs)
);
}
);
width = 490;
}
);
metricLeft = I;
metricRight = J;
unicode = 306;
},
{
color = 4;
glyphname = J;
kernLeft = J;
kernRight = U;
lastChange = "2026-06-29 07:21:59 +0000";
layers = (
{
anchors = (
{
name = bottom;
pos = (204,0);
},
{
name = top;
pos = (345,700);
}
);
layerId = m001;
shapes = (
{
closed = 1;
nodes = (
(320,-10,o),
(400,74,o),
(400,197,cs),
(400,700,l),
(290,700,l),
(290,195,ls),
(290,134,o),
(254,92,o),
(202,92,cs),
(165,92,o),
(131,123,o),
(114,172,c),
(20,121,l),
(52,43,o),
(126,-10,o),
(203,-10,cs)
);
}
);
width = 450;
}
);
metricRight = H;
unicode = 74;
userData = {
KernOnName = J;
};
},
{
color = 4;
glyphname = K;
kernLeft = H;
kernRight = K;
lastChange = "2026-06-26 08:34:09 +0000";
layers = (
{
anchors = (
{
name = bottom;
pos = (318,0);
},
{
name = top;
pos = (317,700);
}
);
guides = (
{
angle = 90;
pos = (606,187);
},
{
angle = 90;
pos = (160,700);
}
);
layerId = m001;
shapes = (
{
closed = 1;
nodes = (
(160,0,l),
(160,332,l),
(476,0,l),
(620,0,l),
(260,382,l),
(620,700,l),
(474,700,l),
(160,423,l),
(160,700,l),
(50,700,l),
(50,0,l)
);
}
);
width = 632;
}
);
metricLeft = H;
unicode = 75;
},
{
color = 4;
glyphname = L;
kernLeft = H;
kernRight = L;
lastChange = "2026-06-26 09:01:28 +0000";
layers = (
{
anchors = (
{
name = bottom;
pos = (259,0);
},
{
name = center;
pos = (297,382);
},
{
name = top;
pos = (105,700);
},
{
name = topright;
pos = (336,700);
}
);
layerId = m001;
shapes = (
{
closed = 1;
nodes = (
(468,0,l),
(468,100,l),
(160,100,l),
(160,700,l),
(50,700,l),
(50,0,l)
);
}
);
width = 480;
}
);
metricLeft = H;
unicode = 76;
userData = {
KernOnName = L;
};
},
{
color = 4;
glyphname = Lslash;
kernLeft = L;
kernRight = L;
lastChange = "2026-06-29 07:42:02 +0000";
layers = (
{
layerId = m001;
shapes = (
{
pos = (40,0);
ref = L;
},
{
closed = 1;
nodes = (
(109,232,l),
(175,282,l),
(348,440,l),
(348,555,l),
(172,395,l),
(112,350,l),
(30,275,l),
(30,160,l)
);
}
);
width = 520;
}
);
metricLeft = "=L-20";
metricRight = L;
unicode = 321;
},
{
color = 4;
glyphname = M;
kernLeft = H;
kernRight = H;
lastChange = "2026-06-26 08:34:09 +0000";
layers = (
{
anchors = (
{
name = bottom;
pos = (407,0);
},
{
name = top;
pos = (407,700);
}
);
layerId = m001;
shapes = (
{
closed = 1;
nodes = (
(160,0,l),
(160,540,l),
(407,240,l),
(654,540,l),
(654,0,l),
(764,0,l),
(764,700,l),
(652,700,l),
(407,400,l),
(162,700,l),
(50,700,l),
(50,0,l)
);
}
);
width = 814;
}
);
metricLeft = H;
metricRight = H;
unicode = 77;
},
{
color = 4;
glyphname = N;
kernLeft = H;
kernRight = H;
lastChange = "2026-06-26 09:01:00 +0000";
layers = (
{
anchors = (
{
name = bottom;
pos = (379,0);
},
{
name = top;
pos = (379,700);
}
);
layerId = m001;
shapes = (
{
closed = 1;
nodes = (
(160,0,l),
(160,533,l),
(595,0,l),
(707,0,l),
(707,700,l),
(597,700,l),
(597,169,l),
(163,700,l),
(50,700,l),
(50,0,l)
);
}
);
width = 757;
}
);
metricLeft = H;
metricRight = H;
unicode = 78;
userData = {
KernOnName = N;
};
},
{
color = 4;
glyphname = Eng;
kernLeft = H;
kernRight = H;
lastChange = "2026-06-26 08:34:09 +0000";
layers = (
{
anchors = (
{
name = bottom;
pos = (379,-225);
},
{
name = top;
pos = (379,700);
}
);
layerId = m001;
shapes = (
{
closed = 1;
nodes = (
(160,0,l),
(160,533,l),
(595,0,l),
(595,-95,o),
(568,-134,o),
(515,-134,cs),
(509,-134,o),
(503,-134,o),
(497,-133,c),
(497,-232,l),
(511,-234,o),
(536,-235,o),
(548,-235,cs),
(661,-235,o),
(707,-155,o),
(707,0,cs),
(707,700,l),
(597,700,l),
(597,169,l),
(163,700,l),
(50,700,l),
(50,0,l)
);
}
);
width = 757;
}
);
metricLeft = H;
metricRight = H;
unicode = 330;
},
{
color = 4;
glyphname = O;
kernLeft = O;
kernRight = O;
lastChange = "2026-06-26 08:24:29 +0000";
layers = (
{
anchors = (
{
name = bottom;
pos = (395,0);
},
{
name = center;
pos = (395,350);
},
{
name = ogonek;
pos = (573,32);
},
{
name = top;
pos = (395,700);
},
{
name = topleft;
pos = (-95,722);
},
{
name = topright;
pos = (770,700);
}
);
guides = (
{
angle = 180;
pos = (395,351);
},
{
angle = 90;
pos = (395,351);
}
);
layerId = m001;
shapes = (
{
closed = 1;
nodes = (
(606,-10,o),
(772,149,o),
(772,351,cs),
(772,553,o),
(606,712,o),
(395,712,cs),
(184,712,o),
(18,553,o),
(18,351,cs),
(18,149,o),
(184,-10,o),
(395,-10,cs)
);
},
{
closed = 1;
nodes = (
(247,92,o),
(130,206,o),
(130,351,cs),
(130,496,o),
(247,610,o),
(395,610,cs),
(543,610,o),
(660,496,o),
(660,351,cs),
(660,206,o),
(543,92,o),
(395,92,cs)
);
}
);
width = 790;
}
);
unicode = 79;
},
{
color = 4;
glyphname = Oslash;
kernLeft = O;
kernRight = O;
lastChange = "2026-06-24 07:28:04 +0000";
layers = (
{
layerId = m001;
shapes = (
{
ref = O;
},
{
closed = 1;
nodes = (
(289,30,l),
(306,85,l),
(551,587,l),
(592,650,l),
(656,781,l),
(561,781,l),
(512,682,l),
(480,627,l),
(236,128,l),
(214,72,l),
(150,-58,l),
(246,-58,l)
);
}
);
width = 790;
}
);
metricLeft = O;
metricRight = O;
unicode = 216;
},
{
color = 4;
glyphname = OE;
kernLeft = O;
kernRight = E;
lastChange = "2026-06-24 07:28:04 +0000";
layers = (
{
anchors = (
{
name = bottom;
pos = (576,0);
},
{
name = top;
pos = (576,700);
}
);
guides = (
{
angle = 90;
pos = (576,752);
}
);
layerId = m001;
shapes = (
{
closed = 1;
nodes = (
(606,-10,o),
(757,149,o),
(757,351,cs),
(757,553,o),
(606,712,o),
(395,712,cs),
(184,712,o),
(18,553,o),
(18,351,cs),
(18,149,o),
(184,-10,o),
(395,-10,cs)
);
},
{
closed = 1;
nodes = (
(247,92,o),
(130,206,o),
(130,351,cs),
(130,496,o),
(247,610,o),
(395,610,cs),
(543,610,o),
(645,496,o),
(645,351,cs),
(645,206,o),
(543,92,o),
(395,92,cs)
);
},
{
closed = 1;
nodes = (
(1066,0,l),
(1066,100,l),
(756,100,l),
(756,325,l),
(969,325,l),
(969,425,l),
(756,425,l),
(756,600,l),
(1046,600,l),
(1046,700,l),
(646,700,l),
(646,0,l)
);
}
);
width = 1090;
}
);
metricLeft = O;
metricRight = E;
unicode = 338;
},
{
color = 4;
glyphname = P;
kernLeft = H;
kernRight = P;
lastChange = "2026-06-26 09:01:22 +0000";
layers = (
{
layerId = m001;
shapes = (
{
closed = 1;
nodes = (
(160,0,l),
(160,268,l),
(259,268,ls),
(393,268,o),
(499,363,o),
(499,484,cs),
(499,605,o),
(393,700,o),
(258,700,cs),
(50,700,l),
(50,0,l)
);
},
{
closed = 1;
nodes = (
(160,600,l),
(259,600,ls),
(334,600,o),
(387,552,o),
(387,484,cs),
(387,416,o),
(334,368,o),
(259,368,cs),
(160,368,l)
);
}
);
width = 519;
}
);
metricLeft = H;
unicode = 80;
userData = {
KernOnName = P;
};
},
{
color = 4;
glyphname = Thorn;
kernLeft = H;
kernRight = P;
lastChange = "2026-06-29 07:14:39 +0000";
layers = (
{
layerId = m001;
shapes = (
{
closed = 1;
nodes = (
(160,0,l),
(160,208,l),
(259,208,ls),
(393,208,o),
(499,288,o),
(499,409,cs),
(499,530,o),
(393,610,o),
(258,610,cs),
(160,610,l),
(160,700,l),
(50,700,l),
(50,0,l)
);
},
{
closed = 1;
nodes = (
(160,510,l),
(259,510,ls),
(334,510,o),
(387,477,o),
(387,409,cs),
(387,341,o),
(334,308,o),
(259,308,cs),
(160,308,l)
);
}
);
width = 519;
}
);
metricLeft = H;
metricRight = P;
unicode = 222;
},
{
color = 4;
glyphname = Q;
kernLeft = O;
kernRight = O;
lastChange = "2026-06-26 08:24:29 +0000";
layers = (
{
layerId = m001;
shapes = (
{
closed = 1;
nodes = (
(768,59,l),
(542,256,l),
(477,182,l),
(702,-15,l)
);
},
{
ref = O;
}
);
width = 790;
}
);
metricLeft = O;
unicode = 81;
},
{
color = 4;
glyphname = R;
kernLeft = H;
kernRight = R;
lastChange = "2026-06-26 09:09:58 +0000";
layers = (
{
anchors = (
{
name = bottom;
pos = (299,0);
},
{
name = top;
pos = (222,700);
}
);
guides = (
{
angle = 90;
pos = (465,499);
}
);
layerId = m001;
shapes = (
{
closed = 1;
nodes = (
(160,0,l),
(160,295,l),
(259,295,ls),
(370,295,o),
(465,385,o),
(465,499,cs),
(465,612,o),
(365,700,o),
(248,700,cs),
(50,700,l),
(50,0,l)
);
},
{
closed = 1;
nodes = (
(569,0,l),
(339,335,l),
(233,308,l),
(447,0,l)
);
},
{
closed = 1;
nodes = (
(160,600,l),
(236,600,ls),
(302,600,o),
(353,555,o),
(353,498,cs),
(353,443,o),
(315,397,o),
(267,397,cs),
(160,397,l)
);
}
);
width = 589;
}
);
metricLeft = H;
unicode = 82;
userData = {
KernOnName = R;
};
},
{
color = 4;
glyphname = S;
kernLeft = S;
kernRight = S;
lastChange = "2026-06-29 07:26:09 +0000";
layers = (
{
anchors = (
{
name = bottom;
pos = (226,0);
},
{
name = top;
pos = (228,700);
}
);
guides = (
{
pos = (81,529);
},
{
angle = 90.548;
pos = (229,92);
}
);
layerId = m001;
shapes = (
{
closed = 1;
nodes = (
(351,-10,o),
(450,73,o),
(450,201,cs),
(450,329,o),
(372,370,o),
(265,425,cs),
(184,467,o),
(141,489,o),
(141,542,cs),
(141,585,o),
(177,610,o),
(219,610,cs),
(272,610,o),
(299,581,o),
(318,543,c),
(404,607,l),
(372,668,o),
(312,712,o),
(223,712,cs),
(115,712,o),
(24,643,o),
(24,537,cs),
(24,433,o),
(96,383,o),
(186,342,cs),
(282,298,o),
(338,267,o),
(338,190,cs),
(338,127,o),
(297,92,o),
(229,92,cs),
(167,92,o),
(124,131,o),
(103,190,c),
(10,131,l),
(46,47,o),
(124,-10,o),
(229,-10,cs)
);
}
);
width = 460;
}
);
unicode = 83;
},
{
color = 8;
glyphname = Germandbls;
kernLeft = H;
kernRight = Germandbls;
lastChange = "2026-06-29 07:33:30 +0000";
layers = (
{
anchors = (
{
name = bottom;
pos = (205,0);
},
{
name = center;
pos = (205,350);
},
{
name = top;
pos = (205,700);
}
);
guides = (
{
pos = (442,700);
},
{
angle = 90;
pos = (442,716);
},
{
angle = 180;
pos = (267,600);
}
);
layerId = m001;
shapes = (
{
closed = 1;
nodes = (
(160,0,l),
(160,600,l),
(373,600,l),
(442,700,l),
(50,700,l),
(50,0,l)
);
},
{
closed = 1;
nodes = (
(578,-10,o),
(677,73,o),
(677,201,cs),
(677,329,o),
(599,370,o),
(492,425,cs),
(411,467,o),
(368,489,o),
(368,542,cs),
(368,585,o),
(406,600,o),
(442,600,c),
(442,700,l),
(340,700,o),
(251,643,o),
(251,537,cs),
(251,433,o),
(323,383,o),
(413,342,cs),
(509,298,o),
(565,267,o),
(565,190,cs),
(565,127,o),
(524,92,o),
(456,92,cs),
(394,92,o),
(351,131,o),
(330,190,c),
(237,131,l),
(273,47,o),
(351,-10,o),
(456,-10,cs)
);
}
);
width = 687;
}
);
metricLeft = H;
metricRight = S;
unicode = 7838;
},
{
color = 4;
glyphname = T;
kernLeft = T;
kernRight = T;
lastChange = "2026-06-29 07:28:38 +0000";
layers = (
{
anchors = (
{
name = bottom;
pos = (288,0);
},
{
name = center;
pos = (288,350);
},
{
name = top;
pos = (288,700);
}
);
layerId = m001;
shapes = (
{
closed = 1;
nodes = (
(343,0,l),
(343,600,l),
(556,600,l),
(556,700,l),
(20,700,l),
(20,600,l),
(233,600,l),
(233,0,l)
);
}
);
width = 576;
}
);
unicode = 84;
userData = {
KernOnName = T;
};
},
{
color = 4;
glyphname = U;
kernLeft = U;
kernRight = U;
lastChange = "2026-06-29 08:05:11 +0000";
layers = (
{
anchors = (
{
name = bottom;
pos = (353,0);
},
{
name = ogonek;
pos = (494,24);
},
{
name = top;
pos = (353,700);
},
{
name = topright;
pos = (656,700);
}
);
guides = (
{
pos = (333,287);
}
);
layerId = m001;
shapes = (
{
closed = 1;
nodes = (
(523,-10,o),
(656,121,o),
(656,287,c),
(656,700,l),
(546,700,l),
(546,287,ls),
(546,177,o),
(461,92,o),
(353,92,cs),
(245,92,o),
(160,177,o),
(160,287,cs),
(160,700,l),
(50,700,l),
(50,287,ls),
(50,121,o),
(183,-10,o),
(353,-10,cs)
);
}
);
width = 706;
}
);
metricLeft = H;
metricRight = H;
unicode = 85;
userData = {
KernOnName = U;
};
},
{
color = 4;
glyphname = V;
kernLeft = V;
kernRight = V;
lastChange = "2026-06-29 07:30:12 +0000";
layers = (
{
anchors = (
{
name = bottom;
pos = (333,0);
},
{
name = top;
pos = (333,700);
}
);
layerId = m001;
shapes = (
{
closed = 1;
nodes = (
(371,0,l),
(654,700,l),
(546,700,l),
(337,168,l),
(122,700,l),
(12,700,l),
(295,0,l)
);
}
);
width = 666;
}
);
unicode = 86;
userData = {
KernOnName = V;
};
},
{
color = 4;
glyphname = W;
kernLeft = V;
kernRight = V;
lastChange = "2026-06-29 07:29:54 +0000";
layers = (
{
anchors = (
{
name = bottom;
pos = (498,0);
},
{
name = top;
pos = (499,700);
}
);
layerId = m001;
shapes = (
{
closed = 1;
nodes = (
(343,0,l),
(498,508,l),
(653,0,l),
(753,0,l),
(984,700,l),
(879,700,l),
(707,166,l),
(553,678,l),
(448,678,l),
(295,166,l),
(121,700,l),
(12,700,l),
(243,0,l)
);
}
);
width = 996;
}
);
metricLeft = V;
metricRight = V;
unicode = 87;
userData = {
KernOnName = W;
};
},
{
color = 4;
glyphname = X;
kernLeft = X;
kernRight = X;
lastChange = "2026-06-26 08:24:29 +0000";
layers = (
{
anchors = (
{
name = bottom;
pos = (358,0);
},
{
name = top;
pos = (358,700);
}
);
layerId = m001;
shapes = (
{
closed = 1;
nodes = (
(705,0,l),
(170,700,l),
(44,700,l),
(576,0,l)
);
},
{
closed = 1;
nodes = (
(139,0,l),
(368,300,l),
(304,384,l),
(12,0,l)
);
},
{
closed = 1;
nodes = (
(671,700,l),
(545,700,l),
(347,441,l),
(411,357,l)
);
}
);
width = 715;
}
);
unicode = 88;
},
{
color = 4;
glyphname = Y;
kernLeft = Y;
kernRight = Y;
lastChange = "2026-06-26 09:03:41 +0000";
layers = (
{
anchors = (
{
name = bottom;
pos = (298,0);
},
{
name = top;
pos = (299,700);
},
{
name = topleft;
pos = (10,700);
}
);
guides = (
{
pos = (299,329);
},
{
angle = 90;
pos = (299,0);
}
);
layerId = m001;
shapes = (
{
closed = 1;
nodes = (
(354,0,l),
(354,316,l),
(588,700,l),
(475,700,l),
(299,406,l),
(123,700,l),
(7,700,l),
(244,317,l),
(244,0,l)
);
}
);
width = 595;
}
);
unicode = 89;
userData = {
KernOnName = Y;
};
},
{
color = 4;
glyphname = Z;
kernLeft = Z;
kernRight = Z;
lastChange = "2026-06-29 07:28:20 +0000";
layers = (
{
anchors = (
{
name = bottom;
pos = (339,0);
},
{
name = center;
pos = (348,350);
},
{
name = top;
pos = (354,700);
}
);
guides = (
{
angle = 180;
pos = (436,101);
},
{
angle = 270;
pos = (53,650);
},
{
angle = 90;
pos = (645,51);
}
);
layerId = m001;
shapes = (
{
closed = 1;
nodes = (
(645,0,l),
(645,100,l),
(227,100,l),
(655,700,l),
(53,700,l),
(53,600,l),
(462,600,l),
(33,0,l)
);
}
);
width = 670;
}
);
unicode = 90;
userData = {
KernOnName = Z;
};
},
{
color = 4;
glyphname = G.ss01;
kernLeft = O;
kernRight = C;
lastChange = "2026-06-29 07:38:02 +0000";
layers = (
{
layerId = m001;
shapes = (
{
closed = 1;
nodes = (
(487,-10,o),
(584,18,o),
(665,68,c),
(665,332,l),
(555,332,l),
(555,82,l),
(591,140,l),
(530,106,o),
(458,92,o),
(383,92,cs),
(234,92,o),
(130,211,o),
(130,365,cs),
(130,501,o),
(238,610,o),
(386,610,cs),
(494,610,o),
(592,574,o),
(653,515,c),
(653,640,l),
(578,684,o),
(483,712,o),
(390,712,cs),
(164,712,o),
(18,542,o),
(18,365,cs),
(18,156,o),
(183,-10,o),
(383,-10,cs)
);
}
);
width = 720;
}
);
},
{
color = 4;
glyphname = H.ss01;
kernLeft = H;
kernRight = H;
lastChange = "2026-06-29 14:34:22 +0000";
layers = (
{
anchors = (
{
name = bottom;
pos = (339,0);
},
{
name = center;
pos = (339,560);
},
{
name = top;
pos = (339,700);
},
{
name = topleft;
pos = (50,700);
}
);
layerId = m001;
shapes = (
{
closed = 1;
nodes = (
(160,0,l),
(160,311,l),
(557,311,l),
(557,0,l),
(667,0,l),
(667,700,l),
(557,700,l),
(557,411,l),
(160,411,l),
(160,700,l),
(50,700,l),
(50,0,l)
);
}
);
width = 717;
}
);
userData = {
KernOnName = H;
};
},
{
color = 4;
glyphname = K.ss01;
kernLeft = H;
kernRight = K;
lastChange = "2026-06-29 07:38:15 +0000";
layers = (
{
layerId = m001;
shapes = (
{
closed = 1;
nodes = (
(476,0,l),
(620,0,l),
(296,382,l),
(620,700,l),
(474,700,l),
(149,381,l)
);
},
{
closed = 1;
nodes = (
(160,700,l),
(50,700,l),
(50,0,l),
(160,0,l)
);
}
);
width = 632;
}
);
metricLeft = H;
metricRight = K;
},
{
color = 8;
glyphname = W.ss01;
kernLeft = V;
kernRight = V;
lastChange = "2026-06-29 13:52:55 +0000";
layers = (
{
layerId = m001;
shapes = (
{
closed = 1;
nodes = (
(393,0,l),
(495,252,l),
(597,0,l),
(691,0,l),
(974,700,l),
(867,700,l),
(644,151,l),
(549,385,l),
(676,700,l),
(569,700,l),
(495,518,l),
(421,700,l),
(314,700,l),
(441,385,l),
(346,151,l),
(123,700,l),
(16,700,l),
(299,0,l)
);
}
);
width = 985;
}
);
},
{
color = 8;
glyphname = X.ss01;
kernLeft = X;
kernRight = X;
lastChange = "2026-06-29 07:36:33 +0000";
layers = (
{
layerId = m001;
shapes = (
{
closed = 1;
nodes = (
(132,0,l),
(282,255,l),
(431,0,l),
(546,0,l),
(339,353,l),
(543,700,l),
(428,700,l),
(282,451,l),
(135,700,l),
(20,700,l),
(224,353,l),
(17,0,l)
);
}
);
width = 563;
}
);
},
{
color = 8;
glyphname = W.ss02;
kernLeft = V;
kernRight = V;
lastChange = "2026-06-29 07:36:36 +0000";
layers = (
{
layerId = m001;
shapes = (
{
closed = 1;
nodes = (
(676,0,l),
(644,82,l),
(882,700,l),
(775,700,l),
(594,230,l),
(415,700,l),
(308,700,l),
(392,474,l),
(298,231,l),
(119,700,l),
(12,700,l),
(273,0,l),
(381,0,l),
(348,83,l),
(444,333,l),
(568,0,l)
);
}
);
width = 893;
}
);
},
{
color = 8;
glyphname = W.ss03;
kernLeft = V;
kernRight = V;
lastChange = "2026-06-29 13:59:19 +0000";
layers = (
{
anchors = (
{
name = bottom;
pos = (458,0);
},
{
name = top;
pos = (459,700);
}
);
background = {
shapes = (
{
closed = 1;
nodes = (
(652,0,l),
(620,82,l),
(858,700,l),
(751,700,l),
(570,230,l),
(391,700,l),
(284,700,l),
(368,474,l),
(274,231,l),
(95,700,l),
(-12,700,l),
(249,0,l),
(357,0,l),
(324,83,l),
(420,333,l),
(544,0,l)
);
}
);
};
backgroundImage = {
imagePath = "../../../../Pictures/Screenshots/Screenshot 2026-06-29 at 18.50.07.png";
locked = 1;
pos = (-20,-109);
scale = (3,3);
};
layerId = m001;
shapes = (
{
closed = 1;
nodes = (
(343,0,l),
(463,400,l),
(448,400,l),
(563,0,l),
(663,0,l),
(864,700,l),
(759,700,l),
(617,166,l),
(500,548,l),
(410,548,l),
(295,166,l),
(121,700,l),
(12,700,l),
(243,0,l)
);
}
);
width = 876;
}
);
metricLeft = V;
metricRight = V;
},
{
color = 8;
glyphname = W.ss04;
kernLeft = V;
kernRight = V;
lastChange = "2026-06-29 14:10:42 +0000";
layers = (
{
anchors = (
{
name = bottom;
pos = (458,0);
},
{
name = top;
pos = (459,700);
}
);
background = {
shapes = (
{
closed = 1;
nodes = (
(676,0,l),
(644,82,l),
(882,700,l),
(775,700,l),
(594,230,l),
(415,700,l),
(308,700,l),
(392,474,l),
(298,231,l),
(119,700,l),
(12,700,l),
(273,0,l),
(381,0,l),
(348,83,l),
(444,333,l),
(568,0,l)
);
}
);
};
guides = (
{
pos = (663,3167);
}
);
layerId = m001;
shapes = (
{
closed = 1;
nodes = (
(561,0,l),
(663,0,l),
(864,700,l),
(759,700,l),
(617,166,l),
(435,700,l),
(327,700,l)
);
},
{
closed = 1;
nodes = (
(415,563,l),
(295,166,l),
(121,700,l),
(12,700,l),
(243,0,l),
(343,0,l),
(468,415,l)
);
}
);
width = 876;
}
);
metricLeft = V;
metricRight = V;
},
{
color = 4;
glyphname = Q_U;
kernLeft = O;
kernRight = U;
lastChange = "2026-06-29 13:47:31 +0000";
layers = (
{
layerId = m001;
shapes = (
{
closed = 1;
nodes = (
(847,-10,l),
(542,256,l),
(477,182,l),
(696,-10,l)
);
},
{
closed = 1;
nodes = (
(606,-10,o),
(772,149,o),
(772,351,cs),
(772,553,o),
(606,712,o),
(395,712,cs),
(184,712,o),
(18,553,o),
(18,351,cs),
(18,149,o),
(184,-10,o),
(395,-10,cs)
);
},
{
closed = 1;
nodes = (
(247,92,o),
(130,206,o),
(130,351,cs),
(130,496,o),
(247,610,o),
(395,610,cs),
(543,610,o),
(660,496,o),
(660,351,cs),
(660,206,o),
(543,92,o),
(395,92,cs)
);
},
{
closed = 1;
nodes = (
(1313,-10,o),
(1446,121,o),
(1446,287,c),
(1446,700,l),
(1336,700,l),
(1336,287,ls),
(1336,177,o),
(1251,92,o),
(1143,92,cs),
(1035,92,o),
(950,177,o),
(950,287,cs),
(950,700,l),
(840,700,l),
(840,287,ls),
(840,121,o),
(973,-10,o),
(1143,-10,cs)
);
}
);
width = 1496;
}
);
metricLeft = O;
metricRight = U;
},
{
color = 4;
glyphname = a;
kernLeft = a;
kernRight = n;
lastChange = "2026-06-29 08:07:26 +0000";
layers = (
{
anchors = (
{
name = bottom;
pos = (229,0);
},
{
name = ogonek;
pos = (417,0);
},
{
name = top;
pos = (229,475);
}
);
layerId = m001;
shapes = (
{
closed = 1;
nodes = (
(245,-10,o),
(284,3,o),
(317,25,c),
(317,0,l),
(417,0,l),
(417,300,ls),
(417,450,o),
(319,485,o),
(231,485,cs),
(175,485,o),
(126,470,o),
(85,444,c),
(48,320,l),
(58,320,l),
(114,371,o),
(162,389,o),
(217,389,cs),
(297,389,o),
(317,348,o),
(317,290,c),
(178,290,o),
(38,253,o),
(38,124,cs),
(38,39,o),
(103,-10,o),
(198,-10,cs)
);
},
{
closed = 1;
nodes = (
(162,71,o),
(133,90,o),
(133,128,cs),
(133,174,o),
(178,216,o),
(317,213,c),
(317,110,l),
(290,89,o),
(249,71,o),
(207,71,cs)
);
}
);
width = 458;
}
);
unicode = 97;
userData = {
KernOnName = a;
};
},
{
color = 4;
glyphname = ae;
kernLeft = a;
kernRight = e;
lastChange = "2026-06-24 07:26:49 +0000";
layers = (
{
anchors = (
{
name = bottom;
pos = (350,0);
},
{
name = top;
pos = (359,475);
}
);
layerId = m001;
shapes = (
{
closed = 1;
nodes = (
(595,-10,o),
(656,12,o),
(705,46,c),
(705,150,l),
(670,117,o),
(608,85,o),
(547,85,cs),
(464,85,o),
(395,130,o),
(383,212,c),
(732,212,l),
(751,414,o),
(626,485,o),
(517,485,cs),
(430,485,o),
(359,438,o),
(320,367,c),
(309,136,l),
(346,49,o),
(428,-10,o),
(532,-10,cs)
);
},
{
closed = 1;
nodes = (
(265,-10,o),
(313,15,o),
(361,79,c),
(311,124,l),
(277,85,o),
(236,71,o),
(197,71,cs),
(155,71,o),
(127,90,o),
(127,128,cs),
(127,174,o),
(170,216,o),
(301,213,c),
(301,77,l),
(371,167,l),
(381,388,l),
(352,465,o),
(283,485,o),
(220,485,cs),
(167,485,o),
(121,470,o),
(82,444,c),
(47,320,l),
(57,320,l),
(110,371,o),
(155,389,o),
(207,389,cs),
(282,389,o),
(301,348,o),
(301,290,c),
(170,290,o),
(38,253,o),
(38,124,cs),
(38,39,o),
(99,-10,o),
(189,-10,cs)
);
},
{
closed = 1;
nodes = (
(396,341,o),
(442,390,o),
(514,390,cs),
(588,390,o),
(634,342,o),
(641,281,c),
(670,294,l),
(350,294,l),
(383,281,l)
);
}
);
width = 759;
}
);
metricLeft = a;
metricRight = e;
unicode = 230;
},
{
color = 4;
glyphname = b;
kernLeft = H;
kernRight = o;
lastChange = "2026-06-26 08:24:29 +0000";
layers = (
{
layerId = m001;
shapes = (
{
closed = 1;
nodes = (
(417,-10,o),
(524,99,o),
(524,242,cs),
(524,376,o),
(417,485,o),
(278,485,cs),
(232,485,o),
(190,473,o),
(151,449,c),
(151,700,l),
(51,700,l),
(51,0,l),
(151,0,l),
(151,26,l),
(189,3,o),
(233,-10,o),
(279,-10,cs)
);
},
{
closed = 1;
nodes = (
(229,85,o),
(180,104,o),
(151,137,c),
(151,344,l),
(181,372,o),
(228,390,o),
(274,390,cs),
(361,390,o),
(424,323,o),
(424,241,cs),
(424,152,o),
(361,85,o),
(274,85,cs)
);
}
);
width = 555;
}
);
metricLeft = h;
metricRight = o;
unicode = 98;
},
{
color = 4;
glyphname = c;
kernLeft = o;
kernRight = c;
lastChange = "2026-06-29 08:07:32 +0000";
layers = (
{
anchors = (
{
name = bottom;
pos = (282,0);
},
{
name = top;
pos = (279,475);
}
);
layerId = m001;
shapes = (
{
closed = 1;
nodes = (
(332,-10,o),
(388,5,o),
(435,32,c),
(435,152,l),
(401,115,o),
(342,85,o),
(283,85,cs),
(194,85,o),
(131,152,o),
(131,236,cs),
(131,323,o),
(194,390,o),
(282,390,cs),
(343,390,o),
(402,358,o),
(435,323,c),
(435,443,l),
(391,468,o),
(337,485,o),
(281,485,cs),
(138,485,o),
(31,376,o),
(31,237,cs),
(31,99,o),
(138,-10,o),
(279,-10,cs)
);
}
);
width = 460;
}
);
metricLeft = o;
unicode = 99;
},
{
color = 4;
glyphname = d;
kernLeft = o;
kernRight = d;
lastChange = "2026-06-29 08:07:15 +0000";
layers = (
{
anchors = (
{
name = bottom;
pos = (278,0);
},
{
name = center;
pos = (386,587);
},
{
name = top;
pos = (278,475);
},
{
name = topright;
pos = (584,700);
}
);
layerId = m001;
shapes = (
{
closed = 1;
nodes = (
(322,-10,o),
(366,3,o),
(404,26,c),
(404,0,l),
(504,0,l),
(504,700,l),
(404,700,l),
(404,449,l),
(365,473,o),
(323,485,o),
(277,485,cs),
(138,485,o),
(31,376,o),
(31,242,cs),
(31,99,o),
(138,-10,o),
(276,-10,cs)
);
},
{
closed = 1;
nodes = (
(194,85,o),
(131,152,o),
(131,241,cs),
(131,323,o),
(194,390,o),
(281,390,cs),
(327,390,o),
(374,372,o),
(404,344,c),
(404,137,l),
(375,104,o),
(326,85,o),
(281,85,cs)
);
}
);
width = 555;
}
);
metricLeft = o;
metricRight = "=|h";
unicode = 100;
userData = {
KernOnName = d;
};
},
{
color = 4;
glyphname = eth;
kernLeft = o;
kernRight = o;
lastChange = "2026-06-29 07:35:17 +0000";
layers = (
{
layerId = m001;
shapes = (
{
closed = 1;
nodes = (
(382,-9,o),
(481,82,o),
(481,219,cs),
(481,288,o),
(402,439,o),
(240,439,cs),
(132,439,o),
(31,347,o),
(31,219,cs),
(31,91,o),
(130,-9,o),
(256,-9,cs)
);
},
{
closed = 1;
nodes = (
(182,79,o),
(123,140,o),
(123,219,cs),
(123,298,o),
(182,353,o),
(256,353,cs),
(330,353,o),
(389,298,o),
(389,219,cs),
(389,140,o),
(330,79,o),
(256,79,cs)
);
},
{
closed = 1;
nodes = (
(378,593,o),
(175,670,c),
(116,615,l),
(294,553,o),
(412,448,o),
(412,162,c),
(481,219,l),
(481,475,o)
);
},
{
closed = 1;
nodes = (
(156,477,l),
(408,617,l),
(375,676,l),
(123,536,l)
);
}
);
width = 512;
}
);
metricLeft = o;
metricRight = o;
unicode = 240;
},
{
color = 4;
glyphname = e;
kernLeft = o;
kernRight = e;
lastChange = "2026-06-29 08:03:13 +0000";
layers = (
{
anchors = (
{
name = bottom;
pos = (269,0);
},
{
name = ogonek;
pos = (415,16);
},
{
name = top;
pos = (278,475);
}
);
layerId = m001;
shapes = (
{
closed = 1;
nodes = (
(362,-10,o),
(428,12,o),
(481,46,c),
(481,150,l),
(443,117,o),
(376,85,o),
(310,85,cs),
(220,85,o),
(146,130,o),
(133,212,c),
(511,212,l),
(531,414,o),
(396,485,o),
(278,485,cs),
(134,485,o),
(31,376,o),
(31,240,cs),
(31,99,o),
(141,-10,o),
(294,-10,cs)
);
},
{
closed = 1;
nodes = (
(147,341,o),
(197,390,o),
(274,390,cs),
(355,390,o),
(404,342,o),
(412,281,c),
(443,294,l),
(97,294,l),
(132,281,l)
);
}
);
width = 538;
}
);
unicode = 101;
},
{
color = 4;
glyphname = f;
kernLeft = f;
kernRight = f;
lastChange = "2026-06-29 08:07:38 +0000";
layers = (
{
guides = (
{
angle = 90;
pos = (350,653);
}
);
layerId = m001;
shapes = (
{
closed = 1;
nodes = (
(188,0,l),
(188,385,l),
(350,385,l),
(350,475,l),
(188,475,l),
(188,525,ls),
(188,586,o),
(220,615,o),
(267,615,cs),
(291,615,o),
(313,611,o),
(350,592,c),
(350,690,l),
(321,702,o),
(289,710,o),
(253,710,cs),
(149,710,o),
(88,642,o),
(88,540,cs),
(88,474,l),
(8,474,l),
(8,386,l),
(88,386,l),
(88,0,l)
);
}
);
width = 363;
}
);
unicode = 102;
userData = {
KernOnName = f;
};
},
{
color = 4;
glyphname = g;
kernLeft = g;
kernRight = g;
lastChange = "2026-06-29 08:08:55 +0000";
layers = (
{
anchors = (
{
name = bottom;
pos = (243,-225);
},
{
name = top;
pos = (243,475);
}
);
guides = (
{
angle = 180;
pos = (243,308);
},
{
angle = 90;
pos = (243,308);
},
{
angle = 166.251;
pos = (297,64);
},
{
angle = 166.2509;
pos = (297,-21);
},
{
angle = 180;
pos = (478,-86);
}
);
layerId = m001;
shapes = (
{
closed = 1;
nodes = (
(389,-235,o),
(478,-183,o),
(478,-86,cs),
(478,-12,o),
(442,31,o),
(353,53,cs),
(250,78,ls),
(202,90,o),
(172,97,o),
(172,120,cs),
(172,134,o),
(183,144,o),
(213,157,c),
(127,184,l),
(99,166,o),
(72,144,o),
(72,102,cs),
(72,55,o),
(108,21,o),
(159,8,cs),
(300,-27,ls),
(355,-41,o),
(378,-61,o),
(378,-84,cs),
(378,-125,o),
(307,-140,o),
(243,-140,cs),
(179,-140,o),
(111,-124,o),
(111,-79,cs),
(111,-43,o),
(154,-12,o),
(239,7,c),
(151,45,l),
(72,18,o),
(10,-19,o),
(10,-91,cs),
(10,-194,o),
(117,-235,o),
(243,-235,cs)
);
},
{
closed = 1;
nodes = (
(350,130,o),
(431,206,o),
(431,308,cs),
(431,409,o),
(350,485,o),
(243,485,cs),
(136,485,o),
(55,409,o),
(55,308,cs),
(55,206,o),
(136,130,o),
(243,130,cs)
);
},
{
closed = 1;
nodes = (
(190,218,o),
(150,257,o),
(150,308,cs),
(150,359,o),
(190,397,o),
(243,397,cs),
(296,397,o),
(336,359,o),
(336,308,cs),
(336,257,o),
(296,218,o),
(243,218,cs)
);
},
{
closed = 1;
nodes = (
(472,395,l),
(472,475,l),
(283,475,l),
(329,395,l)
);
}
);
width = 488;
}
);
unicode = 103;
userData = {
KernOnName = g;
};
},
{
color = 4;
glyphname = h;
kernLeft = H;
kernRight = n;
lastChange = "2026-06-26 09:01:00 +0000";
layers = (
{
anchors = (
{
name = bottom;
pos = (267,0);
},
{
name = center;
pos = (169,595);
},
{
name = top;
pos = (101,654);
}
);
layerId = m001;
shapes = (
{
closed = 1;
nodes = (
(151,0,l),
(151,346,l),
(172,371,o),
(210,390,o),
(265,390,cs),
(341,390,o),
(383,345,o),
(383,269,cs),
(383,0,l),
(483,0,l),
(483,274,ls),
(483,406,o),
(408,485,o),
(287,485,cs),
(231,485,o),
(185,470,o),
(151,445,c),
(151,700,l),
(51,700,l),
(51,0,l)
);
}
);
width = 523;
}
);
unicode = 104;
userData = {
KernOnName = h;
};
},
{
color = 4;
glyphname = idotless;
kernLeft = idotless;
kernRight = idotless;
lastChange = "2026-06-26 08:24:29 +0000";
layers = (
{
anchors = (
{
name = bottom;
pos = (110,0);
},
{
name = ogonek;
pos = (160,0);
},
{
name = top;
pos = (110,475);
}
);
layerId = m001;
shapes = (
{
closed = 1;
nodes = (
(160,0,l),
(160,158,o),
(160,317,o),
(160,475,c),
(60,475,l),
(60,0,l)
);
}
);
width = 220;
}
);
unicode = 305;
},
{
color = 4;
glyphname = jdotless;
kernLeft = jdotless;
kernRight = jdotless;
lastChange = "2026-06-29 07:25:21 +0000";
layers = (
{
anchors = (
{
name = bottom;
pos = (111,-225);
},
{
name = top;
pos = (111,475);
}
);
layerId = m001;
shapes = (
{
closed = 1;
nodes = (
(115,-235,o),
(161,-155,o),
(161,0,c),
(161,475,l),
(61,475,l),
(61,0,ls),
(61,-95,o),
(34,-134,o),
(-19,-134,cs),
(-25,-134,o),
(-31,-134,o),
(-37,-133,c),
(-37,-232,l),
(-23,-234,o),
(-10,-235,o),
(2,-235,cs)
);
}
);
userData = {
com.fontlab.hintData = {
hhints = (
{
position = -243;
width = 100;
},
{
position = 454;
width = 20;
}
);
vhints = (
{
position = 51;
width = 99;
}
);
};
};
width = 212;
}
);
metricRight = u;
unicode = 567;
},
{
color = 4;
glyphname = k;
kernLeft = H;
kernRight = k;
lastChange = "2026-06-26 09:01:00 +0000";
layers = (
{
anchors = (
{
name = bottom;
pos = (254,0);
},
{
name = top;
pos = (254,700);
}
);
layerId = m001;
shapes = (
{
closed = 1;
nodes = (
(151,0,l),
(151,226,l),
(365,0,l),
(503,0,l),
(243,269,l),
(480,475,l),
(338,475,l),
(151,307,l),
(151,700,l),
(51,700,l),
(51,0,l)
);
}
);
width = 508;
}
);
unicode = 107;
userData = {
KernOnName = k;
};
},
{
color = 4;
glyphname = l;
kernLeft = H;
kernRight = l;
lastChange = "2026-06-29 20:07:12 +0000";
layers = (
{
anchors = (
{
name = bottom;
pos = (168,0);
},
{
name = center;
pos = (257,357);
},
{
name = top;
pos = (101,700);
},
{
name = topright;
pos = (252,700);
}
);
backgroundImage = {
imagePath = "Images/l-Regular.tif";
locked = 1;
pos = (8,-53);
scale = (2.1,2.1);
};
layerId = m001;
shapes = (
{
closed = 1;
nodes = (
(259,-10,o),
(288,-2,o),
(323,14,c),
(323,111,l),
(293,94,o),
(264,86,o),
(236,86,cs),
(181,86,o),
(151,119,o),
(151,175,cs),
(151,700,l),
(51,700,l),
(51,148,ls),
(51,56,o),
(124,-10,o),
(224,-10,cs)
);
}
);
width = 335;
}
);
metricLeft = h;
unicode = 108;
userData = {
KernOnName = l;
};
},
{
color = 4;
glyphname = lslash;
kernLeft = hbar;
kernRight = l;
lastChange = "2026-06-26 08:24:29 +0000";
layers = (
{
layerId = m001;
shapes = (
{
closed = 1;
nodes = (
(250.667,-11,o),
(294.333,2.667,o),
(325,24,c),
(325,125,l),
(294.333,102.333,o),
(250.667,89,o),
(216,89,cs),
(176,89,o),
(146,126,o),
(146,178,cs),
(146,698,l),
(46,698,l),
(46,148,ls),
(46,57.229,o),
(120.441,-11,o),
(216,-11,cs)
);
}
);
width = 325;
}
);
unicode = 322;
},
{
color = 4;
glyphname = m;
kernLeft = n;
kernRight = n;
lastChange = "2026-06-29 08:07:53 +0000";
layers = (
{
anchors = (
{
name = bottom;
pos = (418,0);
},
{
name = top;
pos = (418,475);
}
);
layerId = m001;
shapes = (
{
closed = 1;
nodes = (
(795,0,l),
(795,274,ls),
(795,403,o),
(732,485,o),
(609,485,cs),
(544,485,o),
(487,470,o),
(431,413,c),
(466,324,l),
(496,370,o),
(536,390,o),
(587,390,cs),
(657,390,o),
(695,357,o),
(695,269,cs),
(695,0,l)
);
},
{
closed = 1;
nodes = (
(151,0,l),
(151,475,l),
(51,475,l),
(51,0,l)
);
},
{
closed = 1;
nodes = (
(473,0,l),
(473,274,ls),
(473,406,o),
(402,485,o),
(287,485,cs),
(231,485,o),
(185,470,o),
(151,445,c),
(151,346,l),
(172,371,o),
(210,390,o),
(265,390,cs),
(335,390,o),
(373,345,o),
(373,269,cs),
(373,0,l)
);
}
);
width = 835;
}
);
metricLeft = n;
metricRight = n;
unicode = 109;
userData = {
KernOnName = m;
};
},
{
color = 4;
glyphname = n;
kernLeft = n;
kernRight = n;
lastChange = "2026-06-26 09:01:00 +0000";
layers = (
{
anchors = (
{
name = bottom;
pos = (267,0);
},
{
name = top;
pos = (287,475);
}
);
layerId = m001;
shapes = (
{
closed = 1;
nodes = (
(151,0,l),
(151,346,l),
(172,371,o),
(210,390,o),
(265,390,cs),
(341,390,o),
(383,345,o),
(383,269,cs),
(383,0,l),
(483,0,l),
(483,274,ls),
(483,406,o),
(408,485,o),
(287,485,cs),
(231,485,o),
(185,470,o),
(151,445,c),
(151,475,l),
(51,475,l),
(51,0,l)
);
}
);
width = 523;
}
);
unicode = 110;
userData = {
KernOnName = n;
};
},
{
color = 4;
glyphname = eng;
kernLeft = n;
kernRight = n;
lastChange = "2026-06-24 07:28:04 +0000";
layers = (
{
anchors = (
{
name = bottom;
pos = (267,0);
},
{
name = top;
pos = (287,475);
}
);
layerId = m001;
shapes = (
{
closed = 1;
nodes = (
(437,-235,o),
(483,-155,o),
(483,0,cs),
(483,274,ls),
(483,406,o),
(408,485,o),
(287,485,cs),
(231,485,o),
(185,470,o),
(151,445,c),
(151,475,l),
(51,475,l),
(51,0,l),
(151,0,l),
(151,346,l),
(172,371,o),
(210,390,o),
(265,390,cs),
(341,390,o),
(383,345,o),
(383,269,cs),
(383,0,ls),
(383,-95,o),
(356,-134,o),
(303,-134,cs),
(297,-134,o),
(291,-134,o),
(285,-133,c),
(285,-232,l),
(299,-234,o),
(312,-235,o),
(324,-235,cs)
);
}
);
width = 523;
}
);
metricLeft = n;
metricRight = n;
unicode = 331;
},
{
color = 4;
glyphname = o;
kernLeft = o;
kernRight = o;
lastChange = "2026-06-29 08:08:39 +0000";
layers = (
{
anchors = (
{
name = bottom;
pos = (275,0);
},
{
name = center;
pos = (275,238);
},
{
name = ogonek;
pos = (394,21);
},
{
name = top;
pos = (275,475);
},
{
name = topright;
pos = (398,451);
}
);
guides = (
{
angle = 90.1157;
pos = (275,238);
},
{
angle = 180.1169;
pos = (276,238);
}
);
layerId = m001;
shapes = (
{
closed = 1;
nodes = (
(412,-10,o),
(519,99,o),
(519,237,cs),
(519,376,o),
(412,485,o),
(275,485,cs),
(138,485,o),
(31,376,o),
(31,237,cs),
(31,99,o),
(138,-10,o),
(275,-10,cs)
);
},
{
closed = 1;
nodes = (
(194,85,o),
(131,152,o),
(131,237,cs),
(131,323,o),
(194,390,o),
(275,390,cs),
(356,390,o),
(419,323,o),
(419,237,cs),
(419,152,o),
(356,85,o),
(275,85,cs)
);
}
);
width = 550;
}
);
unicode = 111;
userData = {
KernOnName = o;
};
},
{
color = 4;
glyphname = oslash;
kernLeft = o;
kernRight = o;
lastChange = "2026-06-26 08:24:29 +0000";
layers = (
{
anchors = (
{
name = top;
pos = (275,475);
}
);
layerId = m001;
shapes = (
{
closed = 1;
nodes = (
(158,-34,l),
(191,22,l),
(230,77,l),
(398,355,l),
(435,408,l),
(499,515,l),
(406,515,l),
(366,447,l),
(331,398,l),
(162,117,l),
(129,71,l),
(66,-34,l)
);
},
{
ref = o;
}
);
width = 550;
}
);
metricLeft = o;
metricRight = o;
unicode = 248;
},
{
color = 4;
glyphname = oe;
kernLeft = o;
kernRight = e;
lastChange = "2026-06-29 07:43:48 +0000";
layers = (
{
anchors = (
{
name = bottom;
pos = (414,0);
},
{
name = top;
pos = (414,475);
}
);
guides = (
{
angle = 90;
pos = (416,77);
}
);
layerId = m001;
shapes = (
{
closed = 1;
nodes = (
(663,-10,o),
(724,12,o),
(773,46,c),
(773,150,l),
(738,117,o),
(676,85,o),
(615,85,cs),
(532,85,o),
(463,130,o),
(451,212,c),
(800,212,l),
(819,414,o),
(694,485,o),
(585,485,cs),
(498,485,o),
(427,438,o),
(388,367,c),
(389,122,l),
(414,49,o),
(496,-10,o),
(600,-10,cs)
);
},
{
closed = 1;
nodes = (
(317,-10,o),
(375,21,o),
(420,77,c),
(420,394,l),
(382,451,o),
(321,485,o),
(248,485,cs),
(122,485,o),
(31,382,o),
(31,237,cs),
(31,93,o),
(122,-10,o),
(248,-10,cs)
);
},
{
closed = 1;
nodes = (
(179,85,o),
(131,148,o),
(131,237,cs),
(131,326,o),
(179,390,o),
(248,390,cs),
(323,390,o),
(376,326,o),
(376,237,cs),
(376,148,o),
(323,85,o),
(248,85,cs)
);
},
{
closed = 1;
nodes = (
(464,341,o),
(510,390,o),
(582,390,cs),
(656,390,o),
(702,342,o),
(709,281,c),
(738,294,l),
(418,294,l),
(451,281,l)
);
}
);
width = 827;
}
);
metricLeft = o;
metricRight = e;
unicode = 339;
},
{
color = 4;
glyphname = p;
kernLeft = n;
kernRight = o;
lastChange = "2026-06-29 08:05:57 +0000";
layers = (
{
anchors = (
{
name = bottom;
pos = (278,0);
},
{
name = top;
pos = (278,475);
}
);
layerId = m001;
shapes = (
{
closed = 1;
nodes = (
(151,-225,l),
(151,26,l),
(189,3,o),
(233,-10,o),
(279,-10,cs),
(417,-10,o),
(524,99,o),
(524,242,cs),
(524,376,o),
(417,485,o),
(278,485,cs),
(232,485,o),
(190,473,o),
(151,449,c),
(151,475,l),
(51,475,l),
(51,-225,l)
);
},
{
closed = 1;
nodes = (
(229,85,o),
(180,104,o),
(151,137,c),
(151,344,l),
(181,372,o),
(228,390,o),
(274,390,cs),
(361,390,o),
(424,323,o),
(424,241,cs),
(424,152,o),
(361,85,o),
(274,85,cs)
);
}
);
width = 555;
}
);
metricLeft = h;
metricRight = o;
unicode = 112;
},
{
color = 4;
glyphname = thorn;
kernLeft = h;
kernRight = o;
lastChange = "2026-06-24 07:28:04 +0000";
layers = (
{
anchors = (
{
name = bottom;
pos = (278,0);
},
{
name = top;
pos = (278,475);
}
);
layerId = m001;
shapes = (
{
closed = 1;
nodes = (
(151,-225,l),
(151,26,l),
(189,3,o),
(233,-10,o),
(279,-10,cs),
(417,-10,o),
(524,99,o),
(524,242,cs),
(524,376,o),
(417,485,o),
(278,485,cs),
(232,485,o),
(190,473,o),
(151,449,c),
(151,700,l),
(51,700,l),
(51,-225,l)
);
},
{
closed = 1;
nodes = (
(229,85,o),
(180,104,o),
(151,137,c),
(151,344,l),
(181,372,o),
(228,390,o),
(274,390,cs),
(361,390,o),
(424,323,o),
(424,241,cs),
(424,152,o),
(361,85,o),
(274,85,cs)
);
}
);
width = 555;
}
);
metricLeft = h;
metricRight = p;
unicode = 254;
},
{
color = 4;
glyphname = r;
kernLeft = n;
kernRight = r;
lastChange = "2026-06-29 08:04:16 +0000";
layers = (
{
anchors = (
{
name = bottom;
pos = (101,0);
},
{
name = top;
pos = (207,475);
}
);
guides = (
{
angle = 269.8794;
pos = (152,238);
}
);
layerId = m001;
shapes = (
{
closed = 1;
nodes = (
(151,0,l),
(151,321,l),
(174,367,o),
(215,387,o),
(265,387,cs),
(292,387,o),
(320,381,o),
(357,360,c),
(357,462,l),
(330,476,o),
(303,485,o),
(269,485,cs),
(223,485,o),
(181,469,o),
(151,435,c),
(151,475,l),
(51,475,l),
(51,0,l)
);
}
);
width = 367;
}
);
metricLeft = n;
unicode = 114;
userData = {
KernOnName = r;
};
},
{
color = 4;
glyphname = s;
kernLeft = s;
kernRight = s;
lastChange = "2026-06-29 08:08:11 +0000";
layers = (
{
anchors = (
{
name = bottom;
pos = (217,0);
},
{
name = top;
pos = (213,475);
}
);
layerId = m001;
shapes = (
{
closed = 1;
nodes = (
(321,-10,o),
(413,30,o),
(413,139,cs),
(413,223,o),
(357,266,o),
(246,292,cs),
(172,309,o),
(140,322,o),
(140,351,cs),
(140,382,o),
(176,393,o),
(219,393,cs),
(283,393,o),
(333,370,o),
(372,341,c),
(372,444,l),
(328,470,o),
(265,485,o),
(213,485,cs),
(108,485,o),
(39,433,o),
(39,351,cs),
(39,267,o),
(101,228,o),
(206,204,cs),
(285,186,o),
(313,163,o),
(313,135,cs),
(313,107,o),
(285,85,o),
(215,85,cs),
(133,85,o),
(89,108,o),
(39,155,c),
(39,41,l),
(89,9,o),
(143,-10,o),
(217,-10,cs)
);
}
);
width = 440;
}
);
unicode = 115;
userData = {
KernOnName = s;
};
},
{
color = 8;
glyphname = germandbls;
kernLeft = H;
kernRight = germandbls;
lastChange = "2026-06-29 07:36:50 +0000";
layers = (
{
layerId = m001;
shapes = (
{
closed = 1;
nodes = (
(161,-62,l),
(164,-59,l),
(164,405,ls),
(164,427,o),
(164.333,443,o),
(165,453,cs),
(166.333,473,o),
(178,505.667,o),
(202,519,cs),
(248,543,o),
(290,545,o),
(328,525,cs),
(344,515.667,o),
(353,500,o),
(345,484,c),
(305.034,421.653,o),
(248.884,421.174,o),
(221,389,cs),
(203.667,369,o),
(196.333,320.667,o),
(207,286,cs),
(223.209,233.109,o),
(275.042,200.609,o),
(362.5,188.5,cs),
(427.581,179.489,o),
(481.013,149.916,o),
(464,114,cs),
(454,94.667,o),
(437.333,83.667,o),
(414,81,cs),
(368.667,76.333,o),
(322.333,84,o),
(275,104,cs),
(272.333,105.333,o),
(250.333,114,o),
(209,130,c),
(209,68.5,ls),
(209,43.5,o),
(210,30,o),
(212,28,c),
(292,-14.667,o),
(408,-24.333,o),
(492,13,cs),
(585.618,56.208,o),
(604.682,217.933,o),
(449,265,cs),
(438.333,268.333,o),
(421.5,271.167,o),
(398.5,273.5,cs),
(375.5,275.833,o),
(355.833,279.833,o),
(339.5,285.5,cs),
(323.167,291.167,o),
(310.833,299.833,o),
(302.5,311.5,cs),
(285.833,334.833,o),
(313,358.667,o),
(337,368,cs),
(393.667,388,o),
(427.667,417,o),
(439,455,cs),
(453.667,503,o),
(439.333,556.667,o),
(394,590,cs),
(318.695,645.371,o),
(222.537,638.768,o),
(159,607,cs),
(89.667,571,o),
(68.667,505.667,o),
(70,407,cs),
(70.667,401,o),
(70.833,330.833,o),
(70.5,196.5,cs),
(70.167,62.167,o),
(70,-23,o),
(70,-59,c),
(72,-62,l)
);
}
);
width = 594;
}
);
unicode = 223;
},
{
color = 4;
glyphname = longs;
kernLeft = h;
kernRight = f;
lastChange = "2026-06-23 08:47:08 +0000";
layers = (
{
layerId = m001;
shapes = (
{
closed = 1;
nodes = (
(151,0,l),
(151,525,l),
(151,586,o),
(183,615,o),
(230,615,cs),
(254,615,o),
(276,611,o),
(313,592,c),
(313,690,l),
(284,702,o),
(252,710,o),
(216,710,cs),
(112,710,o),
(51,642,o),
(51,540,c),
(51,0,l)
);
}
);
width = 326;
}
);
metricLeft = h;
metricRight = f;
unicode = 383;
},
{
color = 4;
glyphname = t;
kernLeft = t;
kernRight = t;
lastChange = "2026-06-29 08:08:13 +0000";
layers = (
{
anchors = (
{
name = bottom;
pos = (258,0);
},
{
name = center;
pos = (200,291);
},
{
name = top;
pos = (170,570);
},
{
name = topright;
pos = (430,630);
}
);
guides = (
{
angle = 90;
pos = (399,72);
}
);
layerId = m001;
shapes = (
{
closed = 1;
nodes = (
(327,-10,o),
(369,3,o),
(399,24,c),
(399,120,l),
(368,97,o),
(327,84,o),
(294,84,cs),
(241,84,o),
(220,121,o),
(220,173,cs),
(220,385,l),
(399,385,l),
(399,475,l),
(220,475,l),
(220,570,l),
(120,570,l),
(120,475,l),
(21,475,l),
(21,385,l),
(120,385,l),
(120,148,ls),
(120,47,o),
(184,-10,o),
(287,-10,cs)
);
}
);
width = 430;
}
);
unicode = 116;
userData = {
KernOnName = t;
};
},
{
color = 4;
glyphname = tcaron;
kernLeft = t;
kernRight = t;
lastChange = "2026-06-26 08:24:29 +0000";
layers = (
{
layerId = m001;
shapes = (
{
closed = 1;
nodes = (
(327,-10,o),
(369,3,o),
(399,24,c),
(399,120,l),
(368,97,o),
(327,84,o),
(294,84,cs),
(241,84,o),
(220,121,o),
(220,173,cs),
(220,385,l),
(349,385,l),
(349,475,l),
(220,475,l),
(220,570,l),
(120,570,l),
(120,475,l),
(21,475,l),
(21,385,l),
(120,385,l),
(120,148,ls),
(120,47,o),
(184,-10,o),
(287,-10,cs)
);
},
{
closed = 1;
nodes = (
(449,465,o),
(520,522,o),
(520,600,cs),
(520,700,l),
(420,700,l),
(420,600,ls),
(420,539,o),
(411,498,o),
(383,476,c),
(383,465,l)
);
}
);
width = 520;
}
);
metricLeft = t;
unicode = 357;
},
{
color = 4;
glyphname = u;
kernLeft = u;
kernRight = u;
lastChange = "2026-06-29 08:08:15 +0000";
layers = (
{
anchors = (
{
name = bottom;
pos = (240,0);
},
{
name = ogonek;
pos = (472,0);
},
{
name = top;
pos = (262,475);
},
{
name = topright;
pos = (472,475);
}
);
layerId = m001;
shapes = (
{
closed = 1;
nodes = (
(292,-10,o),
(338,5,o),
(372,30,c),
(372,0,l),
(472,0,l),
(472,475,l),
(372,475,l),
(372,129,l),
(351,104,o),
(313,85,o),
(258,85,cs),
(182,85,o),
(140,130,o),
(140,206,cs),
(140,475,l),
(40,475,l),
(40,201,ls),
(40,69,o),
(115,-10,o),
(236,-10,cs)
);
}
);
width = 523;
}
);
unicode = 117;
userData = {
KernOnName = u;
};
},
{
color = 4;
glyphname = v;
kernLeft = v;
kernRight = v;
lastChange = "2026-06-29 08:08:18 +0000";
layers = (
{
anchors = (
{
name = bottom;
pos = (278,0);
},
{
name = top;
pos = (280,475);
}
);
guides = (
{
angle = 90;
pos = (278,0);
}
);
layerId = m001;
shapes = (
{
closed = 1;
nodes = (
(330,0,l),
(544,475,l),
(425,475,l),
(280,127,l),
(135,475,l),
(12,475,l),
(226,0,l)
);
}
);
width = 554;
}
);
unicode = 118;
userData = {
KernOnName = v;
};
},
{
color = 4;
glyphname = w;
kernLeft = v;
kernRight = v;
lastChange = "2026-06-29 08:05:48 +0000";
layers = (
{
anchors = (
{
name = bottom;
pos = (390,0);
},
{
name = top;
pos = (390,475);
}
);
guides = (
{
angle = 180;
pos = (717,475);
}
);
layerId = m001;
shapes = (
{
closed = 1;
nodes = (
(283,0,l),
(387,278,l),
(497,0,l),
(595,0,l),
(768,475,l),
(659,475,l),
(527,111,l),
(553,111,l),
(427,434,l),
(347,434,l),
(227,111,l),
(253,111,l),
(121,475,l),
(12,475,l),
(185,0,l)
);
}
);
width = 779;
}
);
unicode = 119;
userData = {
KernOnName = w;
};
},
{
color = 4;
glyphname = x;
kernLeft = x;
kernRight = x;
lastChange = "2026-06-29 08:08:20 +0000";
layers = (
{
anchors = (
{
name = bottom;
pos = (247,0);
},
{
name = top;
pos = (249,475);
}
);
guides = (
{
angle = 53.2267;
pos = (308,238);
},
{
angle = 53.1494;
pos = (183,238);
}
);
layerId = m001;
shapes = (
{
closed = 1;
nodes = (
(488,0,l),
(132,475,l),
(8,475,l),
(363,0,l)
);
},
{
closed = 1;
nodes = (
(130,0,l),
(252,169,l),
(195,252,l),
(5,0,l)
);
},
{
closed = 1;
nodes = (
(490,475,l),
(366,475,l),
(247,307,l),
(304,225,l)
);
}
);
width = 490;
}
);
unicode = 120;
},
{
color = 4;
glyphname = y;
kernLeft = y;
kernRight = y;
lastChange = "2026-06-29 20:04:52 +0000";
layers = (
{
anchors = (
{
name = bottom;
pos = (280,-225);
},
{
name = top;
pos = (281,475);
}
);
backgroundImage = {
imagePath = "Images/y-Regular.tif";
locked = 1;
pos = (-57,-288);
scale = (2.5,2.5);
};
layerId = m001;
shapes = (
{
closed = 1;
nodes = (
(145,-236,o),
(219,-184,o),
(280,-69,cs),
(567,475,l),
(448,475,l),
(188,-29,ls),
(154,-96,o),
(117,-133,o),
(73,-133,cs),
(62,-133,o),
(51,-131,o),
(40,-128,c),
(40,-231,l),
(55,-234,o),
(68,-236,o),
(81,-236,cs)
);
},
{
closed = 1;
nodes = (
(318,115,l),
(135,475,l),
(12,475,l),
(259,11,l)
);
}
);
width = 577;
},
{
anchors = (
{
name = bottom;
pos = (280,-225);
},
{
name = top;
pos = (281,475);
}
);
associatedMasterId = m001;
layerId = "AE55D6E1-22C8-4D07-96E4-CAFCC75DF8EC";
name = "30 Jun 26 at 01:01";
shapes = (
{
closed = 1;
nodes = (
(202,-230,o),
(260,-177,o),
(289,-112,cs),
(552,475,l),
(433,475,l),
(280,109,l),
(202,-64,ls),
(185,-101,o),
(153,-125,o),
(113,-125,cs),
(102,-125,o),
(91,-123,o),
(80,-120,c),
(80,-225,l),
(95,-228,o),
(109,-230,o),
(122,-230,cs)
);
},
{
closed = 1;
nodes = (
(297,108,l),
(135,475,l),
(12,475,l),
(235,-2,l)
);
}
);
width = 562;
}
);
metricLeft = v;
metricRight = v;
unicode = 121;
userData = {
KernOnName = y;
};
},
{
color = 4;
glyphname = z;
kernLeft = z;
kernRight = z;
lastChange = "2026-06-29 08:07:21 +0000";
layers = (
{
anchors = (
{
name = bottom;
pos = (239,0);
},
{
name = center;
pos = (239,238);
},
{
name = top;
pos = (239,475);
}
);
layerId = m001;
shapes = (
{
closed = 1;
nodes = (
(446,0,l),
(446,100,l),
(203,100,l),
(462,475,l),
(38,475,l),
(38,375,l),
(277,375,l),
(16,0,l)
);
}
);
width = 478;
}
);
unicode = 122;
userData = {
KernOnName = z;
};
},
{
color = 5;
glyphname = a.ss01;
kernLeft = o;
kernRight = u;
lastChange = "2026-06-29 19:17:37 +0000";
layers = (
{
anchors = (
{
name = bottom;
pos = (278,0);
},
{
name = center;
pos = (280,241);
},
{
name = ogonek;
pos = (504,0);
},
{
name = top;
pos = (278,475);
},
{
name = topright;
pos = (504,475);
}
);
layerId = m001;
shapes = (
{
closed = 1;
nodes = (
(322,-10,o),
(366,3,o),
(404,26,c),
(404,0,l),
(504,0,l),
(504,475,l),
(404,475,l),
(404,449,l),
(365,473,o),
(323,485,o),
(277,485,cs),
(138,485,o),
(31,376,o),
(31,242,cs),
(31,99,o),
(138,-10,o),
(276,-10,cs)
);
},
{
closed = 1;
nodes = (
(194,85,o),
(131,152,o),
(131,241,cs),
(131,323,o),
(194,390,o),
(281,390,cs),
(327,390,o),
(374,372,o),
(404,344,c),
(404,137,l),
(375,104,o),
(326,85,o),
(281,85,cs)
);
}
);
width = 555;
}
);
metricLeft = o;
metricRight = "=|h";
userData = {
KernOnName = d;
};
},
{
color = 5;
glyphname = g.ss01;
kernLeft = g;
kernRight = g;
lastChange = "2026-06-29 19:58:50 +0000";
layers = (
{
anchors = (
{
name = bottom;
pos = (243,-225);
},
{
name = top;
pos = (243,475);
}
);
backgroundImage = {
imagePath = "Images/g.ss01-Regular.tif";
locked = 1;
pos = (-24,-276);
scale = (1.95,1.95);
};
guides = (
{
angle = 180;
pos = (243,308);
},
{
angle = 90;
pos = (243,308);
},
{
angle = 166.251;
pos = (297,64);
},
{
angle = 166.2509;
pos = (297,-21);
},
{
angle = 180;
pos = (478,-86);
},
{
angle = 90;
pos = (348,65);
}
);
layerId = m001;
shapes = (
{
closed = 1;
nodes = (
(360,-235,o),
(443,-181,o),
(443,-86,cs),
(443,475,l),
(437,475,l),
(348,475,l),
(283,475,l),
(329,415,l),
(348,415,l),
(348,202,l),
(279,178,l),
(112,58,o),
(36,-16,o),
(36,-109,cs),
(36,-191,o),
(100,-235,o),
(219,-235,cs)
);
},
{
closed = 1;
nodes = (
(133,-55,o),
(191,28,o),
(348,146,c),
(348,-78,ls),
(348,-134,o),
(293,-150,o),
(223,-150,cs),
(173,-150,o),
(133,-143,o),
(133,-102,cs)
);
},
{
closed = 1;
nodes = (
(330,130,o),
(431,206,o),
(431,308,c),
(399,464,l),
(334,481,o),
(285,485,o),
(253,485,cs),
(116,485,o),
(55,388,o),
(55,296,cs),
(55,195,o),
(116,130,o),
(223,130,cs)
);
},
{
closed = 1;
nodes = (
(192,206,o),
(150,234,o),
(150,299,cs),
(150,360,o),
(189,400,o),
(253,400,cs),
(293,400,o),
(320,395,o),
(348,384,c),
(348,230,l),
(318,214,o),
(295,206,o),
(247,206,cs)
);
}
);
width = 488;
}
);
userData = {
KernOnName = g;
};
},
{
color = 4;
glyphname = q.ss01;
kernLeft = o;
kernRight = q.alt;
lastChange = "2026-06-29 11:45:02 +0000";
layers = (
{
layerId = m001;
shapes = (
{
closed = 1;
nodes = (
(930,-228,o),
(986,-194,c),
(986,-107,l),
(948,-132,o),
(907,-145,o),
(861,-147,cs),
(773,-152,o),
(680,-122,o),
(567,-59,cs),
(517,-31,o),
(460,5,o),
(402,44,c),
(179,9,l),
(249,-21,o),
(277,-9,o),
(411,-89,cs),
(490,-136,o),
(650,-240,o),
(814,-240,cs),
(869,-240,o)
);
},
{
ref = o;
}
);
width = 550;
}
);
},
{
color = 8;
export = 0;
glyphname = fi;
kernLeft = f;
kernRight = i;
lastChange = "2026-06-26 08:24:29 +0000";
layers = (
{
layerId = m001;
shapes = (
{
closed = 1;
nodes = (
(346,0,l),
(346,358,l),
(346,459,l),
(346,461,l),
(188,459,l),
(188,532,ls),
(188,582.667,o),
(214.667,624,o),
(252,624,cs),
(282.667,624,o),
(312.667,624.333,o),
(350,603,c),
(350,702,l),
(320.667,712.667,o),
(281.667,722,o),
(251,722,cs),
(159.674,722,o),
(88,643.537,o),
(88,552,cs),
(88,458,l),
(8,458,l),
(8,359,l),
(88,359,l),
(88,1,l),
(188,1,l),
(188,358,l),
(247.4,357.8,l),
(247,0,l)
);
}
);
width = 366;
}
);
unicode = 64257;
},
{
color = 8;
export = 0;
glyphname = fl;
kernLeft = f;
kernRight = l;
lastChange = "2026-06-26 08:24:29 +0000";
layers = (
{
layerId = m001;
shapes = (
{
closed = 1;
nodes = (
(550.667,-10,o),
(594.333,3.667,o),
(625,25,c),
(625,126,l),
(594.333,103.333,o),
(550.667,90,o),
(516,90,cs),
(476,90,o),
(446,127,o),
(446,179,cs),
(446,699,l),
(350,699,l),
(350,702,l),
(320.667,712.667,o),
(281.667,722,o),
(251,722,cs),
(159.674,722,o),
(88,643.537,o),
(88,552,cs),
(88,458,l),
(8,458,l),
(8,359,l),
(88,359,l),
(88,2,l),
(188,2,l),
(188,358,l),
(346,358,l),
(346,149,ls),
(346,58.229,o),
(420.441,-10,o),
(516,-10,cs)
);
},
{
closed = 1;
nodes = (
(188,532,ls),
(188,582.667,o),
(214.667,624,o),
(252,624,cs),
(267.333,624,o),
(282.833,623.167,o),
(298.5,621.5,cs),
(313.041,619.953,o),
(328.875,614.53,o),
(346,605.229,c),
(346,459,l),
(188,459,l)
);
}
);
width = 641;
}
);
unicode = 64258;
},
{
color = 8;
glyphname = ordmasculine;
kernLeft = ordfeminine;
kernRight = ordfeminine;
lastChange = "2026-06-26 08:32:08 +0000";
layers = (
{
layerId = m001;
shapes = (
{
closed = 1;
nodes = (
(267,363,o),
(335,432,o),
(335,516,cs),
(335,600,o),
(267,668,o),
(183,668,cs),
(97.667,668,o),
(30,600,o),
(30,516,cs),
(30,432,o),
(97.667,363,o),
(183,363,cs)
);
},
{
closed = 1;
nodes = (
(334,237,l),
(336,241,l),
(336,329,l),
(333,332,l),
(36,332,l),
(32,328,l),
(32,244,ls),
(32,239.333,o),
(33.667,237,o),
(37,237,cs)
);
},
{
closed = 1;
nodes = (
(145.667,450,o),
(116,478.667,o),
(116,516,cs),
(116,552,o),
(145.667,582,o),
(183,582,cs),
(219,582,o),
(249,552,o),
(249,516,cs),
(249,478.667,o),
(219,450,o),
(183,450,cs)
);
}
);
width = 366;
}
);
unicode = 186;
userData = {
KernOnSpecialSpacing = {
L = superiors;
R = superiors;
};
};
},
{
color = 8;
glyphname = alpha;
kernLeft = alpha;
kernRight = alpha;
lastChange = "2026-06-26 08:24:29 +0000";
layers = (
{
layerId = m001;
shapes = (
{
closed = 1;
nodes = (
(261.516,-237.724,o),
(361.585,-161.844,o),
(407,-63,c),
(411.667,-56.333,o),
(414,-48,o),
(414,-38,cs),
(414,-28.667,o),
(417.667,-21,o),
(425,-15,c),
(497,-8.333,o),
(564.333,10.667,o),
(611,72,c),
(641,121.5,ls),
(651,138.5,o),
(655,156.667,o),
(653,176,c),
(636.854,106.035,o),
(568.952,48.608,o),
(500,38,c),
(481.369,40.329,o),
(451.28,26.72,o),
(434,44,c),
(436.667,53.333,o),
(437.667,63,o),
(437,73,cs),
(436.333,83,o),
(436.333,92.667,o),
(437,102,c),
(445,124.667,o),
(446,151.333,o),
(446,178,cs),
(446,218,ls),
(446,231.333,o),
(447,244.333,o),
(449,257,c),
(455,263,l),
(608,272,ls),
(630,272,o),
(651,275.833,o),
(671,283.5,cs),
(691,291.167,o),
(710.667,296.333,o),
(730,299,c),
(712.667,260.333,o),
(722,217.667,o),
(734,179,c),
(742,179,l),
(742,185,o),
(740.333,190.167,o),
(737,194.5,cs),
(733.667,198.833,o),
(731.333,203.667,o),
(730,209,cs),
(722,258.333,o),
(738.667,306.333,o),
(776,341,c),
(793.391,361.869,o),
(817.315,361.838,o),
(820,386,c),
(804,380.667,o),
(788.333,373.333,o),
(773,364,cs),
(757.667,354.667,o),
(741.333,348,o),
(724,344,c),
(678,341.333,o),
(632.5,337.5,o),
(587.5,332.5,cs),
(542.5,327.5,o),
(497.333,325.333,o),
(452,326,c),
(446,332,l),
(444.667,388,o),
(445,457.667,o),
(449,515,c),
(455,521,l),
(501.873,528.812,o),
(542.714,509.992,o),
(580,483.5,cs),
(617,458,l),
(639.667,439.333,o),
(637.333,410.667,o),
(632,392,c),
(658.268,415.641,o),
(710.804,443.221,o),
(695,488,c),
(631,549.333,o),
(549,569.667,o),
(461,563,c),
(452,571,l),
(457.017,631.207,o),
(451.137,702.768,o),
(470,757,c),
(461,757,l),
(434.333,737,o),
(406.333,720.667,o),
(377,708,cs),
(347.667,695.333,o),
(319,680.667,o),
(291,664,c),
(291,655,l),
(308.333,665.667,o),
(319.667,666.667,o),
(341,664,c),
(347.667,658,o),
(354.667,652.833,o),
(362,648.5,cs),
(369.333,644.167,o),
(374.333,637.333,o),
(377,628,c),
(377,598.904,o),
(392.699,564.389,o),
(365,545,c),
(278.436,503.03,o),
(163.868,430.524,o),
(156,323,c),
(114.667,307,o),
(75,289.667,o),
(39,263,c),
(39,248,l),
(59,256,o),
(81,258.333,o),
(105,257,cs),
(123.784,257,o),
(136.604,272.754,o),
(150,254,c),
(158,207.5,ls),
(166.112,159.841,o),
(177.651,115.349,o),
(213,80,c),
(241.666,39.868,o),
(280.559,16.679,o),
(323,-0.5,cs),
(365,-18,l),
(361,-82,o),
(331.667,-137.333,o),
(285,-180,c),
(249,-192,o),
(203,-199.333,o),
(171,-174,c),
(129.667,-146,o),
(105.365,-106.389,o),
(108,-57,cs),
(110.705,-6.284,o),
(147,40,o),
(195,56,c),
(186,60,l),
(140.491,32.189,o),
(67.461,2.227,o),
(54,-57,c),
(27.98,-101.233,o),
(48.309,-161.514,o),
(72,-201,c),
(92.276,-226.344,o),
(129.583,-230.992,o),
(156,-243,c)
);
},
{
closed = 1;
nodes = (
(288.79,98.239,o),
(236.251,181.235,o),
(231,260,c),
(371,260,l),
(375,256,o),
(377,254,o),
(377,254,c),
(379,225.333,o),
(378.667,195.5,o),
(376,164.5,cs),
(373.333,133.5,o),
(372.667,104.667,o),
(374,78,c),
(368,60,l)
);
},
{
closed = 1;
nodes = (
(219.667,338.333,o),
(219.333,348.5,o),
(224,359.5,cs),
(228.667,370.5,o),
(231.667,381.333,o),
(233,392,c),
(257.192,455.504,o),
(305.953,509.244,o),
(368,517,c),
(374,500,l),
(374,329,l),
(225,329,l)
);
},
{
closed = 1;
nodes = (
(689,0,l),
(734,44,l),
(736.466,66.191,o),
(706.843,79.254,o),
(704,102,c),
(687.848,121.383,o),
(692.123,97.281,o),
(671,92,c),
(652.333,77.333,o),
(638.333,64,o),
(629,44,c),
(647.667,36,o),
(663.667,16,o),
(677,0,c)
);
}
);
width = 859;
}
);
unicode = 945;
},
{
color = 8;
glyphname = beta;
kernLeft = H;
kernRight = beta;
lastChange = "2026-06-26 08:24:29 +0000";
layers = (
{
layerId = m001;
shapes = (
{
closed = 1;
nodes = (
(1547,-242,l),
(1567,-240,l),
(1606,-231,l),
(1643,-215,l),
(1655,-209,l),
(1665,-204,l),
(1742,-152,l),
(1805,-97,l),
(1852,-43,l),
(1890,17,l),
(1909,59,l),
(1911,63,l),
(1918,75,l),
(1923,85,l),
(1924,90,l),
(1926,94,l),
(1933,103,l),
(1938,108,l),
(1941,109,l),
(1948,110,l),
(2022,83,l),
(2066,44,l),
(2068,32,l),
(2068,25,l),
(2065,16,l),
(2045,5,l),
(2040,-4,l),
(2039,-7,l),
(2039,-10,l),
(2043,-11,l),
(2047,-11,l),
(2050,-10,l),
(2054,-9,l),
(2058,-7,l),
(2079,10,l),
(2084,14,l),
(2088,20,l),
(2092,27,l),
(2094,35,l),
(2095,43,l),
(2095,51,l),
(2094,59,l),
(2092,67,l),
(2083,80,l),
(2068,95,l),
(2060,101,l),
(2047,108,l),
(2033,115,l),
(2013,122,l),
(1949,141,l),
(1959,195,l),
(1987,202,l),
(2108,222,l),
(2374,249,l),
(2382,250,l),
(2395,254,l),
(2390,255,l),
(2389,256,l),
(2160,243,l),
(2061,225,l),
(1967,215,l),
(1968,235,l),
(1985,371,l),
(1987,483,l),
(1980,558,l),
(1971,595,l),
(1958,630,l),
(1940,664,l),
(1933,672,l),
(1921,683,l),
(1899,698,l),
(1870,711,l),
(1828,721,l),
(1784,722,l),
(1722,697,l),
(1718,693,l),
(1707,679,l),
(1707,665,l),
(1708,658,l),
(1713,640,l),
(1729,610,l),
(1761,563,l),
(1775,538,l),
(1782,518,l),
(1786,504,l),
(1787,488,l),
(1786,473,l),
(1753,478,l),
(1736,478,l),
(1730,476,l),
(1719,471,l),
(1714,466,l),
(1671,411,l),
(1667,411,l),
(1661,413,l),
(1654,419,l),
(1650,421,l),
(1648,422,l),
(1638,418,l),
(1629,411,l),
(1622,404,l),
(1600,375,l),
(1593,367,l),
(1589,365,l),
(1586,365,l),
(1584,365,l),
(1584,366,l),
(1583,367,l),
(1591,434,l),
(1589,435,l),
(1587,437,l),
(1584,437,l),
(1582,437,l),
(1575,430,l),
(1547,388,l),
(1526,358,l),
(1513,345,l),
(1506,339,l),
(1489,330,l),
(1484,328,l),
(1482,329,l),
(1479,330,l),
(1478,331,l),
(1478,332,l),
(1501,387,l),
(1547,434,l),
(1553,447,l),
(1554,452,l),
(1553,456,l),
(1550,460,l),
(1547,461,l),
(1544,461,l),
(1543,461,l),
(1535,457,l),
(1525,452,l),
(1513,448,l),
(1493,444,l),
(1490,444,l),
(1480,442,l),
(1478,442,l),
(1452,440,l),
(1450,440,l),
(1441,438,l),
(1432,438,l),
(1419,441,l),
(1400,446,l),
(1384,448,l),
(1376,448,l),
(1365,445,l),
(1363,444,l),
(1361,442,l),
(1358,437,l),
(1359,425,l),
(1363,403,l),
(1367,380,l),
(1366,368,l),
(1364,356,l),
(1359,344,l),
(1332,309,l),
(1325,308,l),
(1316,309,l),
(1311,311,l),
(1310,313,l),
(1304,329,l),
(1300,346,l),
(1297,379,l),
(1299,412,l),
(1307,445,l),
(1305,447,l),
(1301,451,l),
(1301,452,l),
(1291,445,l),
(1281,437,l),
(1265,421,l),
(1204,342,l),
(1192,329,l),
(1182,320,l),
(1172,313,l),
(1169,314,l),
(1165,317,l),
(1164,318,l),
(1164,320,l),
(1172,434,l),
(1166,436,l),
(1164,437,l),
(1162,437,l),
(1160,437,l),
(1156,436,l),
(1153,434,l),
(1152,434,l),
(1141,410,l),
(1139,408,l),
(1135,406,l),
(1130,405,l),
(1129,405,l),
(1126,402,l),
(1122,396,l),
(1120,393,l),
(1114,383,l),
(1106,375,l),
(1079,335,l),
(1068,323,l),
(1058,317,l),
(1056,317,l),
(1055,318,l),
(1053,318,l),
(1052,319,l),
(1052,320,l),
(1043,359,l),
(1046,373,l),
(1045,411,l),
(1046,422,l),
(1051,432,l),
(1058,434,l),
(1068,437,l),
(1077,444,l),
(1086,453,l),
(1087,456,l),
(1089,462,l),
(1087,465,l),
(1085,468,l),
(1082,469,l),
(1075,469,l),
(1071,469,l),
(1058,472,l),
(1051,476,l),
(1049,479,l),
(1047,485,l),
(1047,488,l),
(1050,500,l),
(1051,510,l),
(1051,532,l),
(1053,543,l),
(1052,558,l),
(1052,586,l),
(1051,612,l),
(1047,626,l),
(1043,636,l),
(1040,639,l),
(1035,640,l),
(1031,639,l),
(1022,632,l),
(1014,621,l),
(1007,559,l),
(998,512,l),
(984,473,l),
(969,465,l),
(966,465,l),
(963,467,l),
(958,468,l),
(958,469,l),
(504,427,l),
(488,424,l),
(476,422,l),
(458,419,l),
(448,420,l),
(444,421,l),
(443,422,l),
(455,566,l),
(462,572,l),
(649,603,l),
(756,605,l),
(802,599,l),
(836,590,l),
(839,586,l),
(839,584,l),
(839,582,l),
(777,543,l),
(735,527,l),
(735,519,l),
(740,521,l),
(744,521,l),
(752,521,l),
(759,522,l),
(773,529,l),
(778,531,l),
(781,533,l),
(787,535,l),
(790,536,l),
(817,546,l),
(835,556,l),
(844,564,l),
(864,582,l),
(869,590,l),
(870,595,l),
(871,600,l),
(870,610,l),
(833,623,l),
(795,632,l),
(730,635,l),
(529,615,l),
(454,613,l),
(453,629,l),
(456,658,l),
(458,687,l),
(455,702,l),
(450,713,l),
(445,714,l),
(439,714,l),
(438,715,l),
(431,711,l),
(426,706,l),
(423,701,l),
(423,699,l),
(419,598,l),
(386,587,l),
(246,563,l),
(187,548,l),
(149,531,l),
(150,523,l),
(151,519,l),
(153,517,l),
(168,520,l),
(257,534,l),
(321,547,l),
(327,547,l),
(342,550,l),
(375,559,l),
(391,561,l),
(400,561,l),
(406,560,l),
(419,555,l),
(403,407,l),
(376,401,l),
(374,401,l),
(350,398,l),
(348,398,l),
(328,394,l),
(322,392,l),
(311,388,l),
(295,386,l),
(292,386,l),
(286,385,l),
(283,385,l),
(266,382,l),
(256,379,l),
(245,371,l),
(241,367,l),
(240,363,l),
(239,356,l),
(240,353,l),
(243,352,l),
(257,351,l),
(282,353,l),
(344,367,l),
(358,369,l),
(368,370,l),
(382,370,l),
(399,367,l),
(387,302,l),
(375,272,l),
(370,263,l),
(360,249,l),
(354,248,l),
(342,246,l),
(333,247,l),
(314,248,l),
(297,248,l),
(287,245,l),
(281,241,l),
(277,237,l),
(274,231,l),
(279,216,l),
(283,207,l),
(287,204,l),
(290,202,l),
(297,199,l),
(327,187,l),
(392,173,l),
(551,165,l),
(608,170,l),
(696,184,l),
(753,201,l),
(782,213,l),
(793,227,l),
(792,231,l),
(792,237,l),
(792,239,l),
(761,227,l),
(650,203,l),
(516,196,l),
(507,198,l),
(493,201,l),
(426,204,l),
(408,206,l),
(394,209,l),
(373,217,l),
(369,219,l),
(368,224,l),
(368,227,l),
(368,231,l),
(370,233,l),
(371,235,l),
(379,240,l),
(386,247,l),
(391,254,l),
(402,270,l),
(409,289,l),
(426,355,l),
(434,379,l),
(575,408,l),
(817,432,l),
(829,434,l),
(841,434,l),
(844,435,l),
(889,435,l),
(892,435,l),
(899,435,l),
(918,437,l),
(926,436,l),
(940,432,l),
(943,428,l),
(944,426,l),
(905,383,l),
(895,363,l),
(880,313,l),
(878,300,l),
(878,290,l),
(879,281,l),
(882,272,l),
(887,264,l),
(888,262,l),
(892,261,l),
(895,261,l),
(918,280,l),
(927,289,l),
(933,296,l),
(941,309,l),
(976,387,l),
(992,419,l),
(1004,434,l),
(1012,308,l),
(1015,297,l),
(1021,281,l),
(1029,266,l),
(1035,258,l),
(1041,260,l),
(1052,266,l),
(1057,270,l),
(1125,367,l),
(1127,365,l),
(1128,365,l),
(1129,369,l),
(1130,370,l),
(1131,367,l),
(1129,270,l),
(1130,266,l),
(1132,262,l),
(1133,260,l),
(1136,258,l),
(1139,256,l),
(1141,255,l),
(1157,261,l),
(1168,268,l),
(1174,275,l),
(1177,282,l),
(1181,285,l),
(1215,323,l),
(1236,352,l),
(1240,358,l),
(1246,363,l),
(1249,364,l),
(1252,363,l),
(1254,359,l),
(1254,347,l),
(1255,337,l),
(1263,293,l),
(1267,285,l),
(1273,278,l),
(1282,268,l),
(1290,265,l),
(1294,264,l),
(1297,264,l),
(1302,265,l),
(1309,267,l),
(1316,272,l),
(1326,279,l),
(1336,284,l),
(1343,289,l),
(1356,302,l),
(1370,322,l),
(1383,348,l),
(1398,401,l),
(1488,412,l),
(1486,405,l),
(1479,389,l),
(1458,361,l),
(1450,350,l),
(1446,340,l),
(1444,331,l),
(1442,314,l),
(1442,305,l),
(1443,298,l),
(1448,292,l),
(1455,287,l),
(1461,287,l),
(1467,289,l),
(1472,291,l),
(1474,293,l),
(1480,296,l),
(1525,330,l),
(1535,335,l),
(1543,336,l),
(1545,293,l),
(1549,290,l),
(1550,289,l),
(1558,290,l),
(1569,295,l),
(1575,299,l),
(1582,306,l),
(1588,315,l),
(1604,342,l),
(1610,350,l),
(1617,357,l),
(1619,359,l),
(1629,363,l),
(1641,275,l),
(1643,274,l),
(1647,274,l),
(1650,275,l),
(1653,276,l),
(1660,280,l),
(1662,282,l),
(1684,371,l),
(1696,405,l),
(1710,429,l),
(1717,438,l),
(1730,449,l),
(1756,434,l),
(1757,429,l),
(1757,424,l),
(1754,415,l),
(1749,406,l),
(1734,357,l),
(1729,329,l),
(1730,306,l),
(1733,295,l),
(1737,284,l),
(1740,282,l),
(1742,282,l),
(1745,282,l),
(1752,284,l),
(1759,287,l),
(1770,295,l),
(1775,300,l),
(1783,311,l),
(1795,334,l),
(1809,376,l),
(1816,429,l),
(1814,485,l),
(1800,548,l),
(1773,606,l),
(1742,649,l),
(1740,653,l),
(1735,663,l),
(1733,674,l),
(1735,679,l),
(1737,683,l),
(1746,687,l),
(1757,691,l),
(1760,692,l),
(1763,693,l),
(1784,695,l),
(1788,695,l),
(1797,695,l),
(1800,695,l),
(1812,694,l),
(1829,692,l),
(1832,692,l),
(1835,692,l),
(1858,679,l),
(1880,663,l),
(1889,655,l),
(1904,639,l),
(1914,624,l),
(1921,611,l),
(1929,588,l),
(1939,547,l),
(1947,483,l),
(1948,418,l),
(1952,375,l),
(1924,204,l),
(1745,161,l),
(1741,159,l),
(1735,155,l),
(1732,151,l),
(1731,149,l),
(1730,144,l),
(1730,141,l),
(1730,138,l),
(1732,136,l),
(1734,135,l),
(1901,114,l),
(1901,106,l),
(1900,103,l),
(1899,102,l),
(1894,102,l),
(1896,95,l),
(1896,89,l),
(1894,83,l),
(1885,65,l),
(1880,52,l),
(1876,42,l),
(1852,-3,l),
(1809,-62,l),
(1734,-134,l),
(1660,-186,l),
(1617,-210,l),
(1560,-223,l),
(1541,-225,l),
(1525,-225,l),
(1513,-223,l),
(1496,-218,l),
(1492,-216,l),
(1484,-214,l),
(1450,-195,l),
(1426,-175,l),
(1395,-141,l),
(1374,-109,l),
(1347,-52,l),
(1340,-30,l),
(1339,-36,l),
(1342,-47,l),
(1344,-58,l),
(1347,-71,l),
(1365,-121,l),
(1382,-154,l),
(1392,-169,l),
(1417,-196,l),
(1436,-212,l),
(1453,-222,l),
(1459,-225,l),
(1471,-231,l),
(1489,-237,l),
(1502,-240,l),
(1527,-243,l)
);
},
{
closed = 1;
nodes = (
(933,379,l),
(957,398,l),
(938,363,l),
(938,358,l),
(934,348,l),
(931,344,l),
(920,330,l)
);
},
{
closed = 1;
nodes = (
(2080,354,l),
(2077,363,l),
(2076,370,l),
(2078,411,l),
(2082,419,l),
(2084,428,l),
(2086,433,l),
(2088,432,l),
(2092,430,l),
(2101,425,l),
(2104,421,l),
(2109,412,l),
(2114,394,l),
(2115,388,l),
(2114,374,l),
(2111,368,l),
(2109,363,l),
(2100,354,l),
(2085,349,l)
);
},
{
closed = 1;
nodes = (
(3015,276,l),
(3022,278,l),
(3033,284,l),
(3042,295,l),
(3051,309,l),
(3054,321,l),
(3055,330,l),
(3055,340,l),
(3054,349,l),
(3048,370,l),
(3044,379,l),
(3032,401,l),
(2986,392,l),
(2978,410,l),
(2968,425,l),
(2958,436,l),
(2947,444,l),
(2914,449,l),
(2909,449,l),
(2906,449,l),
(2896,449,l),
(2887,447,l),
(2878,443,l),
(2876,442,l),
(2872,437,l),
(2870,434,l),
(2869,428,l),
(2869,426,l),
(2870,422,l),
(2872,418,l),
(2877,412,l),
(2888,406,l),
(2895,391,l),
(2881,365,l),
(2861,352,l),
(2856,352,l),
(2855,352,l),
(2853,353,l),
(2846,365,l),
(2842,374,l),
(2841,383,l),
(2842,393,l),
(2851,436,l),
(2852,446,l),
(2852,456,l),
(2848,457,l),
(2842,457,l),
(2837,454,l),
(2829,447,l),
(2804,411,l),
(2797,404,l),
(2788,399,l),
(2783,398,l),
(2780,415,l),
(2779,432,l),
(2781,461,l),
(2807,586,l),
(2812,606,l),
(2817,619,l),
(2823,629,l),
(2829,634,l),
(2834,636,l),
(2955,651,l),
(2957,650,l),
(2957,648,l),
(2959,644,l),
(2957,639,l),
(2956,627,l),
(2957,621,l),
(2961,611,l),
(2965,605,l),
(2975,596,l),
(2985,590,l),
(2996,585,l),
(3004,581,l),
(3029,575,l),
(3033,574,l),
(3039,574,l),
(3048,574,l),
(3057,576,l),
(3071,580,l),
(3079,583,l),
(3087,587,l),
(3102,600,l),
(3112,613,l),
(3115,651,l),
(3118,652,l),
(3127,652,l),
(3132,654,l),
(3133,656,l),
(3134,660,l),
(3134,662,l),
(3134,664,l),
(3129,670,l),
(3127,675,l),
(3100,684,l),
(3082,687,l),
(3036,689,l),
(2887,665,l),
(2840,663,l),
(2832,664,l),
(2830,666,l),
(2830,669,l),
(2830,672,l),
(2829,674,l),
(2814,676,l),
(2812,675,l),
(2807,671,l),
(2798,656,l),
(2744,636,l),
(2741,632,l),
(2740,629,l),
(2740,628,l),
(2741,626,l),
(2776,628,l),
(2777,626,l),
(2779,621,l),
(2758,586,l),
(2750,570,l),
(2743,561,l),
(2676,452,l),
(2659,429,l),
(2647,418,l),
(2644,418,l),
(2641,420,l),
(2640,421,l),
(2639,422,l),
(2636,424,l),
(2635,426,l),
(2634,429,l),
(2633,434,l),
(2619,440,l),
(2616,437,l),
(2607,431,l),
(2600,424,l),
(2599,422,l),
(2561,377,l),
(2557,377,l),
(2554,378,l),
(2553,379,l),
(2541,436,l),
(2539,436,l),
(2537,437,l),
(2536,437,l),
(2534,437,l),
(2528,436,l),
(2520,433,l),
(2513,428,l),
(2503,419,l),
(2492,405,l),
(2490,402,l),
(2475,396,l),
(2459,441,l),
(2456,443,l),
(2451,445,l),
(2449,445,l),
(2448,445,l),
(2442,443,l),
(2429,438,l),
(2425,435,l),
(2408,421,l),
(2380,390,l),
(2378,388,l),
(2369,384,l),
(2366,384,l),
(2364,385,l),
(2362,387,l),
(2361,391,l),
(2358,429,l),
(2356,431,l),
(2352,437,l),
(2350,440,l),
(2338,448,l),
(2328,451,l),
(2326,451,l),
(2317,450,l),
(2315,449,l),
(2257,402,l),
(2253,403,l),
(2250,406,l),
(2249,407,l),
(2249,410,l),
(2317,745,l),
(2315,751,l),
(2314,753,l),
(2311,756,l),
(2309,756,l),
(2304,756,l),
(2303,757,l),
(2300,756,l),
(2296,754,l),
(2292,751,l),
(2289,748,l),
(2284,726,l),
(2273,696,l),
(2257,667,l),
(2225,623,l),
(2146,544,l),
(2081,470,l),
(2056,457,l),
(2043,400,l),
(2037,362,l),
(2038,336,l),
(2039,330,l),
(2042,321,l),
(2046,312,l),
(2049,309,l),
(2053,307,l),
(2057,305,l),
(2063,306,l),
(2074,308,l),
(2091,315,l),
(2102,322,l),
(2113,332,l),
(2118,338,l),
(2124,348,l),
(2129,352,l),
(2137,355,l),
(2141,359,l),
(2145,371,l),
(2147,378,l),
(2148,386,l),
(2147,405,l),
(2145,412,l),
(2139,431,l),
(2131,445,l),
(2112,472,l),
(2132,503,l),
(2135,505,l),
(2150,517,l),
(2162,531,l),
(2171,543,l),
(2181,551,l),
(2205,576,l),
(2230,606,l),
(2250,628,l),
(2267,640,l),
(2262,601,l),
(2217,408,l),
(2216,380,l),
(2217,361,l),
(2220,342,l),
(2222,333,l),
(2223,332,l),
(2225,332,l),
(2229,332,l),
(2233,333,l),
(2236,335,l),
(2246,344,l),
(2292,409,l),
(2307,418,l),
(2311,416,l),
(2314,414,l),
(2319,409,l),
(2324,402,l),
(2327,320,l),
(2328,318,l),
(2332,317,l),
(2335,317,l),
(2427,402,l),
(2437,324,l),
(2443,324,l),
(2453,329,l),
(2464,337,l),
(2486,369,l),
(2495,379,l),
(2502,384,l),
(2503,381,l),
(2505,382,l),
(2507,384,l),
(2508,383,l),
(2522,324,l),
(2528,325,l),
(2539,330,l),
(2552,337,l),
(2576,358,l),
(2580,362,l),
(2595,376,l),
(2597,376,l),
(2600,376,l),
(2604,375,l),
(2606,369,l),
(2608,363,l),
(2605,351,l),
(2603,330,l),
(2604,318,l),
(2607,308,l),
(2612,301,l),
(2613,299,l),
(2614,298,l),
(2618,296,l),
(2619,296,l),
(2623,298,l),
(2631,303,l),
(2638,310,l),
(2640,313,l),
(2644,322,l),
(2647,331,l),
(2647,371,l),
(2698,451,l),
(2749,528,l),
(2766,547,l),
(2738,385,l),
(2739,332,l),
(2741,330,l),
(2742,329,l),
(2744,328,l),
(2749,329,l),
(2754,330,l),
(2763,335,l),
(2771,342,l),
(2786,361,l),
(2792,368,l),
(2800,373,l),
(2804,374,l),
(2807,375,l),
(2810,365,l),
(2811,357,l),
(2811,347,l),
(2812,337,l),
(2816,328,l),
(2817,324,l),
(2823,320,l),
(2828,317,l),
(2835,315,l),
(2839,315,l),
(2842,315,l),
(2854,322,l),
(2856,323,l),
(2871,333,l),
(2887,344,l),
(2900,356,l),
(2911,367,l),
(2915,375,l),
(2917,383,l),
(2918,390,l),
(2917,414,l),
(2918,415,l),
(2919,416,l),
(2921,417,l),
(2922,417,l),
(2924,417,l),
(2925,415,l),
(2928,412,l),
(2938,402,l),
(2943,388,l),
(2945,375,l),
(2945,363,l),
(2944,348,l),
(2939,324,l),
(2943,313,l),
(2945,313,l),
(2951,313,l),
(2957,314,l),
(2961,316,l),
(2969,323,l),
(2973,328,l),
(2986,351,l),
(2994,362,l),
(3002,359,l),
(3026,309,l),
(3021,298,l),
(3019,295,l),
(3017,294,l),
(3014,292,l),
(3009,291,l),
(3004,289,l),
(3002,287,l),
(3002,285,l),
(3003,281,l),
(3006,277,l),
(3008,277,l),
(3010,276,l)
);
},
{
closed = 1;
nodes = (
(3025,610,l),
(3005,617,l),
(3002,620,l),
(2999,621,l),
(2994,626,l),
(2992,629,l),
(2988,636,l),
(2987,640,l),
(2987,642,l),
(2989,646,l),
(2994,648,l),
(3064,634,l),
(3069,628,l),
(3070,625,l),
(3071,623,l),
(3074,621,l),
(3073,619,l),
(3073,617,l),
(3072,613,l),
(3062,608,l),
(3051,606,l),
(3039,606,l)
);
}
);
width = 3284;
}
);
unicode = 946;
},
{
color = 8;
glyphname = gamma;
kernLeft = gamma;
kernRight = gamma;
lastChange = "2026-06-26 08:24:29 +0000";
layers = (
{
layerId = m001;
shapes = (
{
closed = 1;
nodes = (
(900.358,-226,o),
(1083.477,-86.491,o),
(1142,121,c),
(1337,121,l),
(1337,320,l),
(1148,320,l),
(1097.301,546.81,o),
(907.76,700,o),
(675,700,cs),
(519.555,700,o),
(370.565,609.226,o),
(297,490,c),
(246.123,469.649,o),
(188,441.076,o),
(188,398,cs),
(188,384.667,o),
(194,375,o),
(202,375,cs),
(269.865,375,o),
(275.111,485,o),
(305,485,c),
(336,497,l),
(336,502,l),
(308,493,l),
(381.828,601.105,o),
(525.339,676,o),
(657,676,cs),
(872.451,676,o),
(1051.622,535.013,o),
(1100,320,c),
(919,320,l),
(880.647,435.06,o),
(781.388,508,o),
(668,508,cs),
(589.333,508,o),
(511,463.667,o),
(463,405,c),
(448.333,410.333,o),
(429.333,415,o),
(416,415,cs),
(332.198,415,o),
(292.586,367.656,o),
(265,318,c),
(1,318,l),
(1,121,l),
(239,121,l),
(263.026,-73.879,o),
(433.619,-226,o),
(681,-226,cs)
);
},
{
closed = 1;
nodes = (
(34,291,l),
(180.667,291,o),
(254,291,o),
(254,291,c),
(235.333,243,o),
(230.333,199,o),
(237,135,c),
(34,135,l)
);
},
{
closed = 1;
nodes = (
(238.227,203.96,o),
(243.315,242.484,o),
(269,291,c),
(408,291,l),
(399.665,243.769,o),
(400.066,221.152,o),
(410,169,c),
(350.341,136.459,o),
(304.219,136.531,o),
(246,134,c)
);
},
{
closed = 1;
nodes = (
(649,-16,o),
(639,-15.333,o),
(629,-14,c),
(643,-11.333,o),
(655.5,-7,o),
(666.5,-1,cs),
(677.5,5,o),
(686.667,8,o),
(694,8,cs),
(700.667,8,o),
(706,4.667,o),
(706,-2,cs),
(706,-14,o),
(692.333,-16,o),
(679,-16,cs),
(659,-16,ls)
);
},
{
closed = 1;
nodes = (
(193,368.513,o),
(232.941,384.839,o),
(261,418,cs),
(271.667,431.333,o),
(277,442.5,o),
(281,452.5,cs),
(287,467,ls),
(289,471.667,o),
(291.667,477,o),
(295,483,c),
(295,481.634,o),
(193,452.116,o),
(193,397,cs)
);
},
{
closed = 1;
nodes = (
(416.712,220.205,o),
(427.545,270.364,o),
(430,290,c),
(497,290,l),
(491.574,249.308,o),
(481.779,219.875,o),
(425,176,c)
);
},
{
closed = 1;
nodes = (
(451.622,-211,o),
(278.818,-75.212,o),
(247,121,c),
(337.119,121,o),
(379.456,136.728,o),
(416,155,c),
(420.5,144.5,ls),
(426.5,130.5,o),
(438.167,105.833,o),
(457.5,78.5,cs),
(486.771,37.117,o),
(537.431,-5.652,o),
(601,-15,c),
(555,-32,l),
(555,-38,l),
(596,-24,ls),
(619.659,-16.114,o),
(631.657,-23,o),
(678,-23,cs),
(704.667,-23,o),
(713,-14,o),
(713,-2,cs),
(713,8.667,o),
(703.333,16,o),
(694,16,c),
(665.547,5.653,o),
(650.267,-5.45,o),
(610,-13,c),
(512.667,13.667,o),
(461.333,63.667,o),
(428,161,c),
(478.527,193.482,o),
(506.837,229.08,o),
(519,260.5,cs),
(530,290,l),
(681,290,l),
(482,123,l),
(675,123,l),
(683,63,o),
(719,21,o),
(775,21,cs),
(841.667,21,o),
(882,61.333,o),
(914,124,c),
(1093,124,l),
(1031.225,-77.44,o),
(855.056,-211,o),
(650,-211,cs)
);
},
{
closed = 1;
nodes = (
(319.2,382.666,o),
(413.789,404.699,o),
(445,382,c),
(430.333,362,o),
(419.333,343,o),
(414,319,c),
(281,319,l)
);
},
{
closed = 1;
nodes = (
(448.667,342.667,o),
(455.667,353.667,o),
(469,367,c),
(493,352.333,o),
(493.333,338.667,o),
(496,320,c),
(438,320,l)
);
},
{
closed = 1;
nodes = (
(746.667,47,o),
(711,72.333,o),
(699,123,c),
(903,123,l),
(880.333,77.667,o),
(837.333,47,o),
(796,47,cs)
);
},
{
closed = 1;
nodes = (
(728,319,l),
(531,319,l),
(531,345.667,o),
(514.333,373.333,o),
(493,388,c),
(539.667,432,o),
(607,468,o),
(671,468,cs),
(768.23,468,o),
(854.796,405.338,o),
(891,320,c),
(740.471,320,o),
(685.027,233.721,o),
(675,151,c),
(529,151,l)
);
},
{
closed = 1;
nodes = (
(704.07,219.444,o),
(743.495,309,o),
(895,309,c),
(910.66,282.899,o),
(926.62,232.717,o),
(913,151,c),
(699,151,l)
);
},
{
closed = 1;
nodes = (
(932,198.667,o),
(935.333,244,o),
(922,308,c),
(1101,308,l),
(1107.667,256,o),
(1114,205.333,o),
(1098,152,c),
(924,152,l)
);
},
{
closed = 1;
nodes = (
(1154,195.5,ls),
(1155.333,207.167,o),
(1156,218.333,o),
(1156,229,cs),
(1156,251.667,o),
(1154,273,o),
(1150,309,c),
(1308,309,l),
(1308,153,l),
(1149,153,l)
);
}
);
width = 1339;
}
);
unicode = 947;
},
{
color = 4;
glyphname = mu;
kernLeft = p;
kernRight = u;
lastChange = "2026-06-26 08:24:29 +0000";
layers = (
{
layerId = m001;
shapes = (
{
closed = 1;
nodes = (
(372,475,l),
(372,129,l),
(351,104,o),
(313,85,o),
(258,85,cs),
(182,85,o),
(140,130,o),
(140,206,cs),
(140,475,l),
(40,475,l),
(40,-112,l),
(140,-112,l),
(140,56,l),
(116,45,l),
(149,6,o),
(182,-10,o),
(236,-10,cs),
(292,-10,o),
(338,5,o),
(372,30,c),
(372,0,l),
(472,0,l),
(472,475,l)
);
}
);
width = 523;
}
);
metricLeft = u;
metricRight = u;
unicode = 956;
},
{
color = 8;
glyphname = zero;
kernLeft = zero;
kernRight = zero;
lastChange = "2026-06-26 08:24:29 +0000";
layers = (
{
layerId = m001;
shapes = (
{
closed = 1;
nodes = (
(374.667,-9,o),
(430.667,21,o),
(472,81,cs),
(513.333,141,o),
(538,231.667,o),
(538,353,cs),
(538,459.667,o),
(513.333,547,o),
(472,607,cs),
(430.667,667,o),
(374.667,700,o),
(312,700,cs),
(249.333,700,o),
(193.333,667,o),
(152,607,cs),
(110.667,547,o),
(86,459.667,o),
(86,353,cs),
(86,231.667,o),
(110.667,141,o),
(152,81,cs),
(193.333,21,o),
(249.333,-9,o),
(312,-9,cs)
);
},
{
closed = 1;
nodes = (
(232.864,91,o),
(186,214.974,o),
(186,353,cs),
(186,481.7,o),
(223.34,600,o),
(312,600,cs),
(400.66,600,o),
(438,481.7,o),
(438,353,cs),
(438,213.821,o),
(390.329,91,o),
(312,91,cs)
);
}
);
width = 620;
}
);
unicode = 48;
},
{
color = 8;
glyphname = one;
kernLeft = one;
kernRight = one;
lastChange = "2026-06-26 08:24:29 +0000";
layers = (
{
layerId = m001;
shapes = (
{
closed = 1;
nodes = (
(205,0,l),
(205,723,l),
(105,606,l),
(105,0,l)
);
}
);
width = 310;
}
);
unicode = 49;
},
{
color = 8;
glyphname = two;
kernLeft = two;
kernRight = two;
lastChange = "2026-06-26 08:24:29 +0000";
layers = (
{
layerId = m001;
shapes = (
{
closed = 1;
nodes = (
(516,-1,l),
(516,99,l),
(286,99,l),
(447,363,ls),
(476.333,411,o),
(495.333,455.333,o),
(494,526,cs),
(494,626.753,o),
(404.369,715,o),
(288,715,cs),
(217.333,715,o),
(154.333,684.667,o),
(109,638,c),
(109,469,l),
(134.6,512.52,o),
(195.283,615,o),
(286,615,cs),
(340.667,615,o),
(381,579.333,o),
(389,526,c),
(389,491.333,o),
(379.333,449.333,o),
(366,420,c),
(106,-1,l)
);
}
);
width = 620;
}
);
unicode = 50;
},
{
color = 8;
glyphname = three;
kernLeft = three;
kernRight = three;
lastChange = "2026-06-26 08:24:29 +0000";
layers = (
{
layerId = m001;
shapes = (
{
closed = 1;
nodes = (
(431.081,-10,o),
(539,88.435,o),
(539,209,cs),
(539,309.998,o),
(470.854,397.715,o),
(374,430,c),
(529,700,l),
(94,700,l),
(94,601,l),
(357,601,l),
(208,344,l),
(232,346.667,o),
(264.667,348,o),
(290,348,cs),
(367.744,348,o),
(430,285.77,o),
(430,209,cs),
(430,145.176,o),
(374.208,90,o),
(301,90,cs),
(237,90,o),
(183.667,127,o),
(161,183,c),
(85,119,l),
(126.333,41.667,o),
(206.333,-10,o),
(301,-10,cs)
);
}
);
width = 620;
}
);
unicode = 51;
},
{
color = 8;
glyphname = four;
kernLeft = four;
kernRight = four;
lastChange = "2026-06-26 08:24:29 +0000";
layers = (
{
layerId = m001;
shapes = (
{
closed = 1;
nodes = (
(456,0,l),
(456,199,l),
(618,199,l),
(618,299,l),
(455,299,l),
(455,735,l),
(6,199,l),
(356,199,l),
(356,0,l)
);
},
{
closed = 1;
nodes = (
(356,461,l),
(356,299,l),
(221,299,l)
);
}
);
width = 620;
}
);
unicode = 52;
},
{
color = 8;
glyphname = five;
kernLeft = five;
kernRight = five;
lastChange = "2026-06-26 08:24:29 +0000";
layers = (
{
layerId = m001;
shapes = (
{
closed = 1;
nodes = (
(403.689,-10,o),
(509,96.013,o),
(509,224,cs),
(509,344.638,o),
(401.349,453.716,o),
(254,443,c),
(274,600,l),
(469,600,l),
(537,700,l),
(189,700,l),
(139,327,l),
(165.667,337,o),
(188.167,342.5,o),
(206.5,343.5,cs),
(243.863,345.538,o),
(283.17,348.566,o),
(318,334.5,cs),
(369.301,313.782,o),
(405,268.433,o),
(405,212,cs),
(405,144.322,o),
(345.232,90,o),
(277,90,cs),
(217,90,o),
(178.667,123.333,o),
(140,174,c),
(82,91,l),
(124.667,28.333,o),
(193,-10,o),
(273,-10,cs)
);
}
);
width = 620;
}
);
unicode = 53;
},
{
color = 8;
glyphname = six;
kernLeft = six;
kernRight = six;
lastChange = "2026-06-26 08:24:29 +0000";
layers = (
{
layerId = m001;
shapes = (
{
closed = 1;
nodes = (
(428.516,-1,o),
(526,96.952,o),
(526,217,cs),
(526,336.6,o),
(431.14,433,o),
(319,433,cs),
(288.333,433,o),
(256.333,425.333,o),
(227,412,c),
(273.667,530.667,o),
(364,635,o),
(464,715,c),
(350,715,l),
(191.437,608.38,o),
(93,419.468,o),
(93,243,cs),
(93,111.294,o),
(191.35,-1,o),
(314,-1,cs)
);
},
{
closed = 1;
nodes = (
(250.029,99,o),
(193,161.398,o),
(193,243,cs),
(193,266,ls),
(193,274,o),
(193.667,282,o),
(195,290,c),
(225.667,318,o),
(268.333,334,o),
(319,334,cs),
(376.051,334,o),
(426,283.948,o),
(426,219,cs),
(426,152.342,o),
(376.689,99,o),
(319,99,cs)
);
}
);
width = 620;
}
);
unicode = 54;
},
{
color = 8;
glyphname = seven;
kernLeft = seven;
kernRight = seven;
lastChange = "2026-06-26 08:24:29 +0000";
layers = (
{
layerId = m001;
shapes = (
{
closed = 1;
nodes = (
(190,-1,l),
(546,700,l),
(83,700,l),
(83,600,l),
(386,600,l),
(79,-1,l)
);
}
);
width = 620;
}
);
unicode = 55;
},
{
color = 8;
glyphname = eight;
kernLeft = eight;
kernRight = eight;
lastChange = "2026-06-26 08:24:29 +0000";
layers = (
{
layerId = m001;
shapes = (
{
closed = 1;
nodes = (
(427.533,-9,o),
(524,85.533,o),
(524,201,cs),
(524,295.461,o),
(462.694,347.009,o),
(402,390,c),
(451.333,426,o),
(490,472,o),
(490,548,cs),
(490,646.193,o),
(409.99,729,o),
(311,729,cs),
(212.01,729,o),
(132,646.193,o),
(132,548,cs),
(132,472,o),
(168.667,427,o),
(218,391,c),
(156.547,347.471,o),
(98,294.044,o),
(98,201,cs),
(98,85.533,o),
(194.467,-9,o),
(311,-9,cs)
);
},
{
closed = 1;
nodes = (
(248.286,91,o),
(197,139.695,o),
(197,201,cs),
(197,265.667,o),
(248.864,298.581,o),
(311,331,c),
(371.306,298.106,o),
(424,265.546,o),
(424,202,cs),
(424,138.686,o),
(371.804,91,o),
(311,91,cs)
);
},
{
closed = 1;
nodes = (
(264.667,480.667,o),
(232,509.333,o),
(232,548,cs),
(232,655.154,o),
(390,655.154,o),
(390,548,cs),
(390,508,o),
(355.333,479.333,o),
(310,450,c)
);
}
);
width = 620;
}
);
unicode = 56;
},
{
color = 8;
glyphname = nine;
kernLeft = nine;
kernRight = nine;
lastChange = "2026-06-26 08:24:29 +0000";
layers = (
{
layerId = m001;
shapes = (
{
closed = 1;
nodes = (
(272,-17,l),
(419.501,101.528,o),
(542,260.92,o),
(542,451,cs),
(542,590.227,o),
(435.85,701,o),
(307,701,cs),
(182.267,701,o),
(79,602.4,o),
(79,483,cs),
(79,352.44,o),
(178.568,252,o),
(295,252,cs),
(329.667,252,o),
(364,263,o),
(396,279,c),
(347.526,163.201,o),
(227.603,43.802,o),
(144,-17,c)
);
},
{
closed = 1;
nodes = (
(236.299,354,o),
(179,407.71,o),
(179,470,cs),
(179,539.4,o),
(234.673,601,o),
(305,601,cs),
(383.186,601,o),
(443,534.645,o),
(443,450,cs),
(443,435.333,o),
(443.333,419.667,o),
(438,405,c),
(406,373,o),
(361.667,354,o),
(311,354,cs)
);
}
);
width = 620;
}
);
unicode = 57;
},
{
color = 4;
glyphname = period;
kernLeft = period;
kernRight = period;
lastChange = "2026-06-29 07:45:25 +0000";
layers = (
{
layerId = m001;
shapes = (
{
closed = 1;
nodes = (
(160,0,l),
(160,97,l),
(60,97,l),
(60,0,l)
);
}
);
width = 220;
}
);
unicode = 46;
userData = {
KernOnSpecialSpacing = {
L = period;
R = period;
};
};
},
{
color = 4;
glyphname = comma;
kernLeft = period;
kernRight = period;
lastChange = "2026-06-29 07:45:30 +0000";
layers = (
{
layerId = m001;
shapes = (
{
closed = 1;
nodes = (
(146,-143,o),
(217,-86,o),
(217,-8,c),
(217,92,l),
(117,92,l),
(117,-8,ls),
(117,-87,o),
(95,-120,o),
(60,-132,c),
(60,-143,l)
);
}
);
width = 277;
}
);
metricLeft = period;
metricRight = period;
unicode = 44;
userData = {
KernOnSpecialSpacing = {
L = period;
R = period;
};
};
},
{
color = 8;
glyphname = colon;
kernLeft = colon;
kernRight = colon;
lastChange = "2026-06-29 07:45:41 +0000";
layers = (
{
layerId = m001;
shapes = (
{
closed = 1;
nodes = (
(160,342,l),
(160,440,l),
(60,440,l),
(60,342,l)
);
},
{
closed = 1;
nodes = (
(160,2,l),
(160,100,l),
(60,100,l),
(60,2,l)
);
}
);
width = 220;
}
);
metricLeft = period;
metricRight = period;
unicode = 58;
userData = {
KernOnSpecialSpacing = {
L = "spaced-off";
R = "spaced-off";
};
};
},
{
color = 8;
glyphname = semicolon;
kernLeft = colon;
kernRight = colon;
lastChange = "2026-06-29 07:45:46 +0000";
layers = (
{
layerId = m001;
shapes = (
{
closed = 1;
nodes = (
(146,-143,o),
(217,-86,o),
(217,-8,c),
(217,100,l),
(117,100,l),
(117,-8,ls),
(117,-87,o),
(95,-120,o),
(60,-132,c),
(60,-143,l)
);
},
{
closed = 1;
nodes = (
(217,342,l),
(217,440,l),
(117,440,l),
(117,342,l)
);
}
);
width = 277;
}
);
metricLeft = period;
metricRight = period;
unicode = 59;
userData = {
KernOnSpecialSpacing = {
L = "spaced-off";
R = "spaced-off";
};
};
},
{
color = 8;
glyphname = exclam;
kernLeft = exclam;
kernRight = exclam;
lastChange = "2026-06-29 07:45:57 +0000";
layers = (
{
layerId = m001;
shapes = (
{
closed = 1;
nodes = (
(156,156,l),
(177,612,l),
(177,700,l),
(77,700,l),
(77,612,l),
(100,156,l)
);
},
{
closed = 1;
nodes = (
(200,53,l),
(128,122,l),
(60,54,l),
(132,-15,l)
);
}
);
width = 260;
}
);
metricLeft = period;
metricRight = period;
unicode = 33;
userData = {
KernOnSpecialSpacing = {
L = "spaced-off";
};
};
},
{
color = 8;
glyphname = exclamdown;
kernLeft = exclam;
kernRight = exclam;
lastChange = "2026-06-29 07:46:01 +0000";
layers = (
{
layerId = m001;
shapes = (
{
closed = 1;
nodes = (
(183,-15,l),
(183,73,l),
(160,529,l),
(104,529,l),
(83,73,l),
(83,-15,l)
);
},
{
closed = 1;
nodes = (
(200,631,l),
(128,700,l),
(60,632,l),
(132,563,l)
);
}
);
width = 260;
}
);
metricLeft = period;
metricRight = period;
unicode = 161;
userData = {
KernOnSpecialSpacing = {
R = "spaced-off";
};
};
},
{
color = 8;
glyphname = question;
kernLeft = quesion;
kernRight = question;
lastChange = "2026-06-29 07:46:36 +0000";
layers = (
{
layerId = m001;
shapes = (
{
closed = 1;
nodes = (
(289,218,l),
(274,233,ls),
(257,248,o),
(244,263,o),
(244,290,cs),
(245,315,o),
(266,333,o),
(293,351,cs),
(336,380,ls),
(378,408,o),
(423,457,o),
(419,540,cs),
(414,644,o),
(337,715,o),
(231,715,cs),
(122,715,o),
(50,646,o),
(30,584,c),
(114,531,l),
(130,592,o),
(175,615,o),
(224,615,cs),
(279,615,o),
(319,579,o),
(319,534,c),
(323,491,o),
(279,455,o),
(230,418,cs),
(182,381,o),
(136,336,o),
(138,283,cs),
(141,215,o),
(186,188,o),
(216,149,c)
);
},
{
closed = 1;
nodes = (
(285,59,l),
(215,130,l),
(145,59,l),
(215,-11,l)
);
}
);
width = 449;
}
);
unicode = 63;
userData = {
KernOnSpecialSpacing = {
L = "spaced-off";
};
};
},
{
color = 8;
glyphname = questiondown;
kernLeft = questiondown;
kernRight = questiondown;
lastChange = "2026-06-29 07:46:51 +0000";
layers = (
{
layerId = m001;
shapes = (
{
closed = 1;
nodes = (
(327,-11,o),
(399,58,o),
(419,120,c),
(335,173,l),
(319,112,o),
(275,89,o),
(225,89,cs),
(171,89,o),
(130,125,o),
(130,170,c),
(127,213,o),
(170,249,o),
(219,287,cs),
(267,323,o),
(313,368,o),
(311,421,cs),
(309,489,o),
(264,516,o),
(233,555,c),
(160,486,l),
(176,471,ls),
(192,456,o),
(205,441,o),
(205,414,cs),
(204,389,o),
(183,372,o),
(156,354,cs),
(113,325,ls),
(71,296,o),
(26,247,o),
(30,164,cs),
(36,60,o),
(112,-11,o),
(218,-11,cs)
);
},
{
closed = 1;
nodes = (
(304,645,l),
(234,715,l),
(164,645,l),
(234,574,l)
);
}
);
width = 449;
}
);
metricLeft = "=|question";
metricRight = "=|question";
unicode = 191;
userData = {
KernOnSpecialSpacing = {
R = "spaced-off";
};
};
},
{
color = 8;
glyphname = periodcentered;
kernLeft = hyphen;
kernRight = hyphen;
lastChange = "2026-06-29 07:46:12 +0000";
layers = (
{
anchors = (
{
name = _center;
pos = (108,279);
}
);
layerId = m001;
shapes = (
{
closed = 1;
nodes = (
(160,231,l),
(160,328,l),
(60,328,l),
(60,231,l)
);
}
);
width = 220;
}
);
metricLeft = period;
metricRight = period;
unicode = 183;
userData = {
KernOnSpecialSpacing = {
L = NoKerning;
R = NoKerning;
};
};
},
{
color = 8;
glyphname = asterisk;
kernLeft = asterisk;
kernRight = asterisk;
lastChange = "2026-06-29 07:46:17 +0000";
layers = (
{
layerId = m001;
shapes = (
{
closed = 1;
nodes = (
(297,328,l),
(265,493,l),
(392,385,l),
(437,467,l),
(279,522,l),
(436,579,l),
(389,658,l),
(266,546,l),
(297,715,l),
(202,715,l),
(235,544,l),
(105,655,l),
(60,574,l),
(220,518,l),
(60,459,l),
(107,381,l),
(234,490,l),
(205,326,l)
);
}
);
width = 497;
}
);
metricLeft = period;
metricRight = period;
unicode = 42;
userData = {
KernOnSpecialSpacing = {
L = quotes;
R = quotes;
};
};
},
{
color = 8;
glyphname = numbersign;
kernLeft = numbersign;
kernRight = numbersign;
lastChange = "2026-06-29 07:47:14 +0000";
layers = (
{
layerId = m001;
shapes = (
{
closed = 1;
nodes = (
(205,87,l),
(243,229,l),
(371,229,l),
(334,87,l),
(381,87,l),
(419,229,l),
(552,229,l),
(565,273,l),
(430,273,l),
(464,396,l),
(597,396,l),
(608,443,l),
(476,443,l),
(514,580,l),
(465,580,l),
(428,443,l),
(300,443,l),
(337,580,l),
(290,580,l),
(253,443,l),
(116,443,l),
(104,396,l),
(240,396,l),
(207,273,l),
(72,273,l),
(60,229,l),
(195,229,l),
(156,87,l)
);
},
{
closed = 1;
nodes = (
(288,396,l),
(416,396,l),
(384,273,l),
(255,273,l)
);
}
);
width = 668;
}
);
metricLeft = period;
metricRight = period;
unicode = 35;
},
{
color = 8;
glyphname = slash;
kernLeft = slash;
kernRight = slash;
lastChange = "2026-06-29 07:47:29 +0000";
layers = (
{
layerId = m001;
shapes = (
{
closed = 1;
nodes = (
(140,-148,l),
(336,828,l),
(233,828,l),
(30,-148,l)
);
}
);
width = 366;
}
);
unicode = 47;
userData = {
KernOnSpecialSpacing = {
L = slash;
R = slash;
};
};
},
{
color = 8;
glyphname = backslash;
kernLeft = backslash;
kernRight = backslash;
lastChange = "2026-06-29 07:47:32 +0000";
layers = (
{
layerId = m001;
shapes = (
{
closed = 1;
nodes = (
(336,-148,l),
(133,828,l),
(30,828,l),
(226,-148,l)
);
}
);
width = 366;
}
);
unicode = 92;
userData = {
KernOnSpecialSpacing = {
L = "spaced-off";
R = "spaced-off";
};
};
},
{
color = 8;
glyphname = hyphen;
kernLeft = hyphen;
kernRight = hyphen;
lastChange = "2026-06-29 07:47:42 +0000";
layers = (
{
layerId = m001;
shapes = (
{
closed = 1;
nodes = (
(371,220,l),
(371,330,l),
(60,330,l),
(60,220,l)
);
}
);
width = 431;
}
);
metricLeft = period;
metricRight = period;
unicode = 45;
userData = {
KernOnSpecialSpacing = {
L = hyphen;
R = hyphen;
};
};
},
{
color = 8;
glyphname = endash;
kernLeft = hyphen;
kernRight = hyphen;
lastChange = "2026-06-29 07:47:48 +0000";
layers = (
{
layerId = m001;
shapes = (
{
closed = 1;
nodes = (
(560,168,l),
(560,268,l),
(60,268,l),
(60,168,l)
);
}
);
width = 620;
}
);
metricLeft = period;
metricRight = period;
unicode = 8211;
userData = {
KernOnSpecialSpacing = {
L = dashes;
R = dashes;
};
};
},
{
color = 8;
glyphname = emdash;
kernLeft = hyphen;
kernRight = hyphen;
lastChange = "2026-06-26 08:32:08 +0000";
layers = (
{
layerId = m001;
shapes = (
{
closed = 1;
nodes = (
(750,168,l),
(750,268,l),
(0,268,l),
(0,168,l)
);
}
);
width = 750;
}
);
unicode = 8212;
userData = {
KernOnSpecialSpacing = {
L = dashes;
R = dashes;
};
};
},
{
color = 8;
glyphname = underscore;
kernLeft = period;
kernRight = period;
lastChange = "2026-06-29 07:47:54 +0000";
layers = (
{
layerId = m001;
shapes = (
{
closed = 1;
nodes = (
(634,-94,l),
(636,-91,l),
(636,-2,l),
(633,0,l),
(3,0,l),
(0,-4,l),
(0,-88,ls),
(0,-92,o),
(1,-94,o),
(4,-94,cs)
);
}
);
width = 636;
}
);
unicode = 95;
userData = {
KernOnSpecialSpacing = {
L = underscore;
R = underscore;
};
};
},
{
color = 8;
glyphname = parenleft;
kernLeft = parenleft;
kernRight = parenleft;
lastChange = "2026-06-29 07:48:07 +0000";
layers = (
{
layerId = m001;
shapes = (
{
closed = 1;
nodes = (
(197,-235,o),
(230,-235,o),
(230,-235,c),
(170,-94,o),
(130,73,o),
(130,285,cs),
(130,497,o),
(168,661,o),
(227,807,c),
(129,807,l),
(68,664,o),
(30,494,o),
(30,285,cs),
(30,73,o),
(70,-94,o),
(130,-235,c)
);
}
);
width = 260;
}
);
unicode = 40;
userData = {
KernOnSpecialSpacing = {
R = parenthesis;
};
};
},
{
color = 8;
glyphname = parenright;
kernLeft = parenright;
kernRight = parenright;
lastChange = "2026-06-29 07:48:11 +0000";
layers = (
{
layerId = m001;
shapes = (
{
closed = 1;
nodes = (
(130,-235,l),
(191,-91,o),
(233,67,o),
(233,287,cs),
(233,502,o),
(194,658,o),
(131,807,c),
(33,807,l),
(94,656,o),
(133,500,o),
(133,287,cs),
(133,67,o),
(91,-91,o),
(30,-235,c)
);
}
);
width = 263;
}
);
unicode = 41;
userData = {
KernOnSpecialSpacing = {
L = parenthesis;
};
};
},
{
color = 8;
glyphname = bracketleft;
kernLeft = parenleft;
kernRight = parenleft;
lastChange = "2026-06-29 07:48:15 +0000";
layers = (
{
layerId = m001;
shapes = (
{
closed = 1;
nodes = (
(214,-82,ls),
(217,-82,o),
(218,-81,o),
(218,-79,cs),
(218,8,ls),
(218,11,o),
(217,12,o),
(215,12,cs),
(124,12,l),
(124,701,l),
(133,704,l),
(214,704,ls),
(217,704,o),
(218,705,o),
(218,708,cs),
(218,795,ls),
(218,798,o),
(217,799,o),
(214,799,cs),
(34,799,ls),
(32,799,o),
(31,798,o),
(30,795,c),
(30,-79,l),
(35,-82,l)
);
}
);
width = 248;
}
);
unicode = 91;
userData = {
KernOnSpecialSpacing = {
L = NoKerning;
R = parenthesis;
};
};
},
{
color = 8;
glyphname = bracketright;
kernLeft = parenright;
kernRight = parenright;
lastChange = "2026-06-29 07:48:18 +0000";
layers = (
{
layerId = m001;
shapes = (
{
closed = 1;
nodes = (
(214,-81,ls),
(215.333,-81,o),
(216.667,-80,o),
(218,-78,c),
(218,796,l),
(214,800,l),
(34,800,ls),
(31.333,800,o),
(30,798.667,o),
(30,796,cs),
(30,709,ls),
(30,706.333,o),
(31.333,705,o),
(34,705,cs),
(118,705,l),
(123.333,703,o),
(125.333,702,o),
(124,702,c),
(124,13,l),
(34,13,ls),
(31.333,13,o),
(30,11.667,o),
(30,9,cs),
(30,-78,ls),
(30,-80,o),
(31.333,-81,o),
(34,-81,cs)
);
}
);
width = 248;
}
);
unicode = 93;
userData = {
KernOnSpecialSpacing = {
L = parenthesis;
R = NoKerning;
};
};
},
{
color = 8;
glyphname = quotedblleft;
kernLeft = quoteleft;
kernRight = quoteleft;
lastChange = "2026-06-29 07:48:42 +0000";
layers = (
{
layerId = m001;
shapes = (
{
closed = 1;
nodes = (
(160,456,l),
(160,564,ls),
(160,646,o),
(183,674,o),
(217,688,c),
(217,699,l),
(128,699,o),
(60,639,o),
(60,564,cs),
(60,456,l)
);
},
{
closed = 1;
nodes = (
(348,480,l),
(348,564,ls),
(348,646,o),
(371,674,o),
(405,688,c),
(405,699,l),
(317,699,o),
(247,640,o),
(247,564,cs),
(247,480,l)
);
}
);
width = 465;
}
);
metricLeft = period;
metricRight = period;
unicode = 8220;
userData = {
KernOnSpecialSpacing = {
L = quotes;
R = quotes;
};
};
},
{
color = 8;
glyphname = quotedblright;
kernLeft = quoteright;
kernRight = quoteright;
lastChange = "2026-06-29 07:48:47 +0000";
layers = (
{
layerId = m001;
shapes = (
{
closed = 1;
nodes = (
(146,457,o),
(217,514,o),
(217,592,c),
(217,700,l),
(117,700,l),
(117,592,ls),
(117,513,o),
(95,480,o),
(60,468,c),
(60,457,l)
);
},
{
closed = 1;
nodes = (
(323,481,o),
(398,536,o),
(398,616,c),
(398,700,l),
(297,700,l),
(297,616,ls),
(297,537,o),
(275,504,o),
(240,492,c),
(240,481,l)
);
}
);
width = 458;
}
);
metricLeft = period;
metricRight = period;
unicode = 8221;
userData = {
KernOnSpecialSpacing = {
L = quotes;
R = quotes;
};
};
},
{
color = 8;
glyphname = quoteleft;
kernLeft = quoteleft;
kernRight = quoteleft;
lastChange = "2026-06-29 07:48:52 +0000";
layers = (
{
layerId = m001;
shapes = (
{
closed = 1;
nodes = (
(160,456,l),
(160,564,ls),
(160,646,o),
(183,674,o),
(217,688,c),
(217,699,l),
(128,699,o),
(60,639,o),
(60,564,cs),
(60,456,l)
);
}
);
width = 277;
}
);
metricLeft = period;
metricRight = period;
unicode = 8216;
userData = {
KernOnSpecialSpacing = {
L = quotes;
R = quotes;
};
};
},
{
color = 8;
glyphname = quoteright;
kernLeft = quoteright;
kernRight = quoteright;
lastChange = "2026-06-29 07:48:56 +0000";
layers = (
{
layerId = m001;
shapes = (
{
closed = 1;
nodes = (
(146,457,o),
(217,514,o),
(217,592,c),
(217,700,l),
(117,700,l),
(117,592,ls),
(117,513,o),
(95,480,o),
(60,468,c),
(60,457,l)
);
}
);
width = 277;
}
);
metricLeft = period;
metricRight = period;
unicode = 8217;
userData = {
KernOnSpecialSpacing = {
L = quotes;
R = quotes;
};
};
},
{
color = 8;
glyphname = quotedbl;
kernLeft = quotesingle;
kernRight = quotesingle;
lastChange = "2026-06-29 07:49:06 +0000";
layers = (
{
layerId = m001;
shapes = (
{
closed = 1;
nodes = (
(146,457,o),
(217,514,o),
(217,592,c),
(217,700,l),
(117,700,l),
(117,592,ls),
(117,513,o),
(95,480,o),
(60,468,c),
(60,457,l)
);
},
{
closed = 1;
nodes = (
(323,481,o),
(398,536,o),
(398,616,c),
(398,700,l),
(297,700,l),
(297,616,ls),
(297,537,o),
(275,504,o),
(240,492,c),
(240,481,l)
);
}
);
width = 458;
}
);
metricLeft = period;
metricRight = period;
unicode = 34;
userData = {
KernOnSpecialSpacing = {
L = quotes;
R = quotes;
};
};
},
{
color = 8;
glyphname = at;
kernLeft = at;
kernRight = at;
lastChange = "2026-06-26 08:32:08 +0000";
layers = (
{
layerId = m001;
shapes = (
{
closed = 1;
nodes = (
(524.068,-16.034,l),
(524.426,-14.606,ls),
(524.533,-14.179,o),
(524.856,-13.239,o),
(525.396,-11.785,cs),
(525.935,-10.332,o),
(526.705,-8.336,o),
(527.706,-5.796,cs),
(530.718,1.848,o),
(535.384,13.342,o),
(542.31,30.042,cs),
(547.934,43.607,o),
(552.504,54.491,o),
(556.019,62.692,cs),
(559.534,70.893,o),
(561.94,76.29,o),
(563.236,78.882,cs),
(565.575,83.56,l),
(560.466,82.442,ls),
(517.926,73.137,o),
(479.888,67.488,o),
(446.352,65.495,cs),
(412.975,63.514,o),
(376.396,67.646,o),
(336.625,77.921,cs),
(257.373,98.393,o),
(183.225,155.841,o),
(146.856,258.336,cs),
(128.657,309.625,o),
(126.552,359.331,o),
(140.404,407.813,cs),
(168.157,504.95,o),
(242.977,579.763,o),
(351.97,603.543,cs),
(460.962,627.324,o),
(586.378,569.488,o),
(645.819,467.776,cs),
(668.911,424.892,o),
(678.273,386.342,o),
(674.02,352.311,cs),
(665.5,284.152,o),
(615.707,236.893,o),
(557.056,239.5,cs),
(545.524,239.5,o),
(537.99,248.645,o),
(534.463,268.929,cs),
(533.171,276.358,o),
(532.713,286.59,o),
(533.128,299.438,cs),
(533.295,304.569,o),
(533.528,309.153,o),
(533.812,312.946,cs),
(534.245,318.726,o),
(534.787,322.848,o),
(535.491,326.208,cs),
(534.837,334.06,o),
(535.336,346.746,o),
(536.989,364.266,cs),
(538.664,382.022,o),
(539.335,398.449,o),
(538.999,413.556,cs),
(538.702,426.921,o),
(536.077,439.59,o),
(531.154,451.486,cs),
(523.571,469.809,o),
(510.981,485.7,o),
(493.387,500.08,cs),
(464.838,519.113,o),
(433.504,528.5,o),
(399.53,528.5,cs),
(365.372,528.5,o),
(332.894,521.397,o),
(300.775,506.141,cs),
(287.373,480.002,o),
(275.986,451.869,o),
(266.613,421.742,cs),
(264.829,416.011,l),
(270.154,418.782,ls),
(318.658,444.031,o),
(350.322,458.631,o),
(365.145,462.584,cs),
(379.714,466.469,o),
(396.117,465.97,o),
(414.354,461.085,cs),
(432.423,456.245,o),
(446.283,446.747,o),
(456,432.5,cs),
(461.247,425.507,o),
(463.323,412.122,o),
(461.699,392.367,c),
(393.492,388.082,o),
(341.15,374.499,o),
(304.672,351.618,cs),
(229.76,304.629,o),
(228.113,209.488,o),
(314.098,157.669,cs),
(335.123,149.53,o),
(357.661,146.476,o),
(381.711,148.509,cs),
(405.661,150.533,o),
(427.551,156.966,o),
(447.768,168.232,cs),
(453.609,174.071,o),
(459.737,178.712,o),
(469.344,184.676,c),
(477.919,173.812,o),
(491.154,164.786,o),
(509.6,157.668,cs),
(529.072,150.152,o),
(553.613,148.297,o),
(582.813,152.02,cs),
(612.241,155.741,o),
(640.799,167.731,o),
(668.488,187.991,cs),
(728.496,232.997,o),
(758.5,298.667,o),
(758.5,385,cs),
(758.5,431.386,o),
(746.542,476.172,o),
(723.205,520.178,cs),
(700.121,563.126,o),
(671.082,598.757,o),
(636.154,627.01,cs),
(583.774,669.38,o),
(518.133,695.23,o),
(439.291,704.483,cs),
(400.007,709.224,o),
(360.499,706.451,o),
(320.394,696.426,cs),
(253.96,679.649,o),
(197.417,648.774,o),
(150.767,603.802,cs),
(57.465,513.856,o),
(18.03,380.457,o),
(47.569,254.921,cs),
(62.337,192.153,o),
(92.045,137.271,o),
(136.691,90.275,cs),
(225.984,-3.718,o),
(392.428,-51.319,o),
(522.647,-16.415,cs)
);
},
{
closed = 1;
nodes = (
(372.93,217.788,o),
(359.491,221.469,o),
(344.472,231.027,c),
(333.637,239.948,o),
(328.878,248.99,o),
(329.495,258.844,cs),
(330.779,277.465,o),
(338.715,291.653,o),
(353.514,301.838,cs),
(359.466,305.935,o),
(366.839,309.579,o),
(375.707,312.784,cs),
(389.017,317.596,o),
(405.479,321.349,o),
(425.334,324.022,cs),
(440.545,326.071,o),
(449.847,327.476,o),
(457.5,328.932,c),
(457.5,241.791,l),
(453.681,240.47,o),
(446.033,237.682,o),
(437.122,234.341,cs),
(426.524,230.366,o),
(418.26,227.556,o),
(412.331,225.909,cs),
(406.447,224.274,o),
(397.21,222.285,o),
(384.789,219.984,cs)
);
}
);
width = 797;
}
);
unicode = 64;
userData = {
KernOnSpecialSpacing = {
L = symbols;
R = symbols;
};
};
},
{
color = 8;
glyphname = ampersand;
kernLeft = ampersand;
kernRight = ampersand;
lastChange = "2026-06-26 08:32:08 +0000";
layers = (
{
layerId = m001;
shapes = (
{
closed = 1;
nodes = (
(284.333,-11,o),
(363.667,29,o),
(409,93,c),
(507,0,l),
(644,0,l),
(472,174,l),
(600,370,l),
(480,370,l),
(400,246,l),
(294,352,l),
(352.656,378.662,o),
(420,433.314,o),
(420,532,cs),
(420,621.669,o),
(338.019,700,o),
(238,700,cs),
(141.141,700,o),
(63,619.691,o),
(63,529,cs),
(63,471.667,o),
(93.333,414,o),
(124,382,c),
(53.333,347.333,o),
(5,281,o),
(5,197,cs),
(5,77.267,o),
(90.485,-3.232,o),
(207,-11,c)
);
},
{
closed = 1;
nodes = (
(154.05,89,o),
(105,136.84,o),
(105,197,cs),
(105,266.213,o),
(168.969,299.082,o),
(198,307,c),
(289.333,214.333,o),
(335,168,o),
(335,168,c),
(308.333,118.667,o),
(259,89,o),
(211,89,cs)
);
},
{
closed = 1;
nodes = (
(186.996,462.004,o),
(163,475.392,o),
(163,529,cs),
(163,566.333,o),
(196.667,600,o),
(238,600,cs),
(283.333,600,o),
(320,568.667,o),
(320,534,cs),
(320,475.091,o),
(267.108,442.549,o),
(217,432,c)
);
}
);
width = 654;
}
);
unicode = 38;
userData = {
KernOnSpecialSpacing = {
L = symbols;
R = symbols;
};
};
},
{
color = 8;
glyphname = paragraph;
kernLeft = paragraph;
kernRight = H;
lastChange = "2026-06-26 08:32:08 +0000";
layers = (
{
layerId = m001;
shapes = (
{
closed = 1;
nodes = (
(306,-60,l),
(306,607,l),
(379,607,l),
(379,-60,l),
(453,-60,l),
(453,607,l),
(509,607,l),
(509,667,l),
(248,667,ls),
(194,667,o),
(152.167,659.167,o),
(122.5,643.5,cs),
(63.167,612.167,o),
(32,553.833,o),
(32,494.5,cs),
(32,382.296,o),
(108.928,313,o),
(216,313,cs),
(233,313,l),
(233,-60,l)
);
}
);
width = 579;
}
);
unicode = 182;
userData = {
KernOnSpecialSpacing = {
L = NoKerning;
R = NoKerning;
};
};
},
{
color = 8;
glyphname = section;
kernLeft = section;
kernRight = section;
lastChange = "2026-06-26 08:32:08 +0000";
layers = (
{
layerId = m001;
shapes = (
{
closed = 1;
nodes = (
(309.5,-145,o),
(344.667,-125.667,o),
(372,-97,cs),
(426.667,-39.667,o),
(443,45.333,o),
(419,116,c),
(491.329,173.864,o),
(506.194,276.929,o),
(477.419,353.212,cs),
(463.032,391.353,o),
(439.747,420.747,o),
(407.563,441.394,cs),
(339.513,485.049,o),
(268.644,505.044,o),
(245,523,cs),
(188.737,565.227,o),
(192.404,606.56,o),
(256,647,cs),
(294.867,670.419,o),
(325.6,656.796,o),
(348.2,606.129,c),
(438,649,l),
(394.672,748.034,o),
(224.782,796.776,o),
(133,678,cs),
(101,637.333,o),
(92.667,588.667,o),
(108,532,cs),
(111.333,519.333,o),
(117,508,o),
(125,498,c),
(103.667,485.333,o),
(85.667,469.667,o),
(71,451,cs),
(39,411,o),
(31,362.333,o),
(47,305,cs),
(57,267.667,o),
(90,234.333,o),
(146,205,cs),
(158,198.333,o),
(176.667,189.5,o),
(202,178.5,cs),
(254.992,155.491,o),
(290.659,132.657,o),
(309,110,cs),
(337,71.333,o),
(330,22,o),
(306,-18,cs),
(286,-50,o),
(251.667,-64.333,o),
(203,-61,cs),
(168.333,-59.667,o),
(133.877,-31.929,o),
(113,14,c),
(28,-21,l),
(30,-27,o),
(39,-44.333,o),
(55,-73,cs),
(96.333,-141,o),
(180.5,-175,o),
(266.5,-155,cs)
);
},
{
closed = 1;
nodes = (
(320.069,238.461,o),
(186.627,295.559,o),
(184,296,c),
(130.575,322.969,o),
(142.575,365.969,o),
(220,425,c),
(248.116,425.164,o),
(283.085,409.056,o),
(324.908,376.678,cs),
(408.553,311.919,o),
(395.377,237.377,o),
(367,209,cs),
(366.333,208.333,o),
(365.5,207.167,o),
(364.5,205.5,cs),
(363.5,203.833,o),
(362.667,202.667,o),
(362,202,c)
);
}
);
width = 517;
}
);
unicode = 167;
userData = {
KernOnSpecialSpacing = {
R = symbols;
};
};
},
{
color = 8;
glyphname = copyright;
kernLeft = O;
kernRight = O;
lastChange = "2026-06-26 08:32:08 +0000";
layers = (
{
layerId = m001;
shapes = (
{
closed = 1;
nodes = (
(596.203,-15,o),
(761,156.05,o),
(761,365,cs),
(761,557.979,o),
(593.303,715,o),
(396,715,cs),
(198.697,715,o),
(31,557.979,o),
(31,365,cs),
(31,156.05,o),
(195.797,-15,o),
(396,-15,cs)
);
},
{
closed = 1;
nodes = (
(448.333,154,o),
(491.267,166.267,o),
(528.6,187.6,c),
(528.6,283.6,l),
(499.8,252.667,o),
(453.667,234,o),
(401.4,234,cs),
(336.78,234,o),
(285.4,286.466,o),
(285.4,350.8,cs),
(285.4,413.493,o),
(337.301,466,o),
(401.4,466,cs),
(453.667,466,o),
(499.8,446.267,o),
(528.6,416.4,c),
(528.6,512.4,l),
(491.267,533.733,o),
(449.133,546,o),
(402.2,546,cs),
(294.858,546,o),
(205.4,457.861,o),
(205.4,351.6,cs),
(205.4,243.706,o),
(292.532,154,o),
(401.4,154,cs)
);
},
{
closed = 1;
nodes = (
(252.267,85,o),
(131,210.933,o),
(131,365,cs),
(131,500.791,o),
(250.867,615,o),
(399,615,cs),
(541.718,615,o),
(661,499.619,o),
(661,362,cs),
(661,210.879,o),
(540.998,85,o),
(401,85,cs)
);
}
);
width = 790;
}
);
unicode = 169;
userData = {
KernOnSpecialSpacing = {
R = symbols;
};
};
},
{
color = 8;
glyphname = registered;
kernLeft = O;
kernRight = O;
lastChange = "2026-06-26 08:32:08 +0000";
layers = (
{
layerId = m001;
shapes = (
{
closed = 1;
nodes = (
(596.203,-15,o),
(761,156.05,o),
(761,365,cs),
(761,557.979,o),
(593.303,715,o),
(396,715,cs),
(198.697,715,o),
(31,557.979,o),
(31,365,cs),
(31,156.05,o),
(195.797,-15,o),
(396,-15,cs)
);
},
{
closed = 1;
nodes = (
(252.267,85,o),
(131,210.933,o),
(131,365,cs),
(131,500.791,o),
(250.867,615,o),
(399,615,cs),
(541.718,615,o),
(661,499.619,o),
(661,362,cs),
(661,210.879,o),
(540.998,85,o),
(401,85,cs)
);
},
{
closed = 1;
nodes = (
(376.7,146,l),
(376.7,384.4,l),
(399.792,434.783,o),
(432.668,442.8,o),
(467.9,442.8,cs),
(481.767,442.8,o),
(510.567,441.2,o),
(541.5,409.2,c),
(541.5,510.8,l),
(520.167,522.533,o),
(496.433,530,o),
(468.7,530,cs),
(437.767,530,o),
(407.367,518,o),
(377.5,494,c),
(377.5,526,l),
(297.5,526,l),
(297.5,146,l)
);
}
);
width = 790;
}
);
unicode = 174;
userData = {
KernOnSpecialSpacing = {
L = superiors;
};
};
},
{
color = 8;
glyphname = trademark;
kernLeft = ordfeminine;
kernRight = ordfeminine;
lastChange = "2026-06-26 08:32:08 +0000";
layers = (
{
layerId = m001;
shapes = (
{
closed = 1;
nodes = (
(209.56,502,l),
(209.56,654.319,l),
(278.72,569.76,l),
(347.88,654.319,l),
(347.88,502,l),
(375.319,502,l),
(375.319,697.72,l),
(347.319,697.72,l),
(278.72,614,l),
(210.12,697.72,l),
(182.12,697.72,l),
(182.12,502,l)
);
},
{
closed = 1;
nodes = (
(103.72,502,l),
(103.72,670,l),
(164.76,670,l),
(164.76,698,l),
(14.681,698,l),
(14.681,670,l),
(75.72,670,l),
(75.72,502,l)
);
}
);
width = 412;
}
);
unicode = 8482;
userData = {
KernOnSpecialSpacing = {
L = superiors;
};
};
},
{
color = 8;
glyphname = degree;
kernLeft = ordfeminine;
kernRight = ordfeminine;
lastChange = "2026-06-26 08:32:08 +0000";
layers = (
{
layerId = m001;
shapes = (
{
closed = 1;
nodes = (
(264,380,o),
(332,449,o),
(332,533,cs),
(332,617,o),
(264,685,o),
(180,685,cs),
(94.667,685,o),
(27,617,o),
(27,533,cs),
(27,449,o),
(94.667,380,o),
(180,380,cs)
);
},
{
closed = 1;
nodes = (
(142.667,467,o),
(113,495.667,o),
(113,533,cs),
(113,569,o),
(142.667,599,o),
(180,599,cs),
(216,599,o),
(246,569,o),
(246,533,cs),
(246,495.667,o),
(216,467,o),
(180,467,cs)
);
}
);
width = 357;
}
);
unicode = 176;
userData = {
KernOnSpecialSpacing = {
L = superiors;
R = superiors;
};
};
},
{
color = 8;
glyphname = bar;
kernLeft = H;
kernRight = H;
lastChange = "2026-06-26 08:32:08 +0000";
layers = (
{
layerId = m001;
shapes = (
{
closed = 1;
nodes = (
(150,0,l),
(150,700,l),
(50,700,l),
(50,0,l)
);
}
);
width = 200;
}
);
unicode = 124;
userData = {
KernOnSpecialSpacing = {
L = NoKerning;
R = NoKerning;
};
};
},
{
color = 8;
glyphname = cent;
kernLeft = o;
kernRight = c;
lastChange = "2026-06-26 08:32:08 +0000";
layers = (
{
layerId = m001;
shapes = (
{
closed = 1;
nodes = (
(288,87.6,ls),
(290.133,87.6,o),
(291.2,88.4,o),
(291.2,90,cs),
(291.2,152.4,l),
(346.133,157.733,o),
(380.267,167.067,o),
(393.6,180.4,c),
(393.6,276.4,l),
(362.814,243.333,o),
(320.414,226.8,o),
(266.4,226.8,cs),
(202.4,226.8,o),
(150.4,278.533,o),
(150.4,343.6,cs),
(150.4,375.067,o),
(161.733,402.133,o),
(184.4,424.8,cs),
(232.676,473.076,o),
(333.716,471.302,o),
(393.6,409.2,c),
(393.6,505.2,l),
(379.979,518.533,o),
(345.845,528.133,o),
(291.2,534,c),
(291.2,594,l),
(288.8,596.4,l),
(219.2,596.4,ls),
(217.067,596.4,o),
(216,595.333,o),
(216,593.2,cs),
(216,532.4,l),
(159.4,517.307,o),
(70.4,447.713,o),
(70.4,344.4,cs),
(70.4,289.505,o),
(92,240.972,o),
(135.2,198.8,cs),
(157.6,176.933,o),
(184.533,161.733,o),
(216,153.2,c),
(216,90,ls),
(216,88.4,o),
(216.8,87.6,o),
(218.4,87.6,cs)
);
}
);
width = 414;
}
);
unicode = 162;
userData = {
KernOnSpecialSpacing = {
L = symbols;
R = symbols;
};
};
},
{
color = 8;
glyphname = dollar;
kernLeft = S;
kernRight = S;
lastChange = "2026-06-26 08:32:08 +0000";
layers = (
{
layerId = m001;
shapes = (
{
closed = 1;
nodes = (
(255,1,ls),
(257.667,1,o),
(259,2.333,o),
(259,5,cs),
(259,99,l),
(315.667,117.867,o),
(357.208,144,o),
(383.625,177.4,cs),
(405.208,204.689,o),
(416,231.555,o),
(416,258,cs),
(416,309.441,o),
(392,346.774,o),
(344,370,cs),
(323.333,380,o),
(301.167,387.5,o),
(277.5,392.5,cs),
(205.682,407.673,o),
(139,416.191,o),
(139,465,cs),
(139,499.667,o),
(170.333,509,o),
(209,509,cs),
(274.857,509,o),
(329.191,488.333,o),
(372,447,c),
(372,562,l),
(356.011,579.667,o),
(317.011,592.667,o),
(255,601,c),
(255,716,ls),
(255,718,o),
(253.667,719,o),
(251,719,cs),
(164,719,ls),
(161.333,719,o),
(160,717.667,o),
(160,715,cs),
(160,602,l),
(118.667,586.667,o),
(70.5,554.833,o),
(52.5,519.5,cs),
(33.463,482.132,o),
(32.512,422.862,o),
(59.5,386,cs),
(83.709,352.933,o),
(123.209,330.267,o),
(178,318,cs),
(245,303,ls),
(286.059,293.808,o),
(317,282,o),
(317,254,cs),
(317,229.037,o),
(301.121,211.704,o),
(269.363,202,cs),
(256.273,198,o),
(236.152,196,o),
(209,196,cs),
(133,196,o),
(68,234,o),
(36,298,c),
(36,163,l),
(77.333,137.867,o),
(120,118.867,o),
(164,106,c),
(165,4,ls),
(165.019,2,o),
(166.019,1,o),
(168,1,cs)
);
}
);
width = 440;
}
);
unicode = 36;
userData = {
KernOnSpecialSpacing = {
L = symbols;
R = symbols;
};
};
},
{
color = 8;
glyphname = euro;
kernLeft = O;
kernRight = C;
lastChange = "2026-06-26 08:32:08 +0000";
layers = (
{
layerId = m001;
shapes = (
{
closed = 1;
nodes = (
(539.667,-12,o),
(622.667,19.333,o),
(660,50,c),
(660,170,l),
(620,124.667,o),
(548,88,o),
(460,88,cs),
(361.333,88,o),
(286.333,140,o),
(265,200,c),
(525,200,l),
(572,300,l),
(237,300,l),
(235.667,313.333,o),
(235,323.667,o),
(235,331,cs),
(235,340.333,o),
(235.667,351.667,o),
(237,365,c),
(603,365,l),
(651,465,l),
(255,465,l),
(281.667,538.333,o),
(349.667,585,o),
(455,585,cs),
(549.667,585,o),
(622.333,544.667,o),
(661,486,c),
(710,590,l),
(646.667,653.333,o),
(563.333,685,o),
(460,685,cs),
(290.667,685,o),
(166,594.333,o),
(130,465,c),
(55,465,l),
(5,365,l),
(106,365,l),
(105.333,355.667,o),
(105,344.667,o),
(105,332,cs),
(105,320,o),
(105.333,309.333,o),
(106,300,c),
(55,300,l),
(5,200,l),
(130,200,l),
(174,74.667,o),
(279.667,-12,o),
(445,-12,cs)
);
}
);
width = 750;
}
);
unicode = 8364;
userData = {
KernOnSpecialSpacing = {
L = symbols;
R = symbols;
};
};
},
{
color = 8;
glyphname = sterling;
kernLeft = sterling;
kernRight = sterling;
lastChange = "2026-06-26 08:32:08 +0000";
layers = (
{
layerId = m001;
shapes = (
{
closed = 1;
nodes = (
(556,0,l),
(609,100,l),
(206,100,l),
(222,146.667,o),
(234,213.333,o),
(234,268,c),
(382,268,l),
(426,368,l),
(234,368,l),
(234,576.602,o),
(281.401,616,o),
(338,616,cs),
(378,616,o),
(411,573.333,o),
(411,520,c),
(487,640,l),
(452.333,685.333,o),
(394,716,o),
(338,716,cs),
(222.974,716,o),
(131,643.096,o),
(131,368,c),
(84,368,l),
(40,268,l),
(131,268,l),
(131,179.271,o),
(97.39,70.502,o),
(53,0,c)
);
}
);
width = 620;
}
);
unicode = 163;
userData = {
KernOnSpecialSpacing = {
L = symbols;
R = symbols;
};
};
},
{
color = 8;
glyphname = yen;
kernLeft = Y;
kernRight = Y;
lastChange = "2026-06-26 08:32:08 +0000";
layers = (
{
layerId = m001;
shapes = (
{
closed = 1;
nodes = (
(1000,348,l),
(367,536,l),
(491,397,l),
(463,397,l),
(0,397,l),
(0,297,l),
(462,297,l),
(491,297,l),
(365,161,l)
);
}
);
width = 1000;
}
);
unicode = 165;
userData = {
KernOnSpecialSpacing = {
L = symbols;
R = symbols;
};
};
},
{
color = 8;
glyphname = plus;
kernLeft = plus;
kernRight = plus;
lastChange = "2026-06-26 08:32:08 +0000";
layers = (
{
layerId = m001;
shapes = (
{
closed = 1;
nodes = (
(301.9,143,l),
(301.9,294.2,l),
(445.9,294.2,l),
(445.9,391.8,l),
(301.9,391.8,l),
(301.9,543,l),
(204.3,543,l),
(204.3,391.8,l),
(61.1,391.8,l),
(61.1,294.2,l),
(204.3,294.2,l),
(204.3,143,l)
);
}
);
width = 506;
}
);
unicode = 43;
userData = {
KernOnSpecialSpacing = {
L = math;
R = math;
};
};
},
{
color = 8;
glyphname = minus;
kernLeft = plus;
kernRight = plus;
lastChange = "2026-06-26 08:32:08 +0000";
layers = (
{
layerId = m001;
shapes = (
{
closed = 1;
nodes = (
(415,294,l),
(415,392,l),
(30,392,l),
(30,294,l)
);
}
);
width = 445;
}
);
unicode = 8722;
userData = {
KernOnSpecialSpacing = {
L = math;
R = math;
};
};
},
{
color = 8;
glyphname = multiply;
kernLeft = plus;
kernRight = plus;
lastChange = "2026-06-26 08:32:08 +0000";
layers = (
{
layerId = m001;
shapes = (
{
closed = 1;
nodes = (
(450,160,l),
(304,341,l),
(431,505,l),
(430,510,l),
(330,510,l),
(251,407,l),
(175,510,l),
(65,510,l),
(66,504,l),
(68,501.333,o),
(110.333,446.333,o),
(193,339,c),
(65,170,l),
(64,167,ls),
(62.667,164.333,o),
(61.333,161,o),
(64,161,cs),
(168,161,l),
(250,280,l),
(333,160,l)
);
}
);
width = 497;
}
);
unicode = 215;
userData = {
KernOnSpecialSpacing = {
L = math;
R = math;
};
};
},
{
color = 8;
glyphname = divide;
kernLeft = plus;
kernRight = plus;
lastChange = "2026-06-26 08:32:08 +0000";
layers = (
{
layerId = m001;
shapes = (
{
closed = 1;
nodes = (
(349,282,l),
(349,392,l),
(38,392,l),
(38,282,l)
);
},
{
closed = 1;
nodes = (
(265,189,l),
(195,260,l),
(125,189,l),
(195,119,l)
);
},
{
closed = 1;
nodes = (
(267,487,l),
(197,558,l),
(127,487,l),
(197,417,l)
);
}
);
width = 387;
}
);
unicode = 247;
userData = {
KernOnSpecialSpacing = {
L = math;
R = math;
};
};
},
{
color = 8;
glyphname = equal;
kernLeft = plus;
kernRight = plus;
lastChange = "2026-06-26 08:32:08 +0000";
layers = (
{
layerId = m001;
shapes = (
{
closed = 1;
nodes = (
(485,315,l),
(485,398,l),
(39,398,l),
(39,315,l)
);
},
{
closed = 1;
nodes = (
(485,81,l),
(485,164,l),
(39,164,l),
(39,81,l)
);
}
);
width = 524;
}
);
unicode = 61;
userData = {
KernOnSpecialSpacing = {
L = math;
R = math;
};
};
},
{
color = 8;
glyphname = greater;
kernLeft = plus;
kernRight = plus;
lastChange = "2026-06-26 08:32:08 +0000";
layers = (
{
layerId = m001;
shapes = (
{
closed = 1;
nodes = (
(302.7,345,l),
(32.7,534,l),
(127,397,l),
(127,297,l),
(30.7,159,l)
);
}
);
width = 336;
}
);
unicode = 62;
userData = {
KernOnSpecialSpacing = {
L = math;
R = math;
};
};
},
{
color = 8;
glyphname = less;
kernLeft = plus;
kernRight = plus;
lastChange = "2026-06-26 08:32:08 +0000";
layers = (
{
layerId = m001;
shapes = (
{
closed = 1;
nodes = (
(206.4,297,l),
(206.4,397,l),
(300.7,534,l),
(30.7,345,l),
(302.7,159,l)
);
}
);
width = 336;
}
);
unicode = 60;
userData = {
KernOnSpecialSpacing = {
L = math;
R = math;
};
};
},
{
color = 8;
glyphname = asciicircum;
kernLeft = asterisk;
kernRight = asterisk;
lastChange = "2026-06-26 08:32:08 +0000";
layers = (
{
layerId = m001;
shapes = (
{
closed = 1;
nodes = (
(139,349,l),
(225,435,l),
(312,349,l),
(437,349,ls),
(442.333,349,o),
(443,350.333,o),
(439,353,c),
(234,559,ls),
(228.667,565,o),
(223.667,565.667,o),
(219,561,c),
(10,353,ls),
(8.667,351.667,o),
(10.667,349,o),
(12,349,cs)
);
}
);
width = 449;
}
);
unicode = 94;
userData = {
KernOnSpecialSpacing = {
L = math;
R = math;
};
};
},
{
color = 8;
glyphname = infinity;
kernLeft = infinity;
kernRight = infinity;
lastChange = "2026-06-26 08:24:29 +0000";
layers = (
{
layerId = m001;
shapes = (
{
closed = 1;
nodes = (
(670.047,146.768,o),
(741.968,223.32,o),
(741.968,335.679,cs),
(741.968,437.882,o),
(670.499,510.814,o),
(570.88,510.814,cs),
(501.788,510.814,o),
(437.068,470.67,o),
(376.72,390.382,c),
(372.72,390.382,l),
(326.275,451.626,o),
(275.282,494.813,o),
(203.135,494.813,cs),
(107.782,494.813,o),
(39.791,428.066,o),
(39.791,324.109,cs),
(39.791,236.81,o),
(107.996,165.92,o),
(190.88,165.92,cs),
(273.223,165.92,o),
(326.409,225.481,o),
(363.888,269.088,c),
(367.888,269.088,l),
(434.107,186.793,o),
(489.969,146.768,o),
(569.728,146.768,cs)
);
},
{
closed = 1;
nodes = (
(145.467,229.246,o),
(104.383,271.081,o),
(104.383,326.846,cs),
(104.383,382.034,o),
(141.73,416.445,o),
(196.719,416.445,cs),
(241.228,416.445,o),
(286.711,384.509,o),
(333.167,320.637,c),
(292.254,259.71,o),
(247.508,229.246,o),
(198.927,229.246,cs)
);
},
{
closed = 1;
nodes = (
(512.202,225.134,o),
(467.441,260.979,o),
(407.438,340.094,c),
(457.936,411.688,o),
(509.909,447.485,o),
(563.358,447.485,cs),
(633.818,447.485,o),
(677.375,400.97,o),
(677.375,332.941,cs),
(677.375,272.224,o),
(635.663,225.134,o),
(570.623,225.134,cs)
);
}
);
width = 781;
}
);
unicode = 8734;
},
{
color = 8;
glyphname = integral;
kernLeft = integral;
kernRight = integral;
lastChange = "2026-06-26 08:24:29 +0000";
layers = (
{
layerId = m001;
shapes = (
{
closed = 1;
nodes = (
(79.986,-176.715,o),
(131.319,-158.715,o),
(165,-111,cs),
(181,-88.333,o),
(189,-63.333,o),
(189,-36,cs),
(189,2,l),
(190,3,l),
(190,448,l),
(187.333,505.333,o),
(195.333,539.667,o),
(234,565,c),
(271.097,584.785,o),
(312.763,583.118,o),
(359,560,c),
(364,565,l),
(364,656,l),
(289.333,674,o),
(229.667,671.667,o),
(185,649,cs),
(115.667,613,o),
(93.333,546.333,o),
(96,449,cs),
(96,20.5,ls),
(96,-9.237,o),
(91.5,-29.57,o),
(82.5,-40.5,cs),
(73.109,-51.419,o),
(57.109,-59.919,o),
(34.5,-66,c),
(0,-62,l),
(0,-158,ls),
(0,-160,o),
(3.667,-162.333,o),
(11,-165,c)
);
}
);
width = 374;
}
);
unicode = 8747;
},
{
color = 8;
glyphname = percent;
kernLeft = percent;
kernRight = percent;
lastChange = "2026-06-26 08:32:08 +0000";
layers = (
{
layerId = m001;
shapes = (
{
closed = 1;
nodes = (
(235,0,l),
(569,667,l),
(475,667,l),
(139,0,l)
);
},
{
closed = 1;
nodes = (
(614.941,-12,o),
(681,52.731,o),
(681,134,cs),
(681,217.435,o),
(610.899,284,o),
(532,284,cs),
(450.007,284,o),
(385,218.133,o),
(385,136,cs),
(385,54.283,o),
(450.265,-12,o),
(534,-12,cs)
);
},
{
closed = 1;
nodes = (
(495.333,65,o),
(463,96.333,o),
(463,135,cs),
(463,173.667,o),
(494.333,205,o),
(533,205,cs),
(569,205,o),
(603,176,o),
(603,140,cs),
(603,136.667,o),
(603,135,o),
(603,135,c),
(603,96.333,o),
(572.667,65,o),
(534,65,cs)
);
},
{
closed = 1;
nodes = (
(262.269,385,o),
(327,451.059,o),
(327,532,cs),
(327,613.205,o),
(262.205,678,o),
(181,678,cs),
(97.677,678,o),
(34,610.954,o),
(34,532,cs),
(34,450.928,o),
(99.928,385,o),
(181,385,cs)
);
},
{
closed = 1;
nodes = (
(141,464,o),
(110,494.333,o),
(110,533,cs),
(110,571.667,o),
(140.333,601,o),
(179,601,cs),
(220.333,601,o),
(250,572.667,o),
(250,534,cs),
(250,495.333,o),
(219.667,464,o),
(181,464,cs)
);
}
);
width = 720;
}
);
unicode = 37;
userData = {
KernOnSpecialSpacing = {
L = "spaced-off";
};
};
},
{
color = 8;
glyphname = rightArrow;
kernLeft = rightArrow;
kernRight = rightArrow;
lastChange = "2026-06-26 08:32:08 +0000";
layers = (
{
layerId = m001;
shapes = (
{
closed = 1;
nodes = (
(140,161,l),
(266,297,l),
(334,297,l),
(206,161,l),
(346,161,l),
(473,297,l),
(540,297,l),
(413,161,l),
(552,161,l),
(679,297,l),
(1488,297,l),
(1362,161,l),
(1997,348,l),
(1364,536,l),
(1488,397,l),
(679,397,l),
(552,533,l),
(413,533,l),
(540,397,l),
(473,397,l),
(346,533,l),
(206,533,l),
(334,397,l),
(266,397,l),
(140,533,l),
(0,533,l),
(128,397,l),
(0,397,l),
(0,297,l),
(128,297,l),
(0,161,l)
);
}
);
width = 1997;
}
);
unicode = 8594;
userData = {
KernOnSpecialSpacing = {
L = NoKerning;
R = NoKerning;
};
};
},
{
color = 8;
glyphname = leftArrow;
kernLeft = leftArrow;
kernRight = leftArrow;
lastChange = "2026-06-26 08:32:08 +0000";
layers = (
{
layerId = m001;
shapes = (
{
closed = 1;
nodes = (
(509,297,l),
(1321,297,l),
(1447,161,l),
(1587,161,l),
(1459,297,l),
(1527,297,l),
(1653,161,l),
(1793,161,l),
(1665,297,l),
(1733,297,l),
(1860,161,l),
(1999,161,l),
(1872,297,l),
(1999,297,l),
(1999,397,l),
(1872,397,l),
(1999,533,l),
(1860,533,l),
(1733,397,l),
(1665,397,l),
(1793,533,l),
(1653,533,l),
(1527,397,l),
(1459,397,l),
(1587,533,l),
(1447,533,l),
(1321,397,l),
(509,397,l),
(633,536,l),
(0,348,l),
(635,161,l)
);
}
);
width = 1999;
}
);
unicode = 8592;
userData = {
KernOnSpecialSpacing = {
L = NoKerning;
R = NoKerning;
};
};
},
{
color = 8;
glyphname = rightArrow.ss01;
kernLeft = rightArrow.ss01;
kernRight = rightArrow.ss01;
lastChange = "2026-06-26 08:24:29 +0000";
layers = (
{
layerId = m001;
shapes = (
{
closed = 1;
nodes = (
(1696.149,-4,o),
(1848.566,115.04,o),
(1878,297,c),
(2512,297,l),
(2386,161,l),
(3021,348,l),
(2388,536,l),
(2512,397,l),
(1878,397,l),
(1848.538,565.739,o),
(1697.302,706,o),
(1518,706,cs),
(1328.037,706,o),
(1177.43,565.553,o),
(1148,397,c),
(681,397,l),
(554,533,l),
(415,533,l),
(542,397,l),
(475,397,l),
(348,533,l),
(208,533,l),
(336,397,l),
(268,397,l),
(142,533,l),
(2,533,l),
(130,397,l),
(62,397,l),
(2,397,l),
(2,297,l),
(62,297,l),
(130,297,l),
(2,161,l),
(142,161,l),
(268,297,l),
(336,297,l),
(208,161,l),
(348,161,l),
(475,297,l),
(542,297,l),
(415,161,l),
(554,161,l),
(681,297,l),
(1148,297,l),
(1177.167,116.695,o),
(1327.349,-4,o),
(1518,-4,cs)
);
},
{
closed = 1;
nodes = (
(1387.905,86,o),
(1277.637,175.758,o),
(1248,297,c),
(1519,297,l),
(1519,397,l),
(1248,397,l),
(1277.239,516.612,o),
(1389.959,606,o),
(1518,606,cs),
(1657.86,606,o),
(1778,485.86,o),
(1778,346,cs),
(1778,205.342,o),
(1656.96,86,o),
(1518,86,cs)
);
}
);
width = 3033;
}
);
},
{
color = 8;
glyphname = leftArrow.ss01;
kernLeft = leftArrow.ss01;
kernRight = leftArrow.ss01;
lastChange = "2026-06-26 08:24:29 +0000";
layers = (
{
layerId = m001;
shapes = (
{
closed = 1;
nodes = (
(1705.651,-4,o),
(1855.833,116.695,o),
(1885,297,c),
(2352,297,l),
(2479,161,l),
(2618,161,l),
(2491,297,l),
(2558,297,l),
(2685,161,l),
(2825,161,l),
(2697,297,l),
(2765,297,l),
(2891,161,l),
(3031,161,l),
(2903,297,l),
(2971,297,l),
(3031,297,l),
(3031,397,l),
(2971,397,l),
(2903,397,l),
(3031,533,l),
(2891,533,l),
(2765,397,l),
(2697,397,l),
(2825,533,l),
(2685,533,l),
(2558,397,l),
(2491,397,l),
(2618,533,l),
(2479,533,l),
(2352,397,l),
(1885,397,l),
(1855.57,565.553,o),
(1704.963,706,o),
(1515,706,cs),
(1335.698,706,o),
(1184.462,565.739,o),
(1155,397,c),
(521,397,l),
(645,536,l),
(12,348,l),
(647,161,l),
(521,297,l),
(1155,297,l),
(1184.434,115.04,o),
(1336.851,-4,o),
(1515,-4,cs)
);
},
{
closed = 1;
nodes = (
(1376.04,86,o),
(1255,205.342,o),
(1255,346,cs),
(1255,485.86,o),
(1375.14,606,o),
(1515,606,cs),
(1643.041,606,o),
(1755.761,516.612,o),
(1785,397,c),
(1514,397,l),
(1514,297,l),
(1785,297,l),
(1755.363,175.758,o),
(1645.095,86,o),
(1515,86,cs)
);
}
);
width = 3033;
}
);
},
{
color = 8;
glyphname = rightArrow.ss02;
kernLeft = rightArrow.ss02;
kernRight = rightArrow.ss02;
lastChange = "2026-06-26 08:24:29 +0000";
layers = (
{
layerId = m001;
shapes = (
{
closed = 1;
nodes = (
(1000,348,l),
(367,536,l),
(491,397,l),
(463,397,l),
(0,397,l),
(0,297,l),
(462,297,l),
(491,297,l),
(365,161,l)
);
}
);
width = 1000;
}
);
},
{
color = 8;
glyphname = leftArrow.ss02;
kernLeft = leftArrow.ss02;
kernRight = leftArrow.ss02;
lastChange = "2026-06-26 08:24:29 +0000";
layers = (
{
layerId = m001;
shapes = (
{
closed = 1;
nodes = (
(509,297,l),
(538,297,l),
(1000,297,l),
(1000,397,l),
(537,397,l),
(509,397,l),
(633,536,l),
(0,348,l),
(635,161,l)
);
}
);
width = 1000;
}
);
},
{
color = 8;
glyphname = rightArrow.ss03;
kernLeft = rightArrow.ss03;
kernRight = rightArrow.ss03;
lastChange = "2026-06-26 08:24:29 +0000";
layers = (
{
layerId = m001;
shapes = (
{
closed = 1;
nodes = (
(142,161,l),
(268,297,l),
(336,297,l),
(208,161,l),
(348,161,l),
(475,297,l),
(542,297,l),
(415,161,l),
(554,161,l),
(681,297,l),
(1000,297,l),
(1000,397,l),
(681,397,l),
(554,533,l),
(415,533,l),
(542,397,l),
(475,397,l),
(348,533,l),
(208,533,l),
(336,397,l),
(268,397,l),
(142,533,l),
(2,533,l),
(130,397,l),
(62,397,l),
(2,397,l),
(2,297,l),
(62,297,l),
(130,297,l),
(2,161,l)
);
}
);
width = 1000;
}
);
},
{
color = 8;
glyphname = leftArrow.ss03;
kernLeft = leftArrow.ss03;
kernRight = leftArrow.ss03;
lastChange = "2026-06-26 08:24:29 +0000";
layers = (
{
layerId = m001;
shapes = (
{
closed = 1;
nodes = (
(588,161,l),
(460,297,l),
(528,297,l),
(654,161,l),
(794,161,l),
(666,297,l),
(734,297,l),
(861,161,l),
(1000,161,l),
(873,297,l),
(941,297,l),
(1000,297,l),
(1000,397,l),
(941,397,l),
(873,397,l),
(1000,533,l),
(861,533,l),
(734,397,l),
(666,397,l),
(794,533,l),
(654,533,l),
(528,397,l),
(460,397,l),
(588,533,l),
(448,533,l),
(322,397,l),
(0,397,l),
(0,297,l),
(322,297,l),
(448,161,l)
);
}
);
width = 1000;
}
);
},
{
color = 8;
glyphname = rightArrow.ss04;
kernLeft = rightArrow.ss04;
kernRight = rightArrow.ss04;
lastChange = "2026-06-26 08:24:29 +0000";
layers = (
{
layerId = m001;
shapes = (
{
closed = 1;
nodes = (
(690.651,-4,o),
(840.833,116.695,o),
(870,297,c),
(1000,297,l),
(1000,397,l),
(870,397,l),
(840.57,565.553,o),
(689.963,706,o),
(500,706,cs),
(320.322,706,o),
(169.449,565.66,o),
(140,397,c),
(0,397,l),
(0,297,l),
(140,297,l),
(169.373,115.423,o),
(320.995,-4,o),
(500,-4,cs)
);
},
{
closed = 1;
nodes = (
(360.043,86,o),
(240,206.043,o),
(240,346,cs),
(240,484.96,o),
(359.342,606,o),
(500,606,cs),
(628.041,606,o),
(740.761,516.612,o),
(770,397,c),
(499,397,l),
(499,297,l),
(679.667,297,o),
(770,297,o),
(770,297,c),
(740.363,175.758,o),
(630.095,86,o),
(500,86,cs)
);
}
);
width = 1000;
}
);
},
{
color = 8;
glyphname = leftArrow.ss04;
kernLeft = leftArrow.ss04;
kernRight = leftArrow.ss04;
lastChange = "2026-06-26 08:24:29 +0000";
layers = (
{
layerId = m001;
shapes = (
{
closed = 1;
nodes = (
(678.149,-4,o),
(830.565,115.041,o),
(860,297,c),
(1000,297,l),
(1000,397,l),
(860,397,l),
(830.538,565.739,o),
(679.302,706,o),
(500,706,cs),
(310.037,706,o),
(159.43,565.553,o),
(130,397,c),
(0,397,l),
(0,297,l),
(130,297,l),
(159.167,116.695,o),
(309.349,-4,o),
(500,-4,cs)
);
},
{
closed = 1;
nodes = (
(369.905,86,o),
(259.637,175.758,o),
(230,297,c),
(501,297,l),
(501,397,l),
(230,397,l),
(259.239,516.612,o),
(371.959,606,o),
(500,606,cs),
(639.86,606,o),
(760,485.86,o),
(760,346,cs),
(760,205.342,o),
(638.96,86,o),
(500,86,cs)
);
}
);
width = 1000;
}
);
},
{
color = 4;
glyphname = dieresiscomb;
kernLeft = dieresiscomb;
kernRight = dieresiscomb;
lastChange = "2026-06-26 08:32:08 +0000";
layers = (
{
anchors = (
{
name = _top;
pos = (188,475);
},
{
name = top;
pos = (188,628);
}
);
layerId = m001;
shapes = (
{
closed = 1;
nodes = (
(344,608,l),
(274,679,l),
(204,608,l),
(274,538,l)
);
},
{
closed = 1;
nodes = (
(171,608,l),
(101,679,l),
(31,608,l),
(101,538,l)
);
}
);
width = 375;
}
);
unicode = 776;
userData = {
KernOnSpecialSpacing = {
L = NoKerning;
R = NoKerning;
};
};
},
{
color = 4;
glyphname = dotaccentcomb;
kernLeft = dotaccentcomb;
kernRight = dotaccentcomb;
lastChange = "2026-06-26 08:32:08 +0000";
layers = (
{
anchors = (
{
name = _top;
pos = (101,475);
},
{
name = top;
pos = (101,628);
}
);
layerId = m001;
shapes = (
{
closed = 1;
nodes = (
(171,608,l),
(101,679,l),
(31,608,l),
(101,538,l)
);
}
);
width = 202;
}
);
unicode = 775;
userData = {
KernOnSpecialSpacing = {
L = NoKerning;
R = NoKerning;
};
};
},
{
color = 4;
glyphname = gravecomb;
kernLeft = gravecomb;
kernRight = gravecomb;
lastChange = "2026-06-26 08:32:08 +0000";
layers = (
{
anchors = (
{
name = _top;
pos = (155,475);
},
{
name = top;
pos = (118,659);
}
);
layerId = m001;
shapes = (
{
closed = 1;
nodes = (
(222,557,l),
(120,710,l),
(0,710,l),
(133,557,l)
);
}
);
width = 252;
}
);
unicode = 768;
userData = {
KernOnSpecialSpacing = {
L = NoKerning;
R = NoKerning;
};
};
},
{
color = 4;
glyphname = hungarumlautcomb;
kernLeft = hungarumlautcomb;
kernRight = hungarumlautcomb;
lastChange = "2026-06-26 08:32:08 +0000";
layers = (
{
anchors = (
{
name = _top;
pos = (144,475);
},
{
name = top;
pos = (219,659);
}
);
layerId = m001;
shapes = (
{
closed = 1;
nodes = (
(219,557,l),
(302,710,l),
(202,710,l),
(150,557,l)
);
},
{
closed = 1;
nodes = (
(89,557,l),
(172,710,l),
(72,710,l),
(20,557,l)
);
}
);
width = 322;
}
);
unicode = 779;
userData = {
KernOnSpecialSpacing = {
L = NoKerning;
R = NoKerning;
};
};
},
{
color = 4;
glyphname = caroncomb.alt;
kernLeft = caroncomb.alt;
kernRight = caroncomb.alt;
lastChange = "2026-06-26 08:32:08 +0000";
layers = (
{
anchors = (
{
name = _topright;
pos = (87,700);
}
);
layerId = m001;
shapes = (
{
closed = 1;
nodes = (
(116,485,o),
(187,542,o),
(187,620,cs),
(187,700,l),
(87,700,l),
(87,620,ls),
(87,541,o),
(65,508,o),
(30,496,c),
(30,485,l)
);
}
);
width = 217;
}
);
userData = {
KernOnSpecialSpacing = {
L = NoKerning;
R = NoKerning;
};
};
},
{
color = 4;
glyphname = circumflexcomb;
kernLeft = circumflexcomb;
kernRight = circumflexcomb;
lastChange = "2026-06-26 08:32:08 +0000";
layers = (
{
anchors = (
{
name = _top;
pos = (193,475);
},
{
name = top;
pos = (193,659);
}
);
layerId = m001;
shapes = (
{
closed = 1;
nodes = (
(127,557,l),
(193,629,l),
(258,557,l),
(355,557,l),
(193,734,l),
(30,557,l)
);
}
);
width = 385;
}
);
unicode = 770;
userData = {
KernOnSpecialSpacing = {
L = NoKerning;
R = NoKerning;
};
};
},
{
color = 4;
glyphname = brevecomb;
kernLeft = brevecomb;
kernRight = brevecomb;
lastChange = "2026-06-26 08:32:08 +0000";
layers = (
{
anchors = (
{
name = _top;
pos = (195,475);
},
{
name = top;
pos = (195,659);
}
);
layerId = m001;
shapes = (
{
closed = 1;
nodes = (
(289,558,o),
(360,627,o),
(360,710,c),
(269,710,l),
(269,664,o),
(237,630,o),
(195,630,cs),
(153,630,o),
(121,664,o),
(121,710,c),
(30,710,l),
(30,627,o),
(101,558,o),
(195,558,cs)
);
}
);
width = 390;
}
);
unicode = 774;
userData = {
KernOnSpecialSpacing = {
L = NoKerning;
R = NoKerning;
};
};
},
{
color = 4;
glyphname = ringcomb;
kernLeft = ringcomb;
kernRight = ringcomb;
lastChange = "2026-06-26 08:32:08 +0000";
layers = (
{
anchors = (
{
name = _top;
pos = (123,475);
},
{
name = top;
pos = (122,659);
}
);
layerId = m001;
shapes = (
{
closed = 1;
nodes = (
(174,541,o),
(215,582,o),
(215,634,cs),
(215,686,o),
(174,726,o),
(122,726,cs),
(70,726,o),
(30,686,o),
(30,634,cs),
(30,582,o),
(70,541,o),
(122,541,cs)
);
},
{
closed = 1;
nodes = (
(99,590,o),
(82,609,o),
(82,634,cs),
(82,660,o),
(99,679,o),
(122,679,cs),
(145,679,o),
(163,660,o),
(163,634,c),
(163,609,o),
(145,590,o),
(122,590,cs)
);
}
);
width = 245;
}
);
unicode = 778;
userData = {
KernOnSpecialSpacing = {
L = NoKerning;
R = NoKerning;
};
};
},
{
color = 4;
glyphname = tildecomb;
kernLeft = tildecomb;
kernRight = tildecomb;
lastChange = "2026-06-26 08:32:08 +0000";
layers = (
{
anchors = (
{
name = _top;
pos = (205,475);
},
{
name = top;
pos = (205,659);
}
);
layerId = m001;
shapes = (
{
closed = 1;
nodes = (
(320,560,o),
(348,591,o),
(380,625,c),
(341,695,l),
(313,666,o),
(295,651,o),
(267,651,cs),
(220,651,o),
(197,697,o),
(135,697,cs),
(88,697,o),
(61,675,o),
(30,629,c),
(72,570,l),
(92,594,o),
(116,610,o),
(138,610,cs),
(178,610,o),
(211,560,o),
(273,560,cs)
);
}
);
width = 410;
}
);
unicode = 771;
userData = {
KernOnSpecialSpacing = {
L = NoKerning;
R = NoKerning;
};
};
},
{
color = 4;
glyphname = macroncomb;
kernLeft = macroncomb;
kernRight = macroncomb;
lastChange = "2026-06-26 08:32:08 +0000";
layers = (
{
anchors = (
{
name = _top;
pos = (174,475);
},
{
name = top;
pos = (174,659);
}
);
layerId = m001;
shapes = (
{
closed = 1;
nodes = (
(327,582,l),
(327,672,l),
(20,672,l),
(20,582,l)
);
}
);
width = 347;
}
);
unicode = 772;
userData = {
KernOnSpecialSpacing = {
L = NoKerning;
R = NoKerning;
};
};
},
{
color = 4;
glyphname = commaturnedabovecomb;
kernLeft = commaturnedabovecomb;
kernRight = commaturnedabovecomb;
lastChange = "2026-06-26 08:32:08 +0000";
layers = (
{
anchors = (
{
name = _top;
pos = (80,475);
},
{
name = top;
pos = (80,710);
}
);
guides = (
{
pos = (93,557);
}
);
layerId = m001;
shapes = (
{
closed = 1;
nodes = (
(130,557,l),
(130,657,ls),
(130,736,o),
(152,769,o),
(187,781,c),
(187,792,l),
(101,792,o),
(30,735,o),
(30,657,c),
(30,557,l)
);
}
);
width = 217;
}
);
unicode = 786;
userData = {
KernOnSpecialSpacing = {
L = NoKerning;
R = NoKerning;
};
};
},
{
color = 4;
glyphname = commaaccentcomb;
kernLeft = commaaccentcomb;
kernRight = commaaccentcomb;
lastChange = "2026-06-26 08:32:08 +0000";
layers = (
{
anchors = (
{
name = _bottom;
pos = (137,0);
},
{
name = bottom;
pos = (137,-263);
}
);
guides = (
{
pos = (237,-68);
}
);
layerId = m001;
shapes = (
{
closed = 1;
nodes = (
(116,-263,o),
(187,-206,o),
(187,-128,c),
(187,-58,l),
(87,-58,l),
(87,-128,ls),
(87,-207,o),
(65,-240,o),
(30,-252,c),
(30,-263,l)
);
}
);
width = 217;
}
);
unicode = 806;
userData = {
KernOnSpecialSpacing = {
L = NoKerning;
R = NoKerning;
};
};
},
{
color = 4;
glyphname = cedillacomb;
kernLeft = cedillacomb;
kernRight = cedillacomb;
lastChange = "2026-06-26 08:32:08 +0000";
layers = (
{
anchors = (
{
name = _bottom;
pos = (128,0);
},
{
name = bottom;
pos = (128,-195);
}
);
layerId = m001;
shapes = (
{
closed = 1;
nodes = (
(171,-195,o),
(218,-158,o),
(218,-105,cs),
(218,-53,o),
(169,-26,o),
(110,-38,c),
(102,-65,l),
(132,-65,o),
(154,-76,o),
(154,-102,cs),
(154,-125,o),
(138,-136,o),
(114,-136,cs),
(91,-136,o),
(72,-130,o),
(55,-122,c),
(38,-175,l),
(61,-186,o),
(81,-195,o),
(118,-195,cs)
);
},
{
closed = 1;
nodes = (
(130,-65,l),
(152,0,l),
(100,0,l),
(78,-65,l)
);
}
);
width = 230;
}
);
unicode = 807;
userData = {
KernOnSpecialSpacing = {
L = NoKerning;
R = NoKerning;
};
};
},
{
color = 4;
glyphname = ogonekcomb;
kernLeft = ogonekcomb;
kernRight = ogonekcomb;
lastChange = "2026-06-26 08:32:08 +0000";
layers = (
{
anchors = (
{
name = _ogonek;
pos = (123,0);
}
);
layerId = m001;
shapes = (
{
closed = 1;
nodes = (
(148,-199,o),
(171,-195,o),
(191,-184,c),
(191,-100,l),
(174,-110,o),
(157,-115,o),
(136,-115,cs),
(99,-115,o),
(84,-100,o),
(84,-73,cs),
(84,-46,o),
(98,-25,o),
(123,0,c),
(48,0,l),
(21,-25,o),
(7,-61,o),
(7,-98,cs),
(7,-168,o),
(62,-199,o),
(128,-199,cs)
);
}
);
width = 230;
}
);
unicode = 808;
userData = {
KernOnSpecialSpacing = {
L = NoKerning;
R = NoKerning;
};
};
},
{
color = 4;
glyphname = strokeshortcomb;
kernLeft = strokeshortcomb;
kernRight = strokeshortcomb;
lastChange = "2026-06-26 08:32:08 +0000";
layers = (
{
anchors = (
{
name = _center;
pos = (199,430);
}
);
layerId = m001;
shapes = (
{
closed = 1;
nodes = (
(368,385,l),
(368,475,l),
(30,475,l),
(30,385,l)
);
}
);
width = 398;
}
);
unicode = 821;
userData = {
KernOnSpecialSpacing = {
L = NoKerning;
R = NoKerning;
};
};
},
{
color = 4;
glyphname = dieresiscomb.case;
kernLeft = dieresiscomb.case;
kernRight = dieresiscomb.case;
lastChange = "2026-06-26 08:24:29 +0000";
layers = (
{
anchors = (
{
name = _top;
pos = (188,700);
},
{
name = top;
pos = (188,838);
}
);
layerId = m001;
shapes = (
{
closed = 1;
nodes = (
(344,823,l),
(274,894,l),
(204,823,l),
(274,753,l)
);
},
{
closed = 1;
nodes = (
(171,823,l),
(101,894,l),
(31,823,l),
(101,753,l)
);
}
);
width = 375;
}
);
},
{
color = 4;
glyphname = dotaccentcomb.case;
kernLeft = dotaccentcomb.case;
kernRight = dotaccentcomb.case;
lastChange = "2026-06-26 08:24:29 +0000";
layers = (
{
anchors = (
{
name = _top;
pos = (101,700);
},
{
name = top;
pos = (101,838);
}
);
layerId = m001;
shapes = (
{
closed = 1;
nodes = (
(171,823,l),
(101,894,l),
(31,823,l),
(101,753,l)
);
}
);
width = 202;
}
);
},
{
color = 4;
glyphname = gravecomb.case;
kernLeft = gravecomb.case;
kernRight = gravecomb.case;
lastChange = "2026-06-26 08:24:29 +0000";
layers = (
{
anchors = (
{
name = _top;
pos = (155,700);
},
{
name = top;
pos = (118,859);
}
);
layerId = m001;
shapes = (
{
closed = 1;
nodes = (
(216,766,l),
(125,902,l),
(5,902,l),
(127,766,l)
);
}
);
width = 252;
}
);
},
{
color = 4;
glyphname = acutecomb.case;
kernLeft = acutecomb.case;
kernRight = acutecomb.case;
lastChange = "2026-06-26 08:24:29 +0000";
layers = (
{
anchors = (
{
name = _top;
pos = (99,700);
},
{
name = top;
pos = (133,859);
}
);
layerId = m001;
shapes = (
{
closed = 1;
nodes = (
(247,902,l),
(127,902,l),
(36,766,l),
(125,766,l)
);
}
);
width = 252;
}
);
},
{
color = 4;
glyphname = hungarumlautcomb.case;
kernLeft = hungarumlautcomb.case;
kernRight = hungarumlautcomb.case;
lastChange = "2026-06-26 08:24:29 +0000";
layers = (
{
anchors = (
{
name = _top;
pos = (144,700);
},
{
name = top;
pos = (156,859);
}
);
guides = (
{
pos = (86,766);
},
{
pos = (87,902);
}
);
layerId = m001;
shapes = (
{
closed = 1;
nodes = (
(94,766,l),
(168,902,l),
(68,902,l),
(25,766,l)
);
},
{
closed = 1;
nodes = (
(223,766,l),
(297,902,l),
(197,902,l),
(154,766,l)
);
}
);
width = 322;
}
);
},
{
color = 4;
glyphname = circumflexcomb.case;
kernLeft = circumflexcomb.case;
kernRight = circumflexcomb.case;
lastChange = "2026-06-26 08:24:29 +0000";
layers = (
{
anchors = (
{
name = _top;
pos = (193,700);
},
{
name = top;
pos = (193,859);
}
);
layerId = m001;
shapes = (
{
closed = 1;
nodes = (
(126,762,l),
(228,858,l),
(157,858,l),
(260,762,l),
(359,762,l),
(193,919,l),
(27,762,l)
);
}
);
width = 385;
}
);
},
{
color = 4;
glyphname = caroncomb.case;
kernLeft = caroncomb.case;
kernRight = caroncomb.case;
lastChange = "2026-06-26 08:24:29 +0000";
layers = (
{
anchors = (
{
name = _top;
pos = (193,700);
},
{
name = top;
pos = (193,859);
}
);
guides = (
{
angle = 90;
pos = (193,791);
}
);
layerId = m001;
shapes = (
{
closed = 1;
nodes = (
(260,903,l),
(158,807,l),
(229,807,l),
(126,903,l),
(27,903,l),
(193,746,l),
(359,903,l)
);
}
);
width = 385;
}
);
},
{
color = 4;
glyphname = brevecomb.case;
kernLeft = brevecomb.case;
kernRight = brevecomb.case;
lastChange = "2026-06-26 08:24:29 +0000";
layers = (
{
anchors = (
{
name = _top;
pos = (195,700);
},
{
name = top;
pos = (195,859);
}
);
layerId = m001;
shapes = (
{
closed = 1;
nodes = (
(289,760,o),
(360,826,o),
(360,910,c),
(270,910,l),
(270,864,o),
(237,830,o),
(195,830,cs),
(153,830,o),
(120,864,o),
(120,910,c),
(30,910,l),
(30,826,o),
(101,760,o),
(195,760,cs)
);
}
);
width = 390;
}
);
},
{
color = 4;
glyphname = ringcomb.case;
kernLeft = ringcomb.case;
kernRight = ringcomb.case;
lastChange = "2026-06-26 08:24:29 +0000";
layers = (
{
anchors = (
{
name = _top;
pos = (123,700);
},
{
name = top;
pos = (122,859);
}
);
layerId = m001;
shapes = (
{
closed = 1;
nodes = (
(174,731,o),
(215,772,o),
(215,824,cs),
(215,876,o),
(174,916,o),
(122,916,cs),
(70,916,o),
(30,876,o),
(30,824,cs),
(30,772,o),
(70,731,o),
(122,731,cs)
);
},
{
closed = 1;
nodes = (
(99,780,o),
(82,799,o),
(82,824,cs),
(82,850,o),
(99,869,o),
(122,869,cs),
(145,869,o),
(163,850,o),
(163,824,c),
(163,799,o),
(145,780,o),
(122,780,cs)
);
}
);
width = 245;
}
);
},
{
color = 4;
glyphname = tildecomb.case;
kernLeft = tildecomb.case;
kernRight = tildecomb.case;
lastChange = "2026-06-26 08:24:29 +0000";
layers = (
{
anchors = (
{
name = _top;
pos = (205,700);
},
{
name = top;
pos = (205,859);
}
);
layerId = m001;
shapes = (
{
closed = 1;
nodes = (
(320,760,o),
(348,791,o),
(380,825,c),
(341,895,l),
(313,866,o),
(295,851,o),
(267,851,cs),
(220,851,o),
(197,897,o),
(135,897,cs),
(88,897,o),
(61,875,o),
(30,829,c),
(72,770,l),
(92,794,o),
(116,810,o),
(138,810,cs),
(178,810,o),
(211,760,o),
(273,760,cs)
);
}
);
width = 410;
}
);
},
{
color = 4;
glyphname = macroncomb.case;
kernLeft = macroncomb.case;
kernRight = macroncomb.case;
lastChange = "2026-06-26 08:24:29 +0000";
layers = (
{
anchors = (
{
name = _top;
pos = (174,700);
},
{
name = top;
pos = (174,859);
}
);
layerId = m001;
shapes = (
{
closed = 1;
nodes = (
(327,782,l),
(327,872,l),
(20,872,l),
(20,782,l)
);
}
);
width = 347;
}
);
},
{
color = 4;
glyphname = circumflexcomb.i;
kernLeft = circumflexcomb.i;
kernRight = circumflexcomb.i;
lastChange = "2026-06-26 08:24:29 +0000";
layers = (
{
anchors = (
{
name = _top;
pos = (172,475);
},
{
name = top;
pos = (172,659);
}
);
layerId = m001;
shapes = (
{
closed = 1;
nodes = (
(114,557,l),
(172,629,l),
(229,557,l),
(313,557,l),
(172,734,l),
(30,557,l)
);
}
);
width = 343;
}
);
},
{
color = 4;
glyphname = brevecomb.i;
kernLeft = brevecomb.i;
kernRight = brevecomb.i;
lastChange = "2026-06-26 08:24:29 +0000";
layers = (
{
anchors = (
{
name = _top;
pos = (174,475);
},
{
name = top;
pos = (174,659);
}
);
layerId = m001;
shapes = (
{
closed = 1;
nodes = (
(256,551,o),
(318,617,o),
(318,710,c),
(238,710,l),
(238,664,o),
(211,630,o),
(174,630,cs),
(137,630,o),
(110,664,o),
(110,710,c),
(30,710,l),
(30,617,o),
(92,551,o),
(174,551,cs)
);
}
);
width = 348;
}
);
},
{
color = 4;
glyphname = tildecomb.i;
kernLeft = tildecomb.i;
kernRight = tildecomb.i;
lastChange = "2026-06-26 08:24:29 +0000";
layers = (
{
anchors = (
{
name = _top;
pos = (170,475);
},
{
name = top;
pos = (170,659);
}
);
layerId = m001;
shapes = (
{
closed = 1;
nodes = (
(258,560,o),
(282,579,o),
(309,610,c),
(279,683,l),
(258,662,o),
(241,656,o),
(221,656,cs),
(178,656,o),
(159,694,o),
(113,694,cs),
(71,694,o),
(49,671,o),
(30,643,c),
(64,582,l),
(78,596,o),
(89,603,o),
(111,603,cs),
(150,603,o),
(173,560,o),
(223,560,cs)
);
}
);
width = 339;
}
);
},
{
color = 4;
glyphname = macroncomb.i;
kernLeft = macroncomb.i;
kernRight = macroncomb.i;
lastChange = "2026-06-26 08:24:29 +0000";
layers = (
{
anchors = (
{
name = _top;
pos = (134,475);
},
{
name = top;
pos = (134,659);
}
);
layerId = m001;
shapes = (
{
closed = 1;
nodes = (
(237,593,l),
(237,683,l),
(30,683,l),
(30,593,l)
);
}
);
width = 267;
}
);
},
{
color = 4;
glyphname = circumflexcomb.case.i;
kernLeft = circumflexcomb.case.i;
kernRight = circumflexcomb.case.i;
lastChange = "2026-06-26 08:24:29 +0000";
layers = (
{
anchors = (
{
name = _top;
pos = (175,700);
},
{
name = top;
pos = (175,859);
}
);
layerId = m001;
shapes = (
{
closed = 1;
nodes = (
(117,762,l),
(205,858,l),
(144,858,l),
(233,762,l),
(320,762,l),
(175,919,l),
(30,762,l)
);
}
);
width = 350;
}
);
},
{
color = 4;
glyphname = brevecomb.case.i;
kernLeft = brevecomb.case.i;
kernRight = brevecomb.case.i;
lastChange = "2026-06-26 08:24:29 +0000";
layers = (
{
anchors = (
{
name = _top;
pos = (195,700);
},
{
name = top;
pos = (195,859);
}
);
layerId = m001;
shapes = (
{
closed = 1;
nodes = (
(278,760,o),
(342,826,o),
(342,910,c),
(262,910,l),
(262,864,o),
(232,830,o),
(195,830,cs),
(158,830,o),
(128,864,o),
(128,910,c),
(48,910,l),
(48,826,o),
(112,760,o),
(195,760,cs)
);
}
);
width = 390;
}
);
},
{
color = 4;
glyphname = macroncomb.case.i;
kernLeft = macroncomb.case.i;
kernRight = macroncomb.case.i;
lastChange = "2026-06-26 08:24:29 +0000";
layers = (
{
anchors = (
{
name = _top;
pos = (134,700);
},
{
name = top;
pos = (134,859);
}
);
layerId = m001;
shapes = (
{
closed = 1;
nodes = (
(237,782,l),
(237,872,l),
(30,872,l),
(30,782,l)
);
}
);
width = 267;
}
);
},
